<?xml version="1.0" encoding="UTF-8" standalone="no"?>
<svg
   xmlns:dc="http://purl.org/dc/elements/1.1/"
   xmlns:cc="http://creativecommons.org/ns#"
   xmlns:rdf="http://www.w3.org/1999/02/22-rdf-syntax-ns#"
   xmlns:svg="http://www.w3.org/2000/svg"
   xmlns="http://www.w3.org/2000/svg"
   xmlns:sodipodi="http://sodipodi.sourceforge.net/DTD/sodipodi-0.dtd"
   xmlns:inkscape="http://www.inkscape.org/namespaces/inkscape"
   inkscape:version="1.0 (4035a4fb49, 2020-05-01)"
   sodipodi:docname="logo.svg"
   version="1.1"
   viewBox="0 0 356.95 160.98"
   data-name="Capa 1"
   id="Capa_1">
  <metadata
     id="metadata99">
    <rdf:RDF>
      <cc:Work
         rdf:about="">
        <dc:format>image/svg+xml</dc:format>
        <dc:type
           rdf:resource="http://purl.org/dc/dcmitype/StillImage" />
      </cc:Work>
    </rdf:RDF>
  </metadata>
  <sodipodi:namedview
     inkscape:current-layer="Capa_1"
     inkscape:window-maximized="1"
     inkscape:window-y="-9"
     inkscape:window-x="-9"
     inkscape:cy="80.489998"
     inkscape:cx="178.47501"
     inkscape:zoom="3.1376942"
     showgrid="false"
     id="namedview97"
     inkscape:window-height="1001"
     inkscape:window-width="1920"
     inkscape:pageshadow="2"
     inkscape:pageopacity="0"
     guidetolerance="10"
     gridtolerance="10"
     objecttolerance="10"
     borderopacity="1"
     bordercolor="#666666"
     pagecolor="#ffffff" />
  <defs
     id="defs4">
    <style
       id="style2">.cls-1{fill:#fff;}.cls-2{fill:#eb1e23;}.cls-3,.cls-4{fill:#424242;}.cls-3{stroke:#424242;stroke-miterlimit:10;}</style>
  </defs>
  <title
     id="title6">MEMO 549-2020-ANEXO logo observatorio nacional de seguridad vial 16dic2020 CURVAS</title>
  <path
     id="path10"
     d="M145.63,94.58H342.08a0,0,0,0,1,0,0v12.77A13.06,13.06,0,0,1,329,120.41H145.63a0,0,0,0,1,0,0V94.58A0,0,0,0,1,145.63,94.58Z"
     class="cls-2" />
  <path
     id="path12"
     d="M162.45,113.89,162,114c-.22,0-.49.06-.81.08l-1.1.08c-.42,0-.84,0-1.29,0a6.58,6.58,0,0,1-4.6-1.41,5.07,5.07,0,0,1-1.53-3.92,5.39,5.39,0,0,1,.35-2,4.51,4.51,0,0,1,1-1.48,4.25,4.25,0,0,1,1.4-.9,4.58,4.58,0,0,1,1.7-.31,3.7,3.7,0,0,1,1.14.16,3.74,3.74,0,0,1,.85.37,3.43,3.43,0,0,1,.53.4,2.16,2.16,0,0,1,.22.25v-4a1,1,0,0,1,.38-.88,1.81,1.81,0,0,1,1-.24,3.24,3.24,0,0,1,.79.09c.25.06.4.11.46.13Zm-7.08-4.79a4.21,4.21,0,0,0,.17,1.21,2.7,2.7,0,0,0,.55,1,2.4,2.4,0,0,0,.93.63,3.68,3.68,0,0,0,1.36.23,6.42,6.42,0,0,0,1-.06,1.88,1.88,0,0,0,.48-.11v-3.27a2.88,2.88,0,0,0-.54-1.78,1.92,1.92,0,0,0-1.62-.71,2,2,0,0,0-1.7.8A3.4,3.4,0,0,0,155.37,109.1Z"
     class="cls-1" />
  <path
     id="path14"
     d="M174.23,107.72a3.39,3.39,0,0,1-.16,1,2,2,0,0,1-.51.8,2.27,2.27,0,0,1-.91.5,4.74,4.74,0,0,1-1.41.18H167.5a2.19,2.19,0,0,0,.89,1.3,3.24,3.24,0,0,0,1.93.53,7.21,7.21,0,0,0,1.84-.18,5.19,5.19,0,0,0,.8-.25l.71,1.85a1.17,1.17,0,0,1-.32.15,5.34,5.34,0,0,1-.76.24c-.32.08-.69.15-1.13.22a9.3,9.3,0,0,1-1.46.1,6.79,6.79,0,0,1-2.06-.3,4.58,4.58,0,0,1-1.65-.91,4.14,4.14,0,0,1-1.09-1.55,5.74,5.74,0,0,1-.39-2.21,6,6,0,0,1,.36-2.13,4.76,4.76,0,0,1,1-1.64,4.55,4.55,0,0,1,1.6-1,5.49,5.49,0,0,1,2.07-.38,5.67,5.67,0,0,1,1.88.29,4,4,0,0,1,1.36.8,3.27,3.27,0,0,1,.84,1.18A3.74,3.74,0,0,1,174.23,107.72Zm-2.47-.23a2,2,0,0,0-.1-.56,1.51,1.51,0,0,0-.33-.54,1.66,1.66,0,0,0-.6-.4,2.25,2.25,0,0,0-.91-.16,2.1,2.1,0,0,0-1,.26,2.48,2.48,0,0,0-.75.65,3,3,0,0,0-.45.86,3,3,0,0,0-.15.9h3.35c.41,0,.68-.08.8-.25A1.23,1.23,0,0,0,171.76,107.49Z"
     class="cls-1" />
  <path
     id="path16"
     d="M188.75,104.28a4.79,4.79,0,0,0-.45-.44,2.72,2.72,0,0,0-.72-.47,5.46,5.46,0,0,0-1-.36,5.89,5.89,0,0,0-1.4-.15A3.84,3.84,0,0,0,184,103a1.72,1.72,0,0,0-.69.35,1.26,1.26,0,0,0-.36.51,1.78,1.78,0,0,0-.1.56,1.24,1.24,0,0,0,.4.92,2.94,2.94,0,0,0,1.43.63l1.59.35a11.35,11.35,0,0,1,1.67.51,4.83,4.83,0,0,1,1.28.74,3,3,0,0,1,.82,1,3.46,3.46,0,0,1,.29,1.46,4.54,4.54,0,0,1-.3,1.69,3.25,3.25,0,0,1-.93,1.3,4.33,4.33,0,0,1-1.6.84,8,8,0,0,1-2.33.3A10.5,10.5,0,0,1,183,114a9.53,9.53,0,0,1-1.6-.5,5.67,5.67,0,0,1-1-.53l-.47-.33,1.27-1.94a4.05,4.05,0,0,0,.39.3,5.65,5.65,0,0,0,.82.47,7.71,7.71,0,0,0,1.24.43,6.33,6.33,0,0,0,1.63.2,4.55,4.55,0,0,0,1.22-.14,1.89,1.89,0,0,0,.74-.36,1.28,1.28,0,0,0,.37-.53,2.11,2.11,0,0,0,.1-.61,1.34,1.34,0,0,0-.57-1.14,4.11,4.11,0,0,0-1.6-.62l-1.76-.36a6.09,6.09,0,0,1-1.26-.39,4.11,4.11,0,0,1-1.13-.7,3.26,3.26,0,0,1-1.12-2.53,4,4,0,0,1,.3-1.56,3.48,3.48,0,0,1,.9-1.26A4.32,4.32,0,0,1,183,101a7,7,0,0,1,2.16-.3,10.6,10.6,0,0,1,1.6.1,9.49,9.49,0,0,1,1.15.24,4.87,4.87,0,0,1,.77.29l.44.24a1.61,1.61,0,0,1,.55.55,1.16,1.16,0,0,1,.2.61,1.29,1.29,0,0,1-.13.57,2.52,2.52,0,0,1-.3.45,2,2,0,0,1-.35.32Z"
     class="cls-1" />
  <path
     id="path18"
     d="M201.56,107.72a3.39,3.39,0,0,1-.16,1,2,2,0,0,1-.51.8,2.27,2.27,0,0,1-.91.5,4.77,4.77,0,0,1-1.42.18h-3.73a2.19,2.19,0,0,0,.89,1.3,3.24,3.24,0,0,0,1.93.53,7.21,7.21,0,0,0,1.84-.18,4.92,4.92,0,0,0,.79-.25l.71,1.85a1,1,0,0,1-.31.15,5.34,5.34,0,0,1-.76.24c-.32.08-.7.15-1.13.22a9.3,9.3,0,0,1-1.46.1,6.81,6.81,0,0,1-2.07-.3,4.62,4.62,0,0,1-1.64-.91,4.14,4.14,0,0,1-1.09-1.55,5.56,5.56,0,0,1-.4-2.21,6,6,0,0,1,.37-2.13,4.62,4.62,0,0,1,1-1.64,4.55,4.55,0,0,1,1.6-1,5.49,5.49,0,0,1,2.07-.38,5.67,5.67,0,0,1,1.88.29,4,4,0,0,1,1.36.8,3.13,3.13,0,0,1,.83,1.18A3.57,3.57,0,0,1,201.56,107.72Zm-2.47-.23a1.73,1.73,0,0,0-.11-.56,1.36,1.36,0,0,0-.32-.54,1.66,1.66,0,0,0-.6-.4,2.26,2.26,0,0,0-.92-.16,2.06,2.06,0,0,0-1,.26,2.48,2.48,0,0,0-.75.65,3,3,0,0,0-.45.86,3,3,0,0,0-.15.9h3.35c.41,0,.68-.08.8-.25A1.31,1.31,0,0,0,199.09,107.49Z"
     class="cls-1" />
  <path
     id="path20"
     d="M213.05,108.78a3.75,3.75,0,0,1-.42,1.83,4.58,4.58,0,0,1-1.19,1.39,3,3,0,0,1,.84.62,2.67,2.67,0,0,1,.49.69,2.12,2.12,0,0,1,.22.64,2.86,2.86,0,0,1,.06.53,2.77,2.77,0,0,1-.35,1.38,3.12,3.12,0,0,1-1,1,4.7,4.7,0,0,1-1.5.68,7.55,7.55,0,0,1-1.9.23,10.77,10.77,0,0,1-2-.16,9.38,9.38,0,0,1-1.42-.36,5.38,5.38,0,0,1-.87-.39,3,3,0,0,1-.37-.23l1-1.87.33.22a4.26,4.26,0,0,0,.67.32,6.14,6.14,0,0,0,1,.3,5.9,5.9,0,0,0,1.32.13,3.12,3.12,0,0,0,1.66-.37,1.25,1.25,0,0,0,.38-1.78,1.52,1.52,0,0,0-.68-.54l-.23,0-.34,0-.35,0h-.26a5.64,5.64,0,0,1-2-.33,4.41,4.41,0,0,1-1.53-1,4.07,4.07,0,0,1-1-1.45,4.63,4.63,0,0,1-.36-1.85,4.5,4.5,0,0,1,.37-1.85,4.35,4.35,0,0,1,1-1.45,4.72,4.72,0,0,1,1.54-.94,5.41,5.41,0,0,1,1.92-.34,5.25,5.25,0,0,1,1.83.32h3a1.21,1.21,0,0,1,.9.26,1,1,0,0,1,.24.71,2.1,2.1,0,0,1-.12.7,2.8,2.8,0,0,1-.16.44l-1.76-.16a2.71,2.71,0,0,1,.47.59,4,4,0,0,1,.3.67,4.78,4.78,0,0,1,.2,1.22Zm-2.62-.17a2.72,2.72,0,0,0-.61-1.87,2.31,2.31,0,0,0-3.33,0,2.78,2.78,0,0,0-.62,1.87,2.74,2.74,0,0,0,.62,1.87,2.31,2.31,0,0,0,3.33,0A2.74,2.74,0,0,0,210.43,108.61Z"
     class="cls-1" />
  <path
     id="path22"
     d="M222.38,105.47a1,1,0,0,1,.37-.88,1.81,1.81,0,0,1,1-.24,2.92,2.92,0,0,1,.8.1,3.17,3.17,0,0,1,.45.13v9.31l-.37.06c-.21,0-.48.06-.81.08l-1.11.08c-.4,0-.82,0-1.26,0a6.58,6.58,0,0,1-4.18-1.08A3.86,3.86,0,0,1,216,109.9v-4.43a1,1,0,0,1,.37-.88,1.81,1.81,0,0,1,1-.24,2.92,2.92,0,0,1,.8.1,3.17,3.17,0,0,1,.45.13v5.06a2.32,2.32,0,0,0,.62,1.74,2.82,2.82,0,0,0,2,.6,7.33,7.33,0,0,0,.78,0l.4-.06Z"
     class="cls-1" />
  <path
     id="path24"
     d="M232.26,106.2a3.8,3.8,0,0,0-1.21.16,5.83,5.83,0,0,0-.6.25v7.28h-2.61v-8.72l.41-.24a6.55,6.55,0,0,1,.88-.38,12,12,0,0,1,1.28-.36A7.93,7.93,0,0,1,232,104a6.2,6.2,0,0,1,1,.08,3.57,3.57,0,0,1,.83.22,1.46,1.46,0,0,1,.56.4.92.92,0,0,1,.2.59,1.52,1.52,0,0,1-.2.83,2.73,2.73,0,0,1-.36.44,1.28,1.28,0,0,0-.24-.12l-.43-.13a3.85,3.85,0,0,0-.53-.1C232.62,106.22,232.44,106.2,232.26,106.2Z"
     class="cls-1" />
  <path
     id="path26"
     d="M239,101.53a1.4,1.4,0,0,1-.43,1,1.46,1.46,0,0,1-1.05.42,1.43,1.43,0,0,1-1-.42,1.4,1.4,0,0,1-.43-1,1.36,1.36,0,0,1,.43-1,1.46,1.46,0,0,1,1-.41,1.49,1.49,0,0,1,1.05.41A1.36,1.36,0,0,1,239,101.53Zm-2.77,3.94a1,1,0,0,1,.37-.88,1.83,1.83,0,0,1,1-.24,2.85,2.85,0,0,1,.79.1,4.07,4.07,0,0,1,.46.13v9.31h-2.62Z"
     class="cls-1" />
  <path
     id="path28"
     d="M251,113.89l-.44.06c-.22,0-.49.06-.81.08l-1.1.08c-.42,0-.84,0-1.29,0a6.58,6.58,0,0,1-4.6-1.41,5.07,5.07,0,0,1-1.53-3.92,5.39,5.39,0,0,1,.35-2,4.51,4.51,0,0,1,1-1.48,4.25,4.25,0,0,1,1.4-.9,4.58,4.58,0,0,1,1.7-.31,3.7,3.7,0,0,1,1.14.16,3.74,3.74,0,0,1,.85.37,3.43,3.43,0,0,1,.53.4,2.16,2.16,0,0,1,.22.25v-4a1,1,0,0,1,.38-.88,1.81,1.81,0,0,1,1-.24,3.24,3.24,0,0,1,.79.09c.25.06.4.11.46.13ZM244,109.1a4.21,4.21,0,0,0,.17,1.21,2.7,2.7,0,0,0,.55,1,2.4,2.4,0,0,0,.93.63,3.68,3.68,0,0,0,1.36.23,6.42,6.42,0,0,0,1-.06,1.88,1.88,0,0,0,.48-.11v-3.27a2.88,2.88,0,0,0-.54-1.78,1.92,1.92,0,0,0-1.62-.71,2,2,0,0,0-1.7.8A3.4,3.4,0,0,0,244,109.1Z"
     class="cls-1" />
  <path
     id="path30"
     d="M262.36,113.81l-.41.08L261,114l-1.39.1c-.54,0-1.12.05-1.76.05a8.9,8.9,0,0,1-2.27-.24,3.85,3.85,0,0,1-1.41-.64,2.18,2.18,0,0,1-.72-1,3.61,3.61,0,0,1-.19-1.21,3.73,3.73,0,0,1,.24-1.4,2.14,2.14,0,0,1,.78-1,3.67,3.67,0,0,1,1.4-.57,9.32,9.32,0,0,1,2.06-.19,13.86,13.86,0,0,1,1.4.05l.66.06v-.3a1.6,1.6,0,0,0-.6-1.34,3,3,0,0,0-1.85-.47,4.14,4.14,0,0,0-1,.1,4.6,4.6,0,0,0-.74.24,3.45,3.45,0,0,0-.52.29l-.35.21a1.44,1.44,0,0,1-.47-.48,1.38,1.38,0,0,1-.2-.73,1,1,0,0,1,.26-.7,1.8,1.8,0,0,1,.7-.47,4,4,0,0,1,1-.25,9,9,0,0,1,1.17-.08,10.27,10.27,0,0,1,2.08.2,4.35,4.35,0,0,1,1.63.67,3.2,3.2,0,0,1,1.05,1.27,4.65,4.65,0,0,1,.38,2Zm-2.58-4.11a1.26,1.26,0,0,0-.22,0l-.42,0-.53,0H258a4.35,4.35,0,0,0-1.12.11,1.56,1.56,0,0,0-.66.31.9.9,0,0,0-.32.46,1.79,1.79,0,0,0-.08.57,1.7,1.7,0,0,0,.07.51.92.92,0,0,0,.31.44,1.87,1.87,0,0,0,.65.32,4.14,4.14,0,0,0,1.1.12,7.63,7.63,0,0,0,1.17-.07l.64-.1Z"
     class="cls-1" />
  <path
     id="path32"
     d="M274.45,113.89,274,114c-.21,0-.49.06-.81.08l-1.1.08c-.41,0-.84,0-1.29,0a6.58,6.58,0,0,1-4.6-1.41,5.07,5.07,0,0,1-1.53-3.92,5.39,5.39,0,0,1,.35-2,4.51,4.51,0,0,1,1-1.48,4.19,4.19,0,0,1,1.41-.9,4.53,4.53,0,0,1,1.69-.31,3.7,3.7,0,0,1,1.14.16,3.74,3.74,0,0,1,.85.37,3.43,3.43,0,0,1,.53.4,2.78,2.78,0,0,1,.23.25v-4a1,1,0,0,1,.37-.88,1.81,1.81,0,0,1,1-.24,3.24,3.24,0,0,1,.79.09c.25.06.4.11.46.13Zm-7.08-4.79a3.89,3.89,0,0,0,.18,1.21,2.54,2.54,0,0,0,.54,1,2.4,2.4,0,0,0,.93.63,3.68,3.68,0,0,0,1.36.23,6.33,6.33,0,0,0,1-.06,2.13,2.13,0,0,0,.49-.11v-3.27a2.88,2.88,0,0,0-.55-1.78,1.92,1.92,0,0,0-1.62-.71,2,2,0,0,0-1.7.8A3.4,3.4,0,0,0,267.37,109.1Z"
     class="cls-1" />
  <path
     id="path34"
     d="M281,104.28c-.18-.43-.31-.79-.41-1.11a2.91,2.91,0,0,1-.15-.89,1.61,1.61,0,0,1,.06-.44,1,1,0,0,1,.23-.39,1,1,0,0,1,.41-.29,1.46,1.46,0,0,1,.64-.12,2.3,2.3,0,0,1,.88.13l.34.13c.15.45.33,1,.54,1.54s.43,1.17.67,1.78.48,1.25.73,1.88l.72,1.84c.23.59.45,1.15.66,1.67s.4,1,.57,1.33c.22-.51.47-1.12.75-1.82l.9-2.26c.32-.81.64-1.63.95-2.49s.63-1.69.93-2.51a2.18,2.18,0,0,1,.54-.9A1.55,1.55,0,0,1,292,101a2.16,2.16,0,0,1,.59.08,2.67,2.67,0,0,1,.48.18,2.33,2.33,0,0,1,.33.18l.14.11c-.07.18-.2.54-.41,1.06s-.47,1.14-.76,1.86-.62,1.5-1,2.35-.72,1.69-1.09,2.54-.72,1.66-1.07,2.44-.66,1.46-.94,2h-3c-.44-.89-.88-1.8-1.31-2.74l-1.23-2.71c-.38-.87-.73-1.66-1-2.39S281.14,104.74,281,104.28Z"
     class="cls-1" />
  <path
     id="path36"
     d="M298,101.53a1.36,1.36,0,0,1-.43,1,1.49,1.49,0,0,1-2.07,0,1.36,1.36,0,0,1-.43-1,1.32,1.32,0,0,1,.43-1,1.51,1.51,0,0,1,2.07,0A1.32,1.32,0,0,1,298,101.53Zm-2.76,3.94a1,1,0,0,1,.37-.88,1.81,1.81,0,0,1,1-.24,2.92,2.92,0,0,1,.8.1,3.17,3.17,0,0,1,.45.13v9.31h-2.61Z"
     class="cls-1" />
  <path
     id="path38"
     d="M309.28,113.81l-.42.08-.94.11-1.39.1c-.54,0-1.12.05-1.76.05a8.9,8.9,0,0,1-2.27-.24,3.85,3.85,0,0,1-1.41-.64,2.18,2.18,0,0,1-.72-1,3.61,3.61,0,0,1-.2-1.21,3.54,3.54,0,0,1,.25-1.4,2.14,2.14,0,0,1,.78-1,3.69,3.69,0,0,1,1.39-.57,9.48,9.48,0,0,1,2.07-.19,13.86,13.86,0,0,1,1.4.05l.65.06v-.3a1.62,1.62,0,0,0-.59-1.34,3,3,0,0,0-1.85-.47,4.28,4.28,0,0,0-1,.1,4.46,4.46,0,0,0-.73.24,4.21,4.21,0,0,0-.53.29l-.34.21a1.35,1.35,0,0,1-.47-.48,1.3,1.3,0,0,1-.21-.73,1,1,0,0,1,.27-.7,1.73,1.73,0,0,1,.7-.47,4,4,0,0,1,1-.25,9,9,0,0,1,1.17-.08,10.34,10.34,0,0,1,2.08.2,4.35,4.35,0,0,1,1.63.67,3.2,3.2,0,0,1,1,1.27,4.65,4.65,0,0,1,.38,2Zm-2.58-4.11-.23,0-.41,0-.53,0h-.59a4.3,4.3,0,0,0-1.12.11,1.67,1.67,0,0,0-.67.31,1,1,0,0,0-.31.46,1.79,1.79,0,0,0-.09.57,1.7,1.7,0,0,0,.08.51.92.92,0,0,0,.31.44,1.87,1.87,0,0,0,.65.32,4.05,4.05,0,0,0,1.09.12,7.69,7.69,0,0,0,1.18-.07l.64-.1Z"
     class="cls-1" />
  <path
     id="path40"
     d="M312.17,101.23a1,1,0,0,1,.38-.88,1.81,1.81,0,0,1,1-.24,3.29,3.29,0,0,1,.79.09l.46.13v13.56h-2.62Z"
     class="cls-1" />
  <path
     id="path42"
     d="M172.84,52.15a10.88,10.88,0,0,1-.73,4,9.52,9.52,0,0,1-2,3.2,9.26,9.26,0,0,1-3.15,2.12,11.19,11.19,0,0,1-8.16,0,9.36,9.36,0,0,1-3.15-2.12,9.68,9.68,0,0,1-2-3.2,11.42,11.42,0,0,1,0-8,9.53,9.53,0,0,1,2-3.19,9.63,9.63,0,0,1,3.15-2.11,11.33,11.33,0,0,1,8.16,0A9.53,9.53,0,0,1,170.07,45a9.38,9.38,0,0,1,2,3.19A10.81,10.81,0,0,1,172.84,52.15Zm-4.19,0a8.36,8.36,0,0,0-.41-2.65,6.28,6.28,0,0,0-1.14-2.11A5.18,5.18,0,0,0,165.28,46a5.53,5.53,0,0,0-2.41-.51,5.6,5.6,0,0,0-2.44.51,5.21,5.21,0,0,0-1.83,1.38,6,6,0,0,0-1.16,2.11,8.74,8.74,0,0,0,0,5.29,6.41,6.41,0,0,0,1.16,2.12,5.29,5.29,0,0,0,1.83,1.41,5.75,5.75,0,0,0,2.44.5,5.68,5.68,0,0,0,2.41-.5,5.26,5.26,0,0,0,1.82-1.41,6.75,6.75,0,0,0,1.14-2.12A8.3,8.3,0,0,0,168.65,52.15Z"
     class="cls-3" />
  <path
     id="path44"
     d="M176.49,42.85a1.45,1.45,0,0,1,.56-1.31,2.7,2.7,0,0,1,1.48-.36,4.52,4.52,0,0,1,1.19.14,6.21,6.21,0,0,1,.68.19v7.37a3.76,3.76,0,0,1,.34-.36,4,4,0,0,1,.79-.6,5.68,5.68,0,0,1,1.26-.56,5.54,5.54,0,0,1,1.72-.24,7,7,0,0,1,2.52.46,6.18,6.18,0,0,1,2.1,1.36,6.4,6.4,0,0,1,1.43,2.2,8,8,0,0,1,.54,3A7.5,7.5,0,0,1,188.79,60c-1.53,1.41-3.82,2.11-6.85,2.11-.67,0-1.31,0-1.93,0L178.36,62c-.48,0-.89-.08-1.21-.13l-.66-.1ZM187.07,54.6a5.09,5.09,0,0,0-.9-3.14,3,3,0,0,0-2.53-1.18,2.86,2.86,0,0,0-2.43,1.06A4.24,4.24,0,0,0,180.4,54v4.89a3.14,3.14,0,0,0,.73.16,9.38,9.38,0,0,0,1.45.09,5.34,5.34,0,0,0,2-.34,3.52,3.52,0,0,0,1.4-.95,4.12,4.12,0,0,0,.81-1.43A5.78,5.78,0,0,0,187.07,54.6Z"
     class="cls-3" />
  <path
     id="path46"
     d="M200.64,50a4.43,4.43,0,0,0-2.24.4,1.2,1.2,0,0,0-.6,1,1,1,0,0,0,.5.88,4,4,0,0,0,1.67.46l2.4.31a7.25,7.25,0,0,1,3.83,1.37,3.53,3.53,0,0,1,1.2,2.82,4.3,4.3,0,0,1-1.72,3.56,8.11,8.11,0,0,1-5.09,1.35,14.29,14.29,0,0,1-2.84-.25,16.27,16.27,0,0,1-2.12-.57,9.72,9.72,0,0,1-1.39-.61,3.91,3.91,0,0,1-.63-.41l1.5-2.65a4.18,4.18,0,0,0,.52.32,10.31,10.31,0,0,0,1.15.52,11.75,11.75,0,0,0,1.67.48,9.93,9.93,0,0,0,2.11.21,4.53,4.53,0,0,0,2.11-.35,1.14,1.14,0,0,0,.11-2,5.25,5.25,0,0,0-1.83-.49l-1.84-.22a11.07,11.07,0,0,1-2.17-.45,5.3,5.3,0,0,1-1.63-.82,3.43,3.43,0,0,1-1-1.27,4.19,4.19,0,0,1-.37-1.82,4.77,4.77,0,0,1,.35-1.8,3.86,3.86,0,0,1,1.11-1.48,5.74,5.74,0,0,1,2-1,10.31,10.31,0,0,1,3-.38,14.76,14.76,0,0,1,3.15.28,11.05,11.05,0,0,1,1.68.5c1,.43,1.5,1,1.5,1.76a1.73,1.73,0,0,1-.39,1.18,3.38,3.38,0,0,1-.81.69l-.36-.3a4,4,0,0,0-.89-.53,7.9,7.9,0,0,0-1.48-.51A8.74,8.74,0,0,0,200.64,50Z"
     class="cls-3" />
  <path
     id="path48"
     d="M224.12,52.54a5,5,0,0,1-.23,1.56,2.87,2.87,0,0,1-.76,1.19,3.39,3.39,0,0,1-1.37.75,7,7,0,0,1-2.1.27h-5.59a3.28,3.28,0,0,0,1.34,1.94,4.79,4.79,0,0,0,2.88.79,10.83,10.83,0,0,0,2.75-.26,8,8,0,0,0,1.18-.38l1.07,2.77a3,3,0,0,1-.48.22,9.87,9.87,0,0,1-1.13.35c-.47.12-1,.23-1.69.33a13.19,13.19,0,0,1-2.18.16,10.1,10.1,0,0,1-3.08-.45,6.74,6.74,0,0,1-2.46-1.37,6.12,6.12,0,0,1-1.63-2.32,8.44,8.44,0,0,1-.59-3.29,8.7,8.7,0,0,1,.55-3.18,7.07,7.07,0,0,1,1.53-2.45,6.9,6.9,0,0,1,2.39-1.57,8.11,8.11,0,0,1,3.1-.56,8.28,8.28,0,0,1,2.8.43,6,6,0,0,1,2,1.19,4.79,4.79,0,0,1,1.24,1.76A5.42,5.42,0,0,1,224.12,52.54Zm-3.68-.34a2.34,2.34,0,0,0-.16-.83,2.23,2.23,0,0,0-.48-.81,2.45,2.45,0,0,0-.9-.6,3.47,3.47,0,0,0-1.37-.24,3.06,3.06,0,0,0-1.56.39,3.79,3.79,0,0,0-1.12,1,4.48,4.48,0,0,0-.67,1.28,4.36,4.36,0,0,0-.22,1.34h5c.61,0,1-.12,1.2-.38A1.92,1.92,0,0,0,220.44,52.2Z"
     class="cls-3" />
  <path
     id="path50"
     d="M234.12,50.28a5.75,5.75,0,0,0-1.82.23,8.88,8.88,0,0,0-.89.38V61.75H227.5v-13l.62-.36a7.83,7.83,0,0,1,1.32-.57,14,14,0,0,1,1.91-.53,11.09,11.09,0,0,1,2.38-.24,10,10,0,0,1,1.48.11,5.24,5.24,0,0,1,1.23.34,2.06,2.06,0,0,1,.83.58,1.31,1.31,0,0,1,.31.9,2.06,2.06,0,0,1-.31,1.22,4.45,4.45,0,0,1-.53.67,1.14,1.14,0,0,0-.36-.18c-.19-.06-.4-.13-.64-.19a5.65,5.65,0,0,0-.8-.16A8,8,0,0,0,234.12,50.28Z"
     class="cls-3" />
  <path
     id="path52"
     d="M253.55,48.32c-.09.36-.27.88-.53,1.58s-.58,1.49-1,2.36-.77,1.8-1.2,2.76-.86,1.9-1.28,2.8-.83,1.71-1.21,2.45-.68,1.33-.95,1.76h-3.9c-.56-1-1.13-2.13-1.72-3.33s-1.13-2.35-1.62-3.43-.91-2-1.26-2.8-.55-1.29-.62-1.49-.24-.58-.33-.84a3,3,0,0,1-.12-.87,2,2,0,0,1,.1-.64,1.51,1.51,0,0,1,.32-.56,1.54,1.54,0,0,1,.6-.4,2.41,2.41,0,0,1,1-.16,3.45,3.45,0,0,1,1.24.17,3,3,0,0,1,.44.2c.22.65.51,1.45.86,2.4s.73,1.91,1.12,2.9.77,1.94,1.14,2.85.69,1.65,1,2.2c.09-.18.28-.59.55-1.21s.57-1.35.9-2.19.69-1.73,1.05-2.67.69-1.82,1-2.64a4.17,4.17,0,0,1,.85-1.5,2.08,2.08,0,0,1,1.55-.51,2.61,2.61,0,0,1,1.43.34A3.54,3.54,0,0,1,253.55,48.32Z"
     class="cls-3" />
  <path
     id="path54"
     d="M268.49,61.64a5.51,5.51,0,0,1-.62.11c-.35.06-.82.11-1.41.17s-1.28.11-2.08.15-1.67.07-2.62.07a13.26,13.26,0,0,1-3.39-.35,5.67,5.67,0,0,1-2.11-1,3.24,3.24,0,0,1-1.08-1.44,5.48,5.48,0,0,1-.29-1.8,5.54,5.54,0,0,1,.36-2.09A3.26,3.26,0,0,1,256.43,54a5.69,5.69,0,0,1,2.08-.85,14.25,14.25,0,0,1,3.08-.28c.84,0,1.54,0,2.09.07s.89.08,1,.1v-.45a2.42,2.42,0,0,0-.89-2,4.53,4.53,0,0,0-2.77-.7,6.58,6.58,0,0,0-1.48.16,6.17,6.17,0,0,0-1.1.36,5.5,5.5,0,0,0-.78.42c-.21.14-.39.25-.52.32a2,2,0,0,1-.69-.71,2,2,0,0,1-.31-1.1,1.52,1.52,0,0,1,.39-1,2.8,2.8,0,0,1,1.05-.7,6.2,6.2,0,0,1,1.5-.38,14.3,14.3,0,0,1,1.75-.11,15,15,0,0,1,3.11.3,6.49,6.49,0,0,1,2.43,1,4.74,4.74,0,0,1,1.58,1.9,7,7,0,0,1,.56,3Zm-3.86-6.14a1.63,1.63,0,0,0-.33-.06l-.62,0-.79,0H262a7,7,0,0,0-1.68.17,2.53,2.53,0,0,0-1,.46,1.43,1.43,0,0,0-.47.7,2.73,2.73,0,0,0,0,1.6,1.5,1.5,0,0,0,.46.66,2.8,2.8,0,0,0,1,.47,6.15,6.15,0,0,0,1.64.18,14,14,0,0,0,1.75-.09c.47-.07.79-.12.95-.16Z"
     class="cls-3" />
  <path
     id="path56"
     d="M277.36,50.7v6.17a2,2,0,0,0,.58,1.66,2.4,2.4,0,0,0,1.49.43,2.86,2.86,0,0,0,.77-.1,4.79,4.79,0,0,0,.67-.22,3.68,3.68,0,0,0,.49-.25l.22-.16L283,60.58l-.36.31a5.61,5.61,0,0,1-.88.53,8.59,8.59,0,0,1-1.4.5,7,7,0,0,1-1.85.22,4.91,4.91,0,0,1-3.88-1.36,5.21,5.21,0,0,1-1.2-3.55V50.7h-.93a1.43,1.43,0,0,1-1.7-1.6,2.77,2.77,0,0,1,.17-1l.22-.58h2.24V45.06a1.46,1.46,0,0,1,.55-1.32,2.73,2.73,0,0,1,1.48-.36,4.92,4.92,0,0,1,1.19.14,5.45,5.45,0,0,1,.68.2v3.79h3a1.74,1.74,0,0,1,1.33.42,1.7,1.7,0,0,1,.38,1.17,2.79,2.79,0,0,1-.17,1c-.11.29-.19.48-.23.58Z"
     class="cls-3" />
  <path
     id="path58"
     d="M299.87,54.63a8,8,0,0,1-.55,3,6.92,6.92,0,0,1-1.56,2.4,7.54,7.54,0,0,1-2.44,1.62,8.75,8.75,0,0,1-6.37,0A7.54,7.54,0,0,1,286.51,60a7.09,7.09,0,0,1-1.57-2.4,8.17,8.17,0,0,1-.54-3,8.08,8.08,0,0,1,.54-3,7.09,7.09,0,0,1,1.57-2.4A7.54,7.54,0,0,1,289,47.64a8.75,8.75,0,0,1,6.37,0,7.54,7.54,0,0,1,2.44,1.62,6.92,6.92,0,0,1,1.56,2.4A7.88,7.88,0,0,1,299.87,54.63Zm-4,0a6.7,6.7,0,0,0-.23-1.77,4.07,4.07,0,0,0-.73-1.42,3.55,3.55,0,0,0-1.19-.95,3.45,3.45,0,0,0-1.62-.35,3.44,3.44,0,0,0-2.8,1.3,3.91,3.91,0,0,0-.73,1.42,6.68,6.68,0,0,0,0,3.55,4,4,0,0,0,.73,1.42,3.52,3.52,0,0,0,1.18,1,3.64,3.64,0,0,0,1.62.35,3.48,3.48,0,0,0,2.81-1.3,4.16,4.16,0,0,0,.73-1.42A6.72,6.72,0,0,0,295.9,54.63Z"
     class="cls-3" />
  <path
     id="path60"
     d="M310,50.28a5.64,5.64,0,0,0-1.81.23,8.32,8.32,0,0,0-.9.38V61.75h-3.9v-13c.07-.05.27-.17.61-.36a8,8,0,0,1,1.33-.57,13.2,13.2,0,0,1,1.91-.53,10.93,10.93,0,0,1,2.37-.24,9.89,9.89,0,0,1,1.48.11,5,5,0,0,1,1.23.34,2.17,2.17,0,0,1,.84.58,1.36,1.36,0,0,1,.3.9,2.14,2.14,0,0,1-.3,1.22,6.25,6.25,0,0,1-.53.67,1.38,1.38,0,0,0-.37-.18c-.18-.06-.4-.13-.64-.19a5.8,5.8,0,0,0-.79-.16A8.19,8.19,0,0,0,310,50.28Z"
     class="cls-3" />
  <path
     id="path62"
     d="M320,43.3a2.06,2.06,0,0,1-.65,1.52,2.13,2.13,0,0,1-1.56.63,2.08,2.08,0,0,1-1.53-.63,2.06,2.06,0,0,1-.65-1.52,2,2,0,0,1,.65-1.51,2.1,2.1,0,0,1,1.53-.61,2.16,2.16,0,0,1,1.56.61A2,2,0,0,1,320,43.3Zm-4.14,5.89a1.45,1.45,0,0,1,.56-1.31,2.64,2.64,0,0,1,1.48-.37,4.92,4.92,0,0,1,1.19.14c.36.1.59.16.68.2v13.9h-3.91Z"
     class="cls-3" />
  <path
     id="path64"
     d="M338.9,54.63a8,8,0,0,1-.55,3,6.92,6.92,0,0,1-1.56,2.4,7.54,7.54,0,0,1-2.44,1.62,8.75,8.75,0,0,1-6.37,0A7.54,7.54,0,0,1,325.54,60a7.09,7.09,0,0,1-1.57-2.4,8.17,8.17,0,0,1-.54-3,8.08,8.08,0,0,1,.54-3,7.09,7.09,0,0,1,1.57-2.4A7.54,7.54,0,0,1,328,47.64a8.75,8.75,0,0,1,6.37,0,7.54,7.54,0,0,1,2.44,1.62,6.92,6.92,0,0,1,1.56,2.4A7.88,7.88,0,0,1,338.9,54.63Zm-4,0a6.7,6.7,0,0,0-.23-1.77,3.91,3.91,0,0,0-.73-1.42,3.55,3.55,0,0,0-1.19-.95,3.62,3.62,0,0,0-4.42.95,3.91,3.91,0,0,0-.73,1.42,6.68,6.68,0,0,0,0,3.55,4,4,0,0,0,.73,1.42,3.46,3.46,0,0,0,1.19,1,3.62,3.62,0,0,0,4.42-1,4,4,0,0,0,.73-1.42A6.72,6.72,0,0,0,334.93,54.63Z"
     class="cls-3" />
  <path
     id="path66"
     d="M158.18,69.15a10,10,0,0,1,.63.81c.32.45.72,1,1.18,1.66s1,1.4,1.55,2.21,1.14,1.64,1.72,2.51L165,78.89c.55.84,1,1.61,1.46,2.29V70.27a1.56,1.56,0,0,1,.58-1.38,2.62,2.62,0,0,1,1.55-.41,4,4,0,0,1,1.21.17l.66.22V87.66h-4l-2.2-3.39q-1.23-1.89-2.46-3.71l-2.33-3.44-1.8-2.58V87.66h-4V70.52a2.1,2.1,0,0,1,.14-.73,2.13,2.13,0,0,1,.42-.65,2,2,0,0,1,.73-.48,2.71,2.71,0,0,1,1-.18,3.33,3.33,0,0,1,1.4.24A6.32,6.32,0,0,1,158.18,69.15Z"
     class="cls-3" />
  <path
     id="path68"
     d="M187.58,87.55a5,5,0,0,1-.62.11c-.35.06-.82.11-1.41.17s-1.28.11-2.08.15-1.67.07-2.62.07a13.26,13.26,0,0,1-3.39-.35,5.67,5.67,0,0,1-2.11-1,3.24,3.24,0,0,1-1.08-1.44,5.48,5.48,0,0,1-.29-1.8,5.54,5.54,0,0,1,.36-2.09,3.32,3.32,0,0,1,1.18-1.47,5.77,5.77,0,0,1,2.08-.85,14.25,14.25,0,0,1,3.08-.28c.84,0,1.54,0,2.09.07s.89.08,1,.1v-.45a2.42,2.42,0,0,0-.89-2,4.52,4.52,0,0,0-2.76-.7,6.08,6.08,0,0,0-1.49.16,6.17,6.17,0,0,0-1.1.36,5.5,5.5,0,0,0-.78.42c-.21.14-.39.25-.52.32a2,2,0,0,1-.69-.71,2,2,0,0,1-.31-1.11,1.51,1.51,0,0,1,.39-1,2.8,2.8,0,0,1,1.05-.7,6.2,6.2,0,0,1,1.5-.38A14.3,14.3,0,0,1,179.9,73a15.74,15.74,0,0,1,3.11.29,6.67,6.67,0,0,1,2.43,1,4.68,4.68,0,0,1,1.58,1.9,7,7,0,0,1,.56,3Zm-3.86-6.14a1.63,1.63,0,0,0-.33-.06c-.17,0-.37,0-.62,0l-.79,0h-.88a7,7,0,0,0-1.68.17,2.53,2.53,0,0,0-1,.46,1.43,1.43,0,0,0-.47.7,3,3,0,0,0-.13.85,2.67,2.67,0,0,0,.11.75,1.45,1.45,0,0,0,.47.66,2.66,2.66,0,0,0,1,.47,6.15,6.15,0,0,0,1.64.18,14,14,0,0,0,1.75-.09c.47-.07.79-.12.95-.16Z"
     class="cls-3" />
  <path
     id="path70"
     d="M199.08,76.19a4,4,0,0,0-2.93,1.13A4.34,4.34,0,0,0,195,80.54a5.27,5.27,0,0,0,.32,1.91,4,4,0,0,0,.87,1.37,3.55,3.55,0,0,0,1.26.83,4.23,4.23,0,0,0,1.52.28,5.56,5.56,0,0,0,1.41-.17,6.87,6.87,0,0,0,1.09-.38,4.8,4.8,0,0,0,.71-.39,2.88,2.88,0,0,0,.31-.24l1.67,2.6c-.19.15-.44.32-.75.52a6.91,6.91,0,0,1-1.18.55,9.62,9.62,0,0,1-1.6.45,10.82,10.82,0,0,1-2.08.18,8.45,8.45,0,0,1-2.9-.49,6.62,6.62,0,0,1-2.39-1.45,7,7,0,0,1-1.62-2.36,8.06,8.06,0,0,1-.6-3.21,7.82,7.82,0,0,1,.6-3.14,6.94,6.94,0,0,1,4.05-3.85,8.28,8.28,0,0,1,3-.52,9.3,9.3,0,0,1,3,.38,6.47,6.47,0,0,1,1.47.68,2.54,2.54,0,0,1,.64.67,1.7,1.7,0,0,1,.25.95,2.32,2.32,0,0,1-.31,1.05,3.19,3.19,0,0,1-.86,1,5.24,5.24,0,0,0-.45-.42,4.14,4.14,0,0,0-.77-.55,5.44,5.44,0,0,0-1.1-.46A5,5,0,0,0,199.08,76.19Z"
     class="cls-3" />
  <path
     id="path72"
     d="M211.53,69.21a2,2,0,0,1-.64,1.52,2.15,2.15,0,0,1-1.56.63,2.12,2.12,0,0,1-1.54-.63,2,2,0,0,1-.64-1.52,2,2,0,0,1,.64-1.51,2.15,2.15,0,0,1,1.54-.62,2.18,2.18,0,0,1,1.56.62A2,2,0,0,1,211.53,69.21ZM207.4,75.1a1.45,1.45,0,0,1,.56-1.31,2.6,2.6,0,0,1,1.48-.37,4.83,4.83,0,0,1,1.18.14c.37.1.6.16.69.2v13.9H207.4Z"
     class="cls-3" />
  <path
     id="path74"
     d="M230.43,80.54a8.08,8.08,0,0,1-.54,3,7,7,0,0,1-1.56,2.41,7.59,7.59,0,0,1-2.45,1.62,8.73,8.73,0,0,1-6.36,0,7.59,7.59,0,0,1-2.45-1.62,6.87,6.87,0,0,1-1.56-2.41,8.44,8.44,0,0,1,0-5.94,6.92,6.92,0,0,1,1.56-2.4,7.59,7.59,0,0,1,2.45-1.62,8.73,8.73,0,0,1,6.36,0,7.59,7.59,0,0,1,2.45,1.62,7.06,7.06,0,0,1,1.56,2.4A8.08,8.08,0,0,1,230.43,80.54Zm-4,0a6.31,6.31,0,0,0-.24-1.77,4.19,4.19,0,0,0-.72-1.43,3.76,3.76,0,0,0-1.19-.94,3.92,3.92,0,0,0-3.24,0,3.65,3.65,0,0,0-1.19.94,4.19,4.19,0,0,0-.72,1.43,6.31,6.31,0,0,0-.24,1.77,6.21,6.21,0,0,0,.24,1.77,4.1,4.1,0,0,0,.72,1.43,3.55,3.55,0,0,0,1.19,1,3.63,3.63,0,0,0,4.43-1,4.1,4.1,0,0,0,.72-1.43A6.21,6.21,0,0,0,226.47,80.54Z"
     class="cls-3" />
  <path
     id="path76"
     d="M243.81,87.66v-8q0-3.47-3.21-3.46a6.6,6.6,0,0,0-1.82.19,5.65,5.65,0,0,0-.92.34V87.66H234V74.29c.07,0,.3-.13.67-.28a13.13,13.13,0,0,1,1.44-.46,18.08,18.08,0,0,1,2.06-.42,17.46,17.46,0,0,1,2.59-.18,9.94,9.94,0,0,1,2.86.39,6.48,6.48,0,0,1,2.22,1.14,5.11,5.11,0,0,1,1.42,1.86,6,6,0,0,1,.51,2.53v8.79Z"
     class="cls-3" />
  <path
     id="path78"
     d="M264.58,87.55a5,5,0,0,1-.62.11c-.35.06-.82.11-1.41.17s-1.28.11-2.08.15-1.67.07-2.62.07a13.26,13.26,0,0,1-3.39-.35,5.67,5.67,0,0,1-2.11-1,3.24,3.24,0,0,1-1.08-1.44,5.48,5.48,0,0,1-.29-1.8,5.54,5.54,0,0,1,.36-2.09,3.32,3.32,0,0,1,1.18-1.47,5.77,5.77,0,0,1,2.08-.85,14.25,14.25,0,0,1,3.08-.28c.84,0,1.54,0,2.1.07s.88.08,1,.1v-.45a2.4,2.4,0,0,0-.89-2,4.52,4.52,0,0,0-2.76-.7,5.94,5.94,0,0,0-1.48.16,6,6,0,0,0-1.11.36,6.11,6.11,0,0,0-.78.42c-.21.14-.38.25-.51.32a2,2,0,0,1-.7-.71,2,2,0,0,1-.31-1.11,1.51,1.51,0,0,1,.39-1,2.8,2.8,0,0,1,1.05-.7,6.17,6.17,0,0,1,1.51-.38A14,14,0,0,1,256.9,73a15.66,15.66,0,0,1,3.11.29,6.67,6.67,0,0,1,2.43,1,4.68,4.68,0,0,1,1.58,1.9,7,7,0,0,1,.56,3Zm-3.86-6.14a1.63,1.63,0,0,0-.33-.06l-.61,0-.8,0h-.88a6.8,6.8,0,0,0-1.67.17,2.52,2.52,0,0,0-1,.46,1.43,1.43,0,0,0-.47.7,3,3,0,0,0-.13.85,2.36,2.36,0,0,0,.12.75,1.35,1.35,0,0,0,.46.66,2.74,2.74,0,0,0,1,.47,6.15,6.15,0,0,0,1.64.18,14.32,14.32,0,0,0,1.76-.09c.46-.07.78-.12.94-.16Z"
     class="cls-3" />
  <path
     id="path80"
     d="M268.91,68.76a1.44,1.44,0,0,1,.55-1.31,2.73,2.73,0,0,1,1.48-.37,4.92,4.92,0,0,1,1.19.14c.36.1.59.16.68.2V87.66h-3.9Z"
     class="cls-3" />
  <path
     id="path82"
     d="M76.34,17.39A46.8,46.8,0,0,0,32.41,80.22,46.77,46.77,0,1,1,76.34,143a62.83,62.83,0,1,0,0-125.65Z"
     class="cls-2" />
  <path
     id="path84"
     d="M76.34,143a46.77,46.77,0,0,0,43.92-62.82A46.76,46.76,0,1,1,76.34,17.39a62.83,62.83,0,1,0,0,125.65Z"
     class="cls-4" />
  <circle
     id="circle86"
     transform="matrix(1, -0.08, 0.08, 1, -4.83, 4.44)"
     r="5.05"
     cy="65.47"
     cx="55.75"
     class="cls-2" />
  <path
     id="path88"
     d="M61.43,72.65H50.06c-2.52,0-4.17,3.43-3,6.34l6.42,16.56a2.42,2.42,0,0,0,4.61,0L64.47,79C65.6,76.08,64,72.65,61.43,72.65Z"
     class="cls-2" />
  <path
     id="path90"
     d="M71.19,96.94a1,1,0,0,0,1,1h2.41a1,1,0,0,0,1-1v-3.4H71.19Z"
     class="cls-4" />
  <path
     id="path92"
     d="M97.13,96.94a1,1,0,0,0,1,1h2.41a1,1,0,0,0,1-1v-3.4H97.13Z"
     class="cls-4" />
  <path
     id="path94"
     d="M104.49,81.15h-.09a2,2,0,0,1-1.84-1.25l-2.87-7a7.17,7.17,0,0,0-6.84-5H80.17a7.17,7.17,0,0,0-6.76,4.79.42.42,0,0,1,0,.1l-3.26,7.13a2,2,0,0,1-1.81,1.2,2,2,0,0,0-2,2l0,7.1a2,2,0,0,0,2,2l36.2,0a2,2,0,0,0,2-2l0-7.1A2,2,0,0,0,104.49,81.15ZM76.73,73.5a2.7,2.7,0,0,1,2.47-1.61H93.75a2.7,2.7,0,0,1,2.52,1.73l1.88,4.86-23.58,0ZM73.38,87.33a2.16,2.16,0,1,1,2.16-2.16A2.16,2.16,0,0,1,73.38,87.33Zm26,0a2.16,2.16,0,1,1,2.16-2.16A2.17,2.17,0,0,1,99.33,87.33Z"
     class="cls-4" />
</svg>
