<?xml version="1.0" encoding="utf-8"?>
<!-- Generator: Adobe Illustrator 24.0.0, SVG Export Plug-In . SVG Version: 6.00 Build 0)  -->
<svg version="1.1" id="Capa_1" xmlns="http://www.w3.org/2000/svg" xmlns:xlink="http://www.w3.org/1999/xlink" x="0px" y="0px"
	 viewBox="0 0 795.13 291.13" style="enable-background:new 0 0 795.13 291.13;" xml:space="preserve">
<style type="text/css">
	.st0{fill:#C8C8C8;}
	.st1{fill:#E9ECEF;}
	.st2{fill:#585856;}
</style>
<g>
	<g>
		<path class="st2" d="M159.09,44.76c0,0.59-0.03,1.1-0.08,1.52s-0.12,0.77-0.21,1.02c-0.09,0.25-0.2,0.43-0.33,0.53
			c-0.13,0.1-0.29,0.15-0.47,0.15c-0.26,0-0.69-0.18-1.28-0.55c-0.59-0.37-1.37-0.76-2.35-1.19s-2.14-0.82-3.49-1.19
			c-1.35-0.37-2.92-0.55-4.71-0.55c-1.91,0-3.64,0.33-5.18,0.99c-1.54,0.66-2.86,1.59-3.96,2.8c-1.1,1.21-1.94,2.66-2.53,4.36
			c-0.59,1.7-0.88,3.57-0.88,5.62c0,2.25,0.3,4.24,0.9,5.96c0.6,1.72,1.44,3.15,2.51,4.31c1.08,1.16,2.37,2.03,3.88,2.62
			c1.51,0.59,3.18,0.88,5.01,0.88c0.89,0,1.78-0.1,2.65-0.3s1.69-0.51,2.44-0.91V61.7h-7.46c-0.37,0-0.65-0.23-0.85-0.69
			c-0.2-0.46-0.3-1.23-0.3-2.33c0-0.57,0.03-1.05,0.08-1.43c0.05-0.39,0.13-0.7,0.23-0.93c0.1-0.23,0.22-0.41,0.37-0.52
			c0.14-0.11,0.3-0.17,0.49-0.17h13.31c0.33,0,0.61,0.06,0.87,0.17c0.25,0.11,0.48,0.28,0.67,0.5c0.19,0.22,0.34,0.49,0.44,0.81
			c0.1,0.31,0.15,0.67,0.15,1.08v15.69c0,0.61-0.11,1.14-0.32,1.6c-0.21,0.46-0.65,0.82-1.31,1.08c-0.66,0.26-1.48,0.54-2.45,0.82
			c-0.98,0.28-1.99,0.53-3.03,0.73c-1.05,0.2-2.1,0.36-3.17,0.46c-1.07,0.1-2.14,0.15-3.21,0.15c-3.15,0-5.97-0.45-8.46-1.36
			s-4.6-2.21-6.32-3.93c-1.73-1.72-3.05-3.81-3.96-6.28c-0.91-2.47-1.37-5.27-1.37-8.39c0-3.23,0.49-6.13,1.46-8.7
			s2.36-4.75,4.14-6.55c1.79-1.8,3.95-3.17,6.47-4.13c2.53-0.95,5.35-1.43,8.46-1.43c1.71,0,3.26,0.12,4.66,0.35
			s2.63,0.52,3.67,0.85c1.05,0.33,1.91,0.7,2.6,1.08s1.17,0.72,1.45,1c0.27,0.29,0.47,0.69,0.59,1.2
			C159.03,42.98,159.09,43.75,159.09,44.76z"/>
		<path class="st2" d="M190.6,74.92c0,0.59-0.03,1.08-0.08,1.48c-0.05,0.4-0.13,0.72-0.23,0.96c-0.1,0.24-0.23,0.42-0.38,0.53
			c-0.15,0.11-0.32,0.17-0.5,0.17h-19.8c-0.67,0-1.23-0.2-1.69-0.59c-0.46-0.4-0.69-1.04-0.69-1.94V41.17
			c0-0.89,0.23-1.54,0.69-1.93c0.46-0.4,1.02-0.59,1.69-0.59h19.68c0.18,0,0.35,0.05,0.49,0.15c0.14,0.1,0.26,0.28,0.37,0.53
			c0.1,0.25,0.18,0.58,0.23,0.98c0.05,0.4,0.08,0.9,0.08,1.51c0,0.57-0.03,1.05-0.08,1.45s-0.13,0.72-0.23,0.96
			c-0.1,0.24-0.22,0.42-0.37,0.53c-0.14,0.11-0.3,0.17-0.49,0.17h-14.08v9.63h11.91c0.18,0,0.35,0.06,0.5,0.17s0.28,0.28,0.38,0.52
			c0.1,0.23,0.18,0.55,0.23,0.94c0.05,0.4,0.08,0.88,0.08,1.45c0,0.59-0.03,1.08-0.08,1.46s-0.13,0.7-0.23,0.93
			c-0.1,0.23-0.23,0.4-0.38,0.5c-0.15,0.1-0.32,0.15-0.5,0.15h-11.91v11.12h14.2c0.18,0,0.35,0.06,0.5,0.17
			c0.15,0.11,0.28,0.29,0.38,0.53c0.1,0.24,0.18,0.56,0.23,0.96C190.57,73.84,190.6,74.34,190.6,74.92z"/>
		<path class="st2" d="M226.91,77.03c0,0.22-0.04,0.41-0.12,0.56c-0.08,0.15-0.27,0.28-0.58,0.38c-0.3,0.1-0.75,0.17-1.34,0.21
			c-0.59,0.04-1.39,0.06-2.41,0.06c-0.85,0-1.53-0.02-2.04-0.06c-0.51-0.04-0.91-0.12-1.2-0.23c-0.29-0.11-0.5-0.25-0.63-0.43
			c-0.12-0.17-0.22-0.38-0.3-0.63l-3.53-8.8c-0.43-1-0.84-1.88-1.25-2.65c-0.41-0.77-0.86-1.42-1.36-1.94
			c-0.5-0.52-1.07-0.91-1.72-1.17c-0.65-0.26-1.4-0.4-2.25-0.4h-2.5v15.02c0,0.2-0.07,0.39-0.2,0.55c-0.13,0.16-0.35,0.29-0.66,0.4
			s-0.71,0.18-1.22,0.24c-0.51,0.06-1.16,0.09-1.95,0.09c-0.77,0-1.42-0.03-1.93-0.09c-0.52-0.06-0.93-0.14-1.23-0.24
			s-0.52-0.23-0.64-0.4c-0.12-0.16-0.18-0.34-0.18-0.55v-35.8c0-0.89,0.23-1.54,0.69-1.93c0.46-0.4,1.02-0.59,1.69-0.59h10.21
			c1.04,0,1.89,0.02,2.56,0.06s1.28,0.09,1.83,0.15c1.58,0.22,3.01,0.61,4.28,1.16c1.27,0.55,2.35,1.26,3.23,2.15
			c0.88,0.88,1.56,1.93,2.03,3.14c0.47,1.21,0.7,2.6,0.7,4.16c0,1.32-0.17,2.52-0.5,3.61c-0.33,1.09-0.83,2.06-1.48,2.91
			c-0.65,0.85-1.45,1.59-2.41,2.22c-0.96,0.63-2.04,1.14-3.26,1.52c0.59,0.29,1.14,0.63,1.66,1.04c0.52,0.41,1.01,0.9,1.46,1.48
			s0.89,1.24,1.29,1.98s0.8,1.58,1.19,2.51l3.32,7.77c0.3,0.77,0.51,1.34,0.61,1.69C226.86,76.54,226.91,76.82,226.91,77.03z
			 M216.59,50.28c0-1.3-0.29-2.4-0.88-3.29c-0.59-0.89-1.55-1.52-2.89-1.89c-0.41-0.1-0.87-0.18-1.39-0.24
			c-0.52-0.06-1.23-0.09-2.15-0.09h-3.6v11.18h4.08c1.14,0,2.13-0.14,2.99-0.41c0.85-0.27,1.56-0.66,2.13-1.16
			c0.57-0.5,0.99-1.09,1.28-1.78C216.44,51.9,216.59,51.13,216.59,50.28z"/>
		<path class="st2" d="M256.16,74.92c0,0.59-0.03,1.08-0.08,1.48c-0.05,0.4-0.13,0.72-0.23,0.96c-0.1,0.24-0.23,0.42-0.38,0.53
			c-0.15,0.11-0.32,0.17-0.5,0.17h-19.8c-0.67,0-1.23-0.2-1.69-0.59c-0.46-0.4-0.69-1.04-0.69-1.94V41.17
			c0-0.89,0.23-1.54,0.69-1.93c0.46-0.4,1.02-0.59,1.69-0.59h19.68c0.18,0,0.35,0.05,0.49,0.15c0.14,0.1,0.26,0.28,0.37,0.53
			c0.1,0.25,0.18,0.58,0.23,0.98c0.05,0.4,0.08,0.9,0.08,1.51c0,0.57-0.03,1.05-0.08,1.45s-0.13,0.72-0.23,0.96
			c-0.1,0.24-0.22,0.42-0.37,0.53c-0.14,0.11-0.3,0.17-0.49,0.17h-14.08v9.63h11.91c0.18,0,0.35,0.06,0.5,0.17s0.28,0.28,0.38,0.52
			c0.1,0.23,0.18,0.55,0.23,0.94c0.05,0.4,0.08,0.88,0.08,1.45c0,0.59-0.03,1.08-0.08,1.46s-0.13,0.7-0.23,0.93
			c-0.1,0.23-0.23,0.4-0.38,0.5c-0.15,0.1-0.32,0.15-0.5,0.15h-11.91v11.12h14.2c0.18,0,0.35,0.06,0.5,0.17
			c0.15,0.11,0.28,0.29,0.38,0.53c0.1,0.24,0.18,0.56,0.23,0.96C256.14,73.84,256.16,74.34,256.16,74.92z"/>
		<path class="st2" d="M295.74,75.26c0,0.47-0.08,0.88-0.24,1.25c-0.16,0.37-0.38,0.67-0.66,0.91c-0.27,0.24-0.6,0.42-0.97,0.53
			c-0.38,0.11-0.76,0.17-1.14,0.17h-3.41c-0.71,0-1.33-0.07-1.84-0.21c-0.52-0.14-1-0.4-1.43-0.78c-0.44-0.38-0.86-0.88-1.26-1.52
			c-0.41-0.64-0.86-1.47-1.37-2.48l-9.81-18.43c-0.57-1.1-1.15-2.28-1.74-3.55s-1.12-2.5-1.58-3.7h-0.06
			c0.08,1.46,0.14,2.92,0.18,4.37c0.04,1.45,0.06,2.95,0.06,4.49v20.63c0,0.2-0.06,0.39-0.17,0.55c-0.11,0.16-0.3,0.3-0.58,0.41
			c-0.27,0.11-0.65,0.2-1.11,0.26c-0.47,0.06-1.07,0.09-1.8,0.09c-0.71,0-1.3-0.03-1.77-0.09c-0.47-0.06-0.83-0.15-1.1-0.26
			c-0.26-0.11-0.45-0.25-0.55-0.41c-0.1-0.16-0.15-0.34-0.15-0.55V41.5c0-0.95,0.28-1.67,0.84-2.15c0.56-0.48,1.24-0.72,2.06-0.72
			h4.3c0.77,0,1.42,0.07,1.95,0.2c0.53,0.13,1,0.35,1.42,0.66c0.42,0.3,0.81,0.73,1.17,1.26c0.37,0.54,0.74,1.2,1.13,2l7.68,14.41
			c0.45,0.87,0.89,1.73,1.33,2.58c0.44,0.84,0.86,1.69,1.26,2.53c0.41,0.84,0.8,1.67,1.19,2.48s0.76,1.63,1.13,2.44h0.03
			c-0.06-1.42-0.11-2.9-0.14-4.45s-0.05-3.02-0.05-4.42V39.83c0-0.2,0.06-0.39,0.18-0.55c0.12-0.16,0.32-0.3,0.61-0.43
			c0.28-0.12,0.66-0.21,1.13-0.26c0.47-0.05,1.07-0.08,1.8-0.08c0.69,0,1.27,0.03,1.74,0.08c0.47,0.05,0.83,0.14,1.08,0.26
			c0.25,0.12,0.43,0.26,0.53,0.43c0.1,0.16,0.15,0.35,0.15,0.55V75.26z"/>
		<path class="st2" d="M331.6,72.09c0,0.51-0.01,0.94-0.04,1.29c-0.03,0.36-0.08,0.66-0.14,0.91c-0.06,0.25-0.14,0.47-0.24,0.66
			c-0.1,0.18-0.26,0.39-0.49,0.62c-0.22,0.23-0.65,0.53-1.29,0.9c-0.64,0.37-1.42,0.72-2.35,1.05c-0.92,0.33-1.98,0.61-3.17,0.84
			c-1.19,0.22-2.47,0.33-3.85,0.33c-2.7,0-5.14-0.42-7.31-1.25c-2.17-0.83-4.02-2.08-5.54-3.73c-1.52-1.66-2.69-3.72-3.5-6.2
			c-0.81-2.48-1.22-5.36-1.22-8.65c0-3.35,0.45-6.33,1.34-8.93c0.89-2.6,2.14-4.78,3.75-6.55c1.6-1.77,3.53-3.11,5.77-4.02
			s4.72-1.37,7.42-1.37c1.1,0,2.15,0.09,3.17,0.27s1.96,0.42,2.82,0.72c0.86,0.29,1.64,0.63,2.33,1.02
			c0.69,0.39,1.17,0.72,1.45,0.99c0.27,0.27,0.46,0.5,0.56,0.69c0.1,0.18,0.18,0.42,0.24,0.7c0.06,0.28,0.11,0.62,0.14,1
			c0.03,0.39,0.05,0.86,0.05,1.43c0,0.61-0.02,1.13-0.06,1.55s-0.11,0.77-0.21,1.04c-0.1,0.26-0.22,0.46-0.37,0.58
			c-0.14,0.12-0.3,0.18-0.49,0.18c-0.3,0-0.69-0.18-1.16-0.53c-0.47-0.36-1.07-0.75-1.81-1.19s-1.63-0.83-2.65-1.19
			c-1.03-0.36-2.25-0.53-3.67-0.53c-1.56,0-2.96,0.32-4.19,0.96c-1.23,0.64-2.28,1.55-3.14,2.74s-1.52,2.63-1.96,4.31
			c-0.45,1.69-0.67,3.59-0.67,5.7c0,2.32,0.24,4.32,0.72,6.02c0.48,1.7,1.16,3.09,2.04,4.19c0.88,1.1,1.95,1.92,3.2,2.45
			s2.66,0.81,4.22,0.81c1.42,0,2.65-0.17,3.69-0.5s1.92-0.71,2.67-1.11c0.74-0.41,1.35-0.77,1.83-1.1c0.48-0.32,0.85-0.49,1.11-0.49
			c0.2,0,0.37,0.04,0.49,0.12s0.22,0.24,0.3,0.49c0.08,0.24,0.14,0.58,0.18,1.02C331.58,70.78,331.6,71.36,331.6,72.09z"/>
		<path class="st2" d="M345.4,76.97c0,0.2-0.07,0.39-0.2,0.55c-0.13,0.16-0.35,0.29-0.66,0.4s-0.71,0.18-1.22,0.24
			c-0.51,0.06-1.16,0.09-1.95,0.09c-0.77,0-1.42-0.03-1.93-0.09c-0.52-0.06-0.93-0.14-1.23-0.24s-0.52-0.23-0.66-0.4
			c-0.13-0.16-0.2-0.34-0.2-0.55V39.73c0-0.2,0.07-0.38,0.2-0.55c0.13-0.16,0.36-0.29,0.67-0.4c0.31-0.1,0.73-0.18,1.23-0.24
			c0.51-0.06,1.15-0.09,1.92-0.09c0.79,0,1.44,0.03,1.95,0.09c0.51,0.06,0.91,0.14,1.22,0.24c0.3,0.1,0.52,0.23,0.66,0.4
			c0.13,0.16,0.2,0.35,0.2,0.55V76.97z"/>
		<path class="st2" d="M386.29,75.08c0.24,0.73,0.4,1.31,0.46,1.74c0.06,0.43-0.02,0.75-0.24,0.96c-0.22,0.21-0.62,0.34-1.19,0.4
			c-0.57,0.05-1.35,0.08-2.35,0.08c-1.04,0-1.84-0.01-2.42-0.05c-0.58-0.03-1.02-0.09-1.33-0.18c-0.3-0.09-0.52-0.22-0.64-0.38
			c-0.12-0.16-0.22-0.38-0.3-0.64l-2.65-7.92h-14.81l-2.5,7.71c-0.08,0.28-0.19,0.52-0.32,0.72c-0.13,0.19-0.35,0.35-0.64,0.46
			c-0.29,0.11-0.71,0.19-1.25,0.23c-0.54,0.04-1.24,0.06-2.12,0.06c-0.93,0-1.67-0.03-2.19-0.09c-0.53-0.06-0.89-0.21-1.1-0.44
			c-0.2-0.23-0.27-0.56-0.21-0.99c0.06-0.43,0.21-1,0.46-1.71l12.16-34.98c0.12-0.34,0.26-0.62,0.43-0.84
			c0.16-0.21,0.42-0.38,0.78-0.49c0.36-0.11,0.85-0.18,1.48-0.21s1.46-0.05,2.5-0.05c1.2,0,2.15,0.02,2.86,0.05s1.26,0.1,1.66,0.21
			c0.4,0.11,0.68,0.28,0.85,0.5s0.32,0.53,0.44,0.91L386.29,75.08z M368.19,46.16h-0.03l-5.58,16.76h11.18L368.19,46.16z"/>
		<path class="st2" d="M435.16,77.03c0,0.22-0.04,0.41-0.12,0.56c-0.08,0.15-0.27,0.28-0.58,0.38c-0.3,0.1-0.75,0.17-1.34,0.21
			c-0.59,0.04-1.39,0.06-2.41,0.06c-0.85,0-1.53-0.02-2.04-0.06c-0.51-0.04-0.91-0.12-1.2-0.23c-0.29-0.11-0.5-0.25-0.63-0.43
			c-0.12-0.17-0.22-0.38-0.3-0.63l-3.53-8.8c-0.43-1-0.84-1.88-1.25-2.65c-0.41-0.77-0.86-1.42-1.36-1.94
			c-0.5-0.52-1.07-0.91-1.72-1.17c-0.65-0.26-1.4-0.4-2.25-0.4h-2.5v15.02c0,0.2-0.07,0.39-0.2,0.55c-0.13,0.16-0.35,0.29-0.66,0.4
			s-0.71,0.18-1.22,0.24c-0.51,0.06-1.16,0.09-1.95,0.09c-0.77,0-1.42-0.03-1.93-0.09c-0.52-0.06-0.93-0.14-1.23-0.24
			s-0.52-0.23-0.64-0.4c-0.12-0.16-0.18-0.34-0.18-0.55v-35.8c0-0.89,0.23-1.54,0.69-1.93c0.46-0.4,1.02-0.59,1.69-0.59h10.21
			c1.04,0,1.89,0.02,2.56,0.06s1.28,0.09,1.83,0.15c1.58,0.22,3.01,0.61,4.28,1.16c1.27,0.55,2.35,1.26,3.23,2.15
			c0.88,0.88,1.56,1.93,2.03,3.14c0.47,1.21,0.7,2.6,0.7,4.16c0,1.32-0.17,2.52-0.5,3.61c-0.33,1.09-0.83,2.06-1.48,2.91
			c-0.65,0.85-1.45,1.59-2.41,2.22c-0.96,0.63-2.04,1.14-3.26,1.52c0.59,0.29,1.14,0.63,1.66,1.04c0.52,0.41,1.01,0.9,1.46,1.48
			s0.89,1.24,1.29,1.98s0.8,1.58,1.19,2.51l3.32,7.77c0.3,0.77,0.51,1.34,0.61,1.69C435.11,76.54,435.16,76.82,435.16,77.03z
			 M424.83,50.28c0-1.3-0.29-2.4-0.88-3.29c-0.59-0.89-1.55-1.52-2.89-1.89c-0.41-0.1-0.87-0.18-1.39-0.24
			c-0.52-0.06-1.23-0.09-2.15-0.09h-3.6v11.18h4.08c1.14,0,2.13-0.14,2.99-0.41c0.85-0.27,1.56-0.66,2.13-1.16
			c0.57-0.5,0.99-1.09,1.28-1.78C424.69,51.9,424.83,51.13,424.83,50.28z"/>
		<path class="st2" d="M464.41,74.92c0,0.59-0.03,1.08-0.08,1.48c-0.05,0.4-0.13,0.72-0.23,0.96c-0.1,0.24-0.23,0.42-0.38,0.53
			c-0.15,0.11-0.32,0.17-0.5,0.17h-19.8c-0.67,0-1.23-0.2-1.69-0.59c-0.46-0.4-0.69-1.04-0.69-1.94V41.17
			c0-0.89,0.23-1.54,0.69-1.93c0.46-0.4,1.02-0.59,1.69-0.59h19.68c0.18,0,0.35,0.05,0.49,0.15c0.14,0.1,0.26,0.28,0.37,0.53
			c0.1,0.25,0.18,0.58,0.23,0.98c0.05,0.4,0.08,0.9,0.08,1.51c0,0.57-0.03,1.05-0.08,1.45s-0.13,0.72-0.23,0.96
			c-0.1,0.24-0.22,0.42-0.37,0.53c-0.14,0.11-0.3,0.17-0.49,0.17h-14.08v9.63h11.91c0.18,0,0.35,0.06,0.5,0.17s0.28,0.28,0.38,0.52
			c0.1,0.23,0.18,0.55,0.23,0.94c0.05,0.4,0.08,0.88,0.08,1.45c0,0.59-0.03,1.08-0.08,1.46s-0.13,0.7-0.23,0.93
			c-0.1,0.23-0.23,0.4-0.38,0.5c-0.15,0.1-0.32,0.15-0.5,0.15h-11.91v11.12h14.2c0.18,0,0.35,0.06,0.5,0.17
			c0.15,0.11,0.28,0.29,0.38,0.53c0.1,0.24,0.18,0.56,0.23,0.96C464.39,73.84,464.41,74.34,464.41,74.92z"/>
		<path class="st2" d="M502.19,44.76c0,0.59-0.03,1.1-0.08,1.52s-0.12,0.77-0.21,1.02c-0.09,0.25-0.2,0.43-0.33,0.53
			c-0.13,0.1-0.29,0.15-0.47,0.15c-0.26,0-0.69-0.18-1.28-0.55c-0.59-0.37-1.37-0.76-2.35-1.19s-2.14-0.82-3.49-1.19
			c-1.35-0.37-2.92-0.55-4.71-0.55c-1.91,0-3.64,0.33-5.18,0.99c-1.54,0.66-2.86,1.59-3.96,2.8c-1.1,1.21-1.94,2.66-2.53,4.36
			c-0.59,1.7-0.88,3.57-0.88,5.62c0,2.25,0.3,4.24,0.9,5.96c0.6,1.72,1.44,3.15,2.51,4.31c1.08,1.16,2.37,2.03,3.88,2.62
			c1.51,0.59,3.18,0.88,5.01,0.88c0.89,0,1.78-0.1,2.65-0.3s1.69-0.51,2.44-0.91V61.7h-7.46c-0.37,0-0.65-0.23-0.85-0.69
			c-0.2-0.46-0.3-1.23-0.3-2.33c0-0.57,0.03-1.05,0.08-1.43c0.05-0.39,0.13-0.7,0.23-0.93c0.1-0.23,0.22-0.41,0.37-0.52
			c0.14-0.11,0.3-0.17,0.49-0.17h13.31c0.33,0,0.61,0.06,0.87,0.17c0.25,0.11,0.48,0.28,0.67,0.5c0.19,0.22,0.34,0.49,0.44,0.81
			c0.1,0.31,0.15,0.67,0.15,1.08v15.69c0,0.61-0.11,1.14-0.32,1.6c-0.21,0.46-0.65,0.82-1.31,1.08c-0.66,0.26-1.48,0.54-2.45,0.82
			c-0.98,0.28-1.99,0.53-3.03,0.73c-1.05,0.2-2.1,0.36-3.17,0.46c-1.07,0.1-2.14,0.15-3.21,0.15c-3.15,0-5.97-0.45-8.46-1.36
			s-4.6-2.21-6.32-3.93c-1.73-1.72-3.05-3.81-3.96-6.28c-0.91-2.47-1.37-5.27-1.37-8.39c0-3.23,0.49-6.13,1.46-8.7
			s2.36-4.75,4.14-6.55c1.79-1.8,3.95-3.17,6.47-4.13c2.53-0.95,5.35-1.43,8.46-1.43c1.71,0,3.26,0.12,4.66,0.35
			s2.63,0.52,3.67,0.85c1.05,0.33,1.91,0.7,2.6,1.08s1.17,0.72,1.45,1c0.27,0.29,0.47,0.69,0.59,1.2
			C502.13,42.98,502.19,43.75,502.19,44.76z"/>
		<path class="st2" d="M518.37,76.97c0,0.2-0.07,0.39-0.2,0.55c-0.13,0.16-0.35,0.29-0.66,0.4s-0.71,0.18-1.22,0.24
			c-0.51,0.06-1.16,0.09-1.95,0.09c-0.77,0-1.42-0.03-1.93-0.09c-0.52-0.06-0.93-0.14-1.23-0.24s-0.52-0.23-0.66-0.4
			c-0.13-0.16-0.2-0.34-0.2-0.55V39.73c0-0.2,0.07-0.38,0.2-0.55c0.13-0.16,0.36-0.29,0.67-0.4c0.31-0.1,0.73-0.18,1.23-0.24
			c0.51-0.06,1.15-0.09,1.92-0.09c0.79,0,1.44,0.03,1.95,0.09c0.51,0.06,0.91,0.14,1.22,0.24c0.3,0.1,0.52,0.23,0.66,0.4
			c0.13,0.16,0.2,0.35,0.2,0.55V76.97z"/>
		<path class="st2" d="M562.43,57.89c0,3.27-0.41,6.2-1.22,8.78c-0.81,2.58-2.02,4.77-3.63,6.57s-3.59,3.17-5.96,4.11
			s-5.1,1.42-8.21,1.42c-3.07,0-5.74-0.4-8.03-1.2c-2.29-0.8-4.19-2.03-5.71-3.67c-1.52-1.65-2.67-3.74-3.43-6.28
			s-1.14-5.55-1.14-9.02c0-3.19,0.41-6.06,1.22-8.61s2.02-4.72,3.63-6.5c1.6-1.79,3.59-3.16,5.96-4.11
			c2.37-0.95,5.11-1.43,8.24-1.43c2.99,0,5.62,0.4,7.91,1.19c2.29,0.79,4.19,2.01,5.73,3.66c1.53,1.65,2.69,3.72,3.47,6.23
			C562.04,51.52,562.43,54.48,562.43,57.89z M554.02,58.32c0-2.07-0.16-3.96-0.49-5.65c-0.33-1.7-0.88-3.15-1.66-4.36
			c-0.78-1.21-1.82-2.14-3.12-2.8c-1.3-0.66-2.93-0.99-4.88-0.99c-1.97,0-3.62,0.37-4.94,1.11c-1.32,0.74-2.39,1.73-3.2,2.97
			c-0.81,1.24-1.39,2.69-1.72,4.34c-0.33,1.66-0.5,3.41-0.5,5.26c0,2.15,0.16,4.09,0.49,5.8c0.33,1.72,0.87,3.18,1.65,4.4
			c0.77,1.22,1.81,2.15,3.11,2.79c1.3,0.64,2.94,0.96,4.91,0.96s3.62-0.37,4.94-1.1c1.32-0.73,2.39-1.73,3.2-2.99
			s1.39-2.73,1.72-4.4S554.02,60.21,554.02,58.32z"/>
		<path class="st2" d="M601.67,75.26c0,0.47-0.08,0.88-0.24,1.25c-0.16,0.37-0.38,0.67-0.66,0.91c-0.27,0.24-0.6,0.42-0.97,0.53
			c-0.38,0.11-0.76,0.17-1.14,0.17h-3.41c-0.71,0-1.33-0.07-1.84-0.21c-0.52-0.14-1-0.4-1.43-0.78c-0.44-0.38-0.86-0.88-1.26-1.52
			c-0.41-0.64-0.86-1.47-1.37-2.48l-9.81-18.43c-0.57-1.1-1.15-2.28-1.74-3.55s-1.12-2.5-1.58-3.7h-0.06
			c0.08,1.46,0.14,2.92,0.18,4.37c0.04,1.45,0.06,2.95,0.06,4.49v20.63c0,0.2-0.06,0.39-0.17,0.55c-0.11,0.16-0.3,0.3-0.58,0.41
			c-0.27,0.11-0.65,0.2-1.11,0.26c-0.47,0.06-1.07,0.09-1.8,0.09c-0.71,0-1.3-0.03-1.77-0.09c-0.47-0.06-0.83-0.15-1.1-0.26
			c-0.26-0.11-0.45-0.25-0.55-0.41c-0.1-0.16-0.15-0.34-0.15-0.55V41.5c0-0.95,0.28-1.67,0.84-2.15c0.56-0.48,1.24-0.72,2.06-0.72
			h4.3c0.77,0,1.42,0.07,1.95,0.2c0.53,0.13,1,0.35,1.42,0.66c0.42,0.3,0.81,0.73,1.17,1.26c0.37,0.54,0.74,1.2,1.13,2l7.68,14.41
			c0.45,0.87,0.89,1.73,1.33,2.58c0.44,0.84,0.86,1.69,1.26,2.53c0.41,0.84,0.8,1.67,1.19,2.48s0.76,1.63,1.13,2.44h0.03
			c-0.06-1.42-0.11-2.9-0.14-4.45s-0.05-3.02-0.05-4.42V39.83c0-0.2,0.06-0.39,0.18-0.55c0.12-0.16,0.32-0.3,0.61-0.43
			c0.28-0.12,0.66-0.21,1.13-0.26c0.47-0.05,1.07-0.08,1.8-0.08c0.69,0,1.27,0.03,1.74,0.08c0.47,0.05,0.83,0.14,1.08,0.26
			c0.25,0.12,0.43,0.26,0.53,0.43c0.1,0.16,0.15,0.35,0.15,0.55V75.26z"/>
		<path class="st2" d="M642.56,75.08c0.24,0.73,0.4,1.31,0.46,1.74c0.06,0.43-0.02,0.75-0.24,0.96c-0.22,0.21-0.62,0.34-1.19,0.4
			c-0.57,0.05-1.35,0.08-2.35,0.08c-1.04,0-1.84-0.01-2.42-0.05c-0.58-0.03-1.02-0.09-1.33-0.18c-0.3-0.09-0.52-0.22-0.64-0.38
			c-0.12-0.16-0.22-0.38-0.3-0.64l-2.65-7.92h-14.81l-2.5,7.71c-0.08,0.28-0.19,0.52-0.32,0.72c-0.13,0.19-0.35,0.35-0.64,0.46
			c-0.29,0.11-0.71,0.19-1.25,0.23c-0.54,0.04-1.24,0.06-2.12,0.06c-0.93,0-1.67-0.03-2.19-0.09c-0.53-0.06-0.89-0.21-1.1-0.44
			c-0.2-0.23-0.27-0.56-0.21-0.99c0.06-0.43,0.21-1,0.46-1.71l12.16-34.98c0.12-0.34,0.26-0.62,0.43-0.84
			c0.16-0.21,0.42-0.38,0.78-0.49c0.36-0.11,0.85-0.18,1.48-0.21s1.46-0.05,2.5-0.05c1.2,0,2.15,0.02,2.86,0.05s1.26,0.1,1.66,0.21
			c0.4,0.11,0.68,0.28,0.85,0.5s0.32,0.53,0.44,0.91L642.56,75.08z M624.46,46.16h-0.03l-5.58,16.76h11.18L624.46,46.16z"/>
		<path class="st2" d="M669.74,74.71c0,0.61-0.03,1.12-0.08,1.54c-0.05,0.42-0.13,0.76-0.23,1.04c-0.1,0.27-0.23,0.47-0.38,0.59
			s-0.33,0.18-0.53,0.18h-18.07c-0.67,0-1.23-0.2-1.69-0.59c-0.46-0.4-0.69-1.04-0.69-1.94v-35.8c0-0.2,0.07-0.38,0.2-0.55
			c0.13-0.16,0.35-0.29,0.66-0.4c0.3-0.1,0.72-0.18,1.23-0.24c0.52-0.06,1.16-0.09,1.93-0.09c0.79,0,1.44,0.03,1.95,0.09
			c0.51,0.06,0.91,0.14,1.22,0.24c0.3,0.1,0.52,0.23,0.66,0.4c0.13,0.16,0.2,0.35,0.2,0.55v31.72h12.4c0.2,0,0.38,0.06,0.53,0.17
			c0.15,0.11,0.28,0.29,0.38,0.55c0.1,0.25,0.18,0.59,0.23,1.01C669.71,73.59,669.74,74.1,669.74,74.71z"/>
		<path class="st2" d="M181.23,113.77c0,3.62-0.47,6.71-1.42,9.28c-0.94,2.57-2.3,4.67-4.07,6.29c-1.77,1.63-3.92,2.82-6.44,3.58
			c-2.53,0.76-5.54,1.14-9.03,1.14h-9.41c-0.67,0-1.23-0.2-1.69-0.59c-0.46-0.4-0.69-1.04-0.69-1.94V97.17
			c0-0.89,0.23-1.54,0.69-1.93c0.46-0.4,1.02-0.59,1.69-0.59h10.12c3.51,0,6.49,0.41,8.94,1.23c2.45,0.82,4.51,2.04,6.18,3.66
			c1.68,1.61,2.95,3.61,3.82,5.99C180.79,107.89,181.23,110.64,181.23,113.77z M172.94,114.05c0-1.87-0.22-3.61-0.66-5.21
			s-1.14-3-2.1-4.17c-0.97-1.18-2.21-2.1-3.72-2.76c-1.51-0.66-3.5-0.99-5.96-0.99h-4.05v26.81h4.17c2.19,0,4.04-0.28,5.54-0.85
			c1.5-0.57,2.76-1.43,3.76-2.57c1-1.15,1.76-2.58,2.25-4.28C172.69,118.31,172.94,116.32,172.94,114.05z"/>
		<path class="st2" d="M211.18,130.92c0,0.59-0.03,1.08-0.08,1.48c-0.05,0.4-0.13,0.72-0.23,0.96c-0.1,0.24-0.23,0.42-0.38,0.53
			c-0.15,0.11-0.32,0.17-0.5,0.17h-19.8c-0.67,0-1.23-0.2-1.69-0.59c-0.46-0.4-0.69-1.04-0.69-1.94V97.17
			c0-0.89,0.23-1.54,0.69-1.93c0.46-0.4,1.02-0.59,1.69-0.59h19.68c0.18,0,0.35,0.05,0.49,0.15c0.14,0.1,0.26,0.28,0.37,0.53
			c0.1,0.25,0.18,0.58,0.23,0.98c0.05,0.4,0.08,0.9,0.08,1.51c0,0.57-0.03,1.05-0.08,1.45s-0.13,0.72-0.23,0.96
			c-0.1,0.24-0.22,0.42-0.37,0.53c-0.14,0.11-0.3,0.17-0.49,0.17h-14.08v9.63h11.91c0.18,0,0.35,0.06,0.5,0.17s0.28,0.28,0.38,0.52
			c0.1,0.23,0.18,0.55,0.23,0.94c0.05,0.4,0.08,0.88,0.08,1.45c0,0.59-0.03,1.08-0.08,1.46s-0.13,0.7-0.23,0.93
			c-0.1,0.23-0.23,0.4-0.38,0.5c-0.15,0.1-0.32,0.15-0.5,0.15h-11.91v11.12h14.2c0.18,0,0.35,0.06,0.5,0.17
			c0.15,0.11,0.28,0.29,0.38,0.53c0.1,0.24,0.18,0.56,0.23,0.96C211.15,129.84,211.18,130.34,211.18,130.92z"/>
		<path class="st2" d="M258.59,97.93c0,0.59-0.03,1.09-0.08,1.51c-0.05,0.42-0.13,0.75-0.23,1.01c-0.1,0.25-0.23,0.44-0.38,0.56
			s-0.32,0.18-0.5,0.18h-9.87v31.78c0,0.2-0.07,0.39-0.2,0.55c-0.13,0.16-0.35,0.29-0.65,0.4s-0.72,0.18-1.23,0.24
			c-0.52,0.06-1.16,0.09-1.93,0.09c-0.77,0-1.42-0.03-1.93-0.09c-0.52-0.06-0.93-0.14-1.23-0.24s-0.52-0.23-0.66-0.4
			c-0.13-0.16-0.2-0.34-0.2-0.55v-31.78h-9.87c-0.2,0-0.38-0.06-0.52-0.18c-0.14-0.12-0.26-0.31-0.37-0.56s-0.18-0.59-0.23-1.01
			c-0.05-0.42-0.08-0.92-0.08-1.51c0-0.61,0.03-1.13,0.08-1.55c0.05-0.43,0.13-0.77,0.23-1.02c0.1-0.25,0.22-0.44,0.37-0.55
			c0.14-0.11,0.31-0.17,0.52-0.17h27.79c0.18,0,0.35,0.06,0.5,0.17s0.28,0.29,0.38,0.55c0.1,0.25,0.18,0.59,0.23,1.02
			C258.56,96.8,258.59,97.32,258.59,97.93z"/>
		<path class="st2" d="M292.5,133.03c0,0.22-0.04,0.41-0.12,0.56c-0.08,0.15-0.27,0.28-0.58,0.38c-0.3,0.1-0.75,0.17-1.34,0.21
			c-0.59,0.04-1.39,0.06-2.41,0.06c-0.85,0-1.53-0.02-2.04-0.06c-0.51-0.04-0.91-0.12-1.2-0.23c-0.29-0.11-0.5-0.25-0.63-0.43
			c-0.12-0.17-0.22-0.38-0.3-0.63l-3.53-8.8c-0.43-1-0.84-1.88-1.25-2.65c-0.41-0.77-0.86-1.42-1.36-1.94
			c-0.5-0.52-1.07-0.91-1.72-1.17c-0.65-0.26-1.4-0.4-2.25-0.4h-2.5v15.02c0,0.2-0.07,0.39-0.2,0.55c-0.13,0.16-0.35,0.29-0.66,0.4
			s-0.71,0.18-1.22,0.24c-0.51,0.06-1.16,0.09-1.95,0.09c-0.77,0-1.42-0.03-1.93-0.09c-0.52-0.06-0.93-0.14-1.23-0.24
			s-0.52-0.23-0.64-0.4c-0.12-0.16-0.18-0.34-0.18-0.55v-35.8c0-0.89,0.23-1.54,0.69-1.93c0.46-0.4,1.02-0.59,1.69-0.59h10.21
			c1.04,0,1.89,0.02,2.56,0.06s1.28,0.09,1.83,0.15c1.58,0.22,3.01,0.61,4.28,1.16c1.27,0.55,2.35,1.26,3.23,2.15
			c0.88,0.88,1.56,1.93,2.03,3.14c0.47,1.21,0.7,2.6,0.7,4.16c0,1.32-0.17,2.52-0.5,3.61c-0.33,1.09-0.83,2.06-1.48,2.91
			c-0.65,0.85-1.45,1.59-2.41,2.22c-0.96,0.63-2.04,1.14-3.26,1.52c0.59,0.29,1.14,0.63,1.66,1.04c0.52,0.41,1.01,0.9,1.46,1.48
			s0.89,1.24,1.29,1.98s0.8,1.58,1.19,2.51l3.32,7.77c0.3,0.77,0.51,1.34,0.61,1.69C292.45,132.54,292.5,132.82,292.5,133.03z
			 M282.17,106.28c0-1.3-0.29-2.4-0.88-3.29c-0.59-0.89-1.55-1.52-2.89-1.89c-0.41-0.1-0.87-0.18-1.39-0.24
			c-0.52-0.06-1.23-0.09-2.15-0.09h-3.6v11.18h4.08c1.14,0,2.13-0.14,2.99-0.41c0.85-0.27,1.56-0.66,2.13-1.16
			c0.57-0.5,0.99-1.09,1.28-1.78C282.03,107.9,282.17,107.13,282.17,106.28z"/>
		<path class="st2" d="M330.67,131.08c0.24,0.73,0.4,1.31,0.46,1.74c0.06,0.43-0.02,0.75-0.24,0.96c-0.22,0.21-0.62,0.34-1.19,0.4
			c-0.57,0.05-1.35,0.08-2.35,0.08c-1.04,0-1.84-0.01-2.42-0.05c-0.58-0.03-1.02-0.09-1.33-0.18c-0.3-0.09-0.52-0.22-0.64-0.38
			c-0.12-0.16-0.22-0.38-0.3-0.64l-2.65-7.92H305.2l-2.5,7.71c-0.08,0.28-0.19,0.52-0.32,0.72c-0.13,0.19-0.35,0.35-0.64,0.46
			c-0.29,0.11-0.71,0.19-1.25,0.23c-0.54,0.04-1.24,0.06-2.12,0.06c-0.93,0-1.67-0.03-2.19-0.09c-0.53-0.06-0.89-0.21-1.1-0.44
			c-0.2-0.23-0.27-0.56-0.21-0.99c0.06-0.43,0.21-1,0.46-1.71l12.16-34.98c0.12-0.34,0.26-0.62,0.43-0.84
			c0.16-0.21,0.42-0.38,0.78-0.49c0.36-0.11,0.85-0.18,1.48-0.21s1.46-0.05,2.5-0.05c1.2,0,2.15,0.02,2.86,0.05s1.26,0.1,1.66,0.21
			c0.4,0.11,0.68,0.28,0.85,0.5s0.32,0.53,0.44,0.91L330.67,131.08z M312.57,102.16h-0.03l-5.58,16.76h11.18L312.57,102.16z"/>
		<path class="st2" d="M368.7,131.26c0,0.47-0.08,0.88-0.24,1.25c-0.16,0.37-0.38,0.67-0.66,0.91c-0.27,0.24-0.6,0.42-0.97,0.53
			c-0.38,0.11-0.76,0.17-1.14,0.17h-3.41c-0.71,0-1.33-0.07-1.84-0.21c-0.52-0.14-1-0.4-1.43-0.78c-0.44-0.38-0.86-0.88-1.26-1.52
			c-0.41-0.64-0.86-1.47-1.37-2.48l-9.81-18.43c-0.57-1.1-1.15-2.28-1.74-3.55s-1.12-2.5-1.58-3.7h-0.06
			c0.08,1.46,0.14,2.92,0.18,4.37c0.04,1.45,0.06,2.95,0.06,4.49v20.63c0,0.2-0.06,0.39-0.17,0.55c-0.11,0.16-0.3,0.3-0.58,0.41
			c-0.27,0.11-0.65,0.2-1.11,0.26c-0.47,0.06-1.07,0.09-1.8,0.09c-0.71,0-1.3-0.03-1.77-0.09c-0.47-0.06-0.83-0.15-1.1-0.26
			c-0.26-0.11-0.45-0.25-0.55-0.41c-0.1-0.16-0.15-0.34-0.15-0.55V97.5c0-0.95,0.28-1.67,0.84-2.15c0.56-0.48,1.24-0.72,2.06-0.72
			h4.3c0.77,0,1.42,0.07,1.95,0.2c0.53,0.13,1,0.35,1.42,0.66c0.42,0.3,0.81,0.73,1.17,1.26c0.37,0.54,0.74,1.2,1.13,2l7.68,14.41
			c0.45,0.87,0.89,1.73,1.33,2.58c0.44,0.84,0.86,1.69,1.26,2.53c0.41,0.84,0.8,1.67,1.19,2.48s0.76,1.63,1.13,2.44h0.03
			c-0.06-1.42-0.11-2.9-0.14-4.45s-0.05-3.02-0.05-4.42V95.83c0-0.2,0.06-0.39,0.18-0.55c0.12-0.16,0.32-0.3,0.61-0.43
			c0.28-0.12,0.66-0.21,1.13-0.26c0.47-0.05,1.07-0.08,1.8-0.08c0.69,0,1.27,0.03,1.74,0.08c0.47,0.05,0.83,0.14,1.08,0.26
			c0.25,0.12,0.43,0.26,0.53,0.43c0.1,0.16,0.15,0.35,0.15,0.55V131.26z"/>
		<path class="st2" d="M400.66,122.24c0,2.07-0.39,3.89-1.16,5.45c-0.77,1.56-1.82,2.87-3.14,3.92c-1.32,1.05-2.86,1.83-4.63,2.36
			c-1.77,0.53-3.66,0.79-5.67,0.79c-1.36,0-2.63-0.11-3.79-0.34s-2.2-0.49-3.09-0.81c-0.89-0.32-1.64-0.64-2.24-0.99
			c-0.6-0.35-1.03-0.65-1.29-0.91s-0.45-0.64-0.56-1.14s-0.17-1.21-0.17-2.15c0-0.63,0.02-1.16,0.06-1.58
			c0.04-0.43,0.11-0.77,0.2-1.04c0.09-0.26,0.21-0.45,0.37-0.56s0.33-0.17,0.53-0.17c0.28,0,0.69,0.17,1.2,0.5
			c0.52,0.33,1.18,0.71,2,1.11s1.78,0.78,2.91,1.11c1.13,0.33,2.43,0.5,3.92,0.5c0.97,0,1.85-0.12,2.62-0.35
			c0.77-0.23,1.43-0.56,1.96-0.99c0.54-0.43,0.95-0.96,1.23-1.58c0.28-0.63,0.43-1.33,0.43-2.1c0-0.89-0.24-1.66-0.73-2.3
			s-1.12-1.21-1.9-1.71c-0.78-0.5-1.67-0.96-2.67-1.4c-1-0.44-2.02-0.9-3.08-1.39c-1.06-0.49-2.08-1.04-3.08-1.66
			c-1-0.62-1.88-1.36-2.67-2.22c-0.78-0.86-1.42-1.88-1.9-3.06s-0.73-2.59-0.73-4.24c0-1.89,0.35-3.55,1.05-4.98
			c0.7-1.43,1.65-2.62,2.83-3.56c1.19-0.95,2.59-1.65,4.2-2.12c1.62-0.47,3.33-0.7,5.13-0.7c0.93,0,1.87,0.07,2.8,0.21
			c0.93,0.14,1.81,0.33,2.62,0.58c0.81,0.24,1.53,0.52,2.16,0.82c0.63,0.3,1.05,0.56,1.25,0.76c0.2,0.2,0.34,0.38,0.41,0.52
			c0.07,0.14,0.13,0.33,0.18,0.56c0.05,0.23,0.09,0.53,0.11,0.88c0.02,0.36,0.03,0.8,0.03,1.33c0,0.59-0.02,1.09-0.05,1.49
			c-0.03,0.41-0.08,0.74-0.15,1.01c-0.07,0.26-0.17,0.46-0.3,0.58s-0.31,0.18-0.53,0.18s-0.58-0.14-1.07-0.43
			c-0.49-0.28-1.09-0.59-1.8-0.93c-0.71-0.34-1.53-0.64-2.47-0.91c-0.93-0.27-1.96-0.41-3.08-0.41c-0.87,0-1.63,0.11-2.29,0.32
			s-1.19,0.51-1.63,0.88s-0.76,0.83-0.97,1.36c-0.21,0.53-0.32,1.09-0.32,1.68c0,0.87,0.24,1.63,0.72,2.27
			c0.48,0.64,1.12,1.21,1.92,1.71c0.8,0.5,1.71,0.96,2.73,1.4s2.05,0.9,3.11,1.39c1.06,0.49,2.09,1.04,3.11,1.66
			s1.92,1.36,2.71,2.22c0.79,0.86,1.43,1.88,1.92,3.05C400.41,119.28,400.66,120.66,400.66,122.24z"/>
		<path class="st2" d="M433.78,106.61c0,2.21-0.35,4.17-1.04,5.88c-0.69,1.71-1.7,3.14-3.02,4.31s-2.94,2.06-4.86,2.67
			c-1.92,0.61-4.18,0.91-6.78,0.91h-3.29v12.58c0,0.2-0.07,0.39-0.2,0.55c-0.13,0.16-0.35,0.29-0.66,0.4s-0.71,0.18-1.22,0.24
			c-0.51,0.06-1.16,0.09-1.95,0.09c-0.77,0-1.42-0.03-1.93-0.09c-0.52-0.06-0.93-0.14-1.23-0.24s-0.52-0.23-0.64-0.4
			c-0.12-0.16-0.18-0.34-0.18-0.55V97.5c0-0.95,0.25-1.67,0.75-2.15c0.5-0.48,1.15-0.72,1.97-0.72h9.29c0.93,0,1.82,0.04,2.67,0.11
			c0.84,0.07,1.85,0.22,3.03,0.46c1.18,0.23,2.37,0.67,3.58,1.29c1.21,0.63,2.24,1.43,3.09,2.39c0.85,0.96,1.5,2.09,1.95,3.38
			C433.55,103.56,433.78,105.01,433.78,106.61z M425.4,107.19c0-1.38-0.24-2.52-0.73-3.41c-0.49-0.89-1.09-1.55-1.8-1.98
			s-1.46-0.7-2.24-0.81c-0.78-0.11-1.59-0.17-2.42-0.17h-3.41v13.38h3.6c1.28,0,2.35-0.17,3.21-0.52s1.57-0.83,2.12-1.45
			c0.55-0.62,0.96-1.36,1.25-2.22C425.26,109.15,425.4,108.21,425.4,107.19z"/>
		<path class="st2" d="M475.46,113.89c0,3.27-0.41,6.2-1.22,8.78c-0.81,2.58-2.02,4.77-3.63,6.57s-3.59,3.17-5.96,4.11
			s-5.1,1.42-8.21,1.42c-3.07,0-5.74-0.4-8.03-1.2c-2.29-0.8-4.19-2.03-5.71-3.67c-1.52-1.65-2.67-3.74-3.43-6.28
			s-1.14-5.55-1.14-9.02c0-3.19,0.41-6.06,1.22-8.61s2.02-4.72,3.63-6.5c1.6-1.79,3.59-3.16,5.96-4.11
			c2.37-0.95,5.11-1.43,8.24-1.43c2.99,0,5.62,0.4,7.91,1.19c2.29,0.79,4.19,2.01,5.73,3.66c1.53,1.65,2.69,3.72,3.47,6.23
			C475.07,107.52,475.46,110.48,475.46,113.89z M467.05,114.32c0-2.07-0.16-3.96-0.49-5.65c-0.33-1.7-0.88-3.15-1.66-4.36
			c-0.78-1.21-1.82-2.14-3.12-2.8c-1.3-0.66-2.93-0.99-4.88-0.99c-1.97,0-3.62,0.37-4.94,1.11c-1.32,0.74-2.39,1.73-3.2,2.97
			c-0.81,1.24-1.39,2.69-1.72,4.34c-0.33,1.66-0.5,3.41-0.5,5.26c0,2.15,0.16,4.09,0.49,5.8c0.33,1.72,0.87,3.18,1.65,4.4
			c0.77,1.22,1.81,2.15,3.11,2.79c1.3,0.64,2.94,0.96,4.91,0.96s3.62-0.37,4.94-1.1c1.32-0.73,2.39-1.73,3.2-2.99
			s1.39-2.73,1.72-4.4S467.05,116.21,467.05,114.32z"/>
		<path class="st2" d="M511.44,133.03c0,0.22-0.04,0.41-0.12,0.56c-0.08,0.15-0.27,0.28-0.58,0.38c-0.3,0.1-0.75,0.17-1.34,0.21
			c-0.59,0.04-1.39,0.06-2.41,0.06c-0.85,0-1.53-0.02-2.04-0.06c-0.51-0.04-0.91-0.12-1.2-0.23c-0.29-0.11-0.5-0.25-0.63-0.43
			c-0.12-0.17-0.22-0.38-0.3-0.63l-3.53-8.8c-0.43-1-0.84-1.88-1.25-2.65c-0.41-0.77-0.86-1.42-1.36-1.94
			c-0.5-0.52-1.07-0.91-1.72-1.17c-0.65-0.26-1.4-0.4-2.25-0.4h-2.5v15.02c0,0.2-0.07,0.39-0.2,0.55c-0.13,0.16-0.35,0.29-0.66,0.4
			s-0.71,0.18-1.22,0.24c-0.51,0.06-1.16,0.09-1.95,0.09c-0.77,0-1.42-0.03-1.93-0.09c-0.52-0.06-0.93-0.14-1.23-0.24
			s-0.52-0.23-0.64-0.4c-0.12-0.16-0.18-0.34-0.18-0.55v-35.8c0-0.89,0.23-1.54,0.69-1.93c0.46-0.4,1.02-0.59,1.69-0.59h10.21
			c1.04,0,1.89,0.02,2.56,0.06s1.28,0.09,1.83,0.15c1.58,0.22,3.01,0.61,4.28,1.16c1.27,0.55,2.35,1.26,3.23,2.15
			c0.88,0.88,1.56,1.93,2.03,3.14c0.47,1.21,0.7,2.6,0.7,4.16c0,1.32-0.17,2.52-0.5,3.61c-0.33,1.09-0.83,2.06-1.48,2.91
			c-0.65,0.85-1.45,1.59-2.41,2.22c-0.96,0.63-2.04,1.14-3.26,1.52c0.59,0.29,1.14,0.63,1.66,1.04c0.52,0.41,1.01,0.9,1.46,1.48
			s0.89,1.24,1.29,1.98s0.8,1.58,1.19,2.51l3.32,7.77c0.3,0.77,0.51,1.34,0.61,1.69C511.39,132.54,511.44,132.82,511.44,133.03z
			 M501.11,106.28c0-1.3-0.29-2.4-0.88-3.29c-0.59-0.89-1.55-1.52-2.89-1.89c-0.41-0.1-0.87-0.18-1.39-0.24
			c-0.52-0.06-1.23-0.09-2.15-0.09h-3.6v11.18h4.08c1.14,0,2.13-0.14,2.99-0.41c0.85-0.27,1.56-0.66,2.13-1.16
			c0.57-0.5,0.99-1.09,1.28-1.78C500.97,107.9,501.11,107.13,501.11,106.28z"/>
		<path class="st2" d="M542.94,97.93c0,0.59-0.03,1.09-0.08,1.51c-0.05,0.42-0.13,0.75-0.23,1.01c-0.1,0.25-0.23,0.44-0.38,0.56
			s-0.32,0.18-0.5,0.18h-9.87v31.78c0,0.2-0.07,0.39-0.2,0.55c-0.13,0.16-0.35,0.29-0.65,0.4s-0.72,0.18-1.23,0.24
			c-0.52,0.06-1.16,0.09-1.93,0.09c-0.77,0-1.42-0.03-1.93-0.09c-0.52-0.06-0.93-0.14-1.23-0.24s-0.52-0.23-0.66-0.4
			c-0.13-0.16-0.2-0.34-0.2-0.55v-31.78h-9.87c-0.2,0-0.38-0.06-0.52-0.18c-0.14-0.12-0.26-0.31-0.37-0.56s-0.18-0.59-0.23-1.01
			c-0.05-0.42-0.08-0.92-0.08-1.51c0-0.61,0.03-1.13,0.08-1.55c0.05-0.43,0.13-0.77,0.23-1.02c0.1-0.25,0.22-0.44,0.37-0.55
			c0.14-0.11,0.31-0.17,0.52-0.17h27.79c0.18,0,0.35,0.06,0.5,0.17s0.28,0.29,0.38,0.55c0.1,0.25,0.18,0.59,0.23,1.02
			C542.92,96.8,542.94,97.32,542.94,97.93z"/>
		<path class="st2" d="M570.97,130.92c0,0.59-0.03,1.08-0.08,1.48c-0.05,0.4-0.13,0.72-0.23,0.96c-0.1,0.24-0.23,0.42-0.38,0.53
			c-0.15,0.11-0.32,0.17-0.5,0.17h-19.8c-0.67,0-1.23-0.2-1.69-0.59c-0.46-0.4-0.69-1.04-0.69-1.94V97.17
			c0-0.89,0.23-1.54,0.69-1.93c0.46-0.4,1.02-0.59,1.69-0.59h19.68c0.18,0,0.35,0.05,0.49,0.15c0.14,0.1,0.26,0.28,0.37,0.53
			c0.1,0.25,0.18,0.58,0.23,0.98c0.05,0.4,0.08,0.9,0.08,1.51c0,0.57-0.03,1.05-0.08,1.45s-0.13,0.72-0.23,0.96
			c-0.1,0.24-0.22,0.42-0.37,0.53c-0.14,0.11-0.3,0.17-0.49,0.17h-14.08v9.63h11.91c0.18,0,0.35,0.06,0.5,0.17s0.28,0.28,0.38,0.52
			c0.1,0.23,0.18,0.55,0.23,0.94c0.05,0.4,0.08,0.88,0.08,1.45c0,0.59-0.03,1.08-0.08,1.46s-0.13,0.7-0.23,0.93
			c-0.1,0.23-0.23,0.4-0.38,0.5c-0.15,0.1-0.32,0.15-0.5,0.15h-11.91v11.12h14.2c0.18,0,0.35,0.06,0.5,0.17
			c0.15,0.11,0.28,0.29,0.38,0.53c0.1,0.24,0.18,0.56,0.23,0.96C570.95,129.84,570.97,130.34,570.97,130.92z"/>
		<path class="st2" d="M600.8,122.24c0,2.07-0.39,3.89-1.16,5.45c-0.77,1.56-1.82,2.87-3.14,3.92c-1.32,1.05-2.86,1.83-4.63,2.36
			c-1.77,0.53-3.66,0.79-5.67,0.79c-1.36,0-2.63-0.11-3.79-0.34s-2.2-0.49-3.09-0.81c-0.89-0.32-1.64-0.64-2.24-0.99
			c-0.6-0.35-1.03-0.65-1.29-0.91s-0.45-0.64-0.56-1.14s-0.17-1.21-0.17-2.15c0-0.63,0.02-1.16,0.06-1.58
			c0.04-0.43,0.11-0.77,0.2-1.04c0.09-0.26,0.21-0.45,0.37-0.56s0.33-0.17,0.53-0.17c0.28,0,0.69,0.17,1.2,0.5
			c0.52,0.33,1.18,0.71,2,1.11s1.78,0.78,2.91,1.11c1.13,0.33,2.43,0.5,3.92,0.5c0.97,0,1.85-0.12,2.62-0.35
			c0.77-0.23,1.43-0.56,1.96-0.99c0.54-0.43,0.95-0.96,1.23-1.58c0.28-0.63,0.43-1.33,0.43-2.1c0-0.89-0.24-1.66-0.73-2.3
			s-1.12-1.21-1.9-1.71c-0.78-0.5-1.67-0.96-2.67-1.4c-1-0.44-2.02-0.9-3.08-1.39c-1.06-0.49-2.08-1.04-3.08-1.66
			c-1-0.62-1.88-1.36-2.67-2.22c-0.78-0.86-1.42-1.88-1.9-3.06s-0.73-2.59-0.73-4.24c0-1.89,0.35-3.55,1.05-4.98
			c0.7-1.43,1.65-2.62,2.83-3.56c1.19-0.95,2.59-1.65,4.2-2.12c1.62-0.47,3.33-0.7,5.13-0.7c0.93,0,1.87,0.07,2.8,0.21
			c0.93,0.14,1.81,0.33,2.62,0.58c0.81,0.24,1.53,0.52,2.16,0.82c0.63,0.3,1.05,0.56,1.25,0.76c0.2,0.2,0.34,0.38,0.41,0.52
			c0.07,0.14,0.13,0.33,0.18,0.56c0.05,0.23,0.09,0.53,0.11,0.88c0.02,0.36,0.03,0.8,0.03,1.33c0,0.59-0.02,1.09-0.05,1.49
			c-0.03,0.41-0.08,0.74-0.15,1.01c-0.07,0.26-0.17,0.46-0.3,0.58s-0.31,0.18-0.53,0.18s-0.58-0.14-1.07-0.43
			c-0.49-0.28-1.09-0.59-1.8-0.93c-0.71-0.34-1.53-0.64-2.47-0.91c-0.93-0.27-1.96-0.41-3.08-0.41c-0.87,0-1.63,0.11-2.29,0.32
			s-1.19,0.51-1.63,0.88s-0.76,0.83-0.97,1.36c-0.21,0.53-0.32,1.09-0.32,1.68c0,0.87,0.24,1.63,0.72,2.27
			c0.48,0.64,1.12,1.21,1.92,1.71c0.8,0.5,1.71,0.96,2.73,1.4s2.05,0.9,3.11,1.39c1.06,0.49,2.09,1.04,3.11,1.66
			s1.92,1.36,2.71,2.22c0.79,0.86,1.43,1.88,1.92,3.05C600.56,119.28,600.8,120.66,600.8,122.24z"/>
		<path class="st2" d="M636.97,119.1v13.86c0,0.2-0.07,0.39-0.2,0.55c-0.13,0.16-0.35,0.29-0.65,0.4s-0.72,0.18-1.23,0.24
			c-0.52,0.06-1.16,0.09-1.93,0.09c-0.79,0-1.44-0.03-1.95-0.09c-0.51-0.06-0.92-0.14-1.23-0.24c-0.32-0.1-0.53-0.23-0.66-0.4
			c-0.12-0.16-0.18-0.34-0.18-0.55V119.1l-10.79-21.48c-0.39-0.75-0.63-1.34-0.75-1.75c-0.11-0.42-0.05-0.73,0.18-0.94
			c0.23-0.21,0.67-0.35,1.29-0.4c0.63-0.05,1.5-0.08,2.62-0.08c0.93,0,1.68,0.02,2.24,0.06c0.56,0.04,1,0.12,1.33,0.23
			c0.33,0.11,0.56,0.26,0.72,0.44s0.3,0.42,0.44,0.7l4.39,9.69c0.43,0.93,0.85,1.92,1.26,2.96s0.84,2.12,1.26,3.26h0.06
			c0.38-1.1,0.78-2.16,1.19-3.2c0.41-1.04,0.8-2.02,1.19-2.96l4.33-9.63c0.1-0.32,0.23-0.58,0.38-0.78s0.38-0.35,0.69-0.47
			s0.72-0.2,1.25-0.24c0.53-0.04,1.23-0.06,2.1-0.06c1.16,0,2.06,0.03,2.7,0.08c0.64,0.05,1.08,0.18,1.31,0.4
			c0.23,0.21,0.29,0.53,0.17,0.96c-0.12,0.43-0.37,1.01-0.73,1.74L636.97,119.1z"/>
		<path class="st2" d="M183.15,184.09c0,0.51-0.01,0.94-0.04,1.29c-0.03,0.36-0.08,0.66-0.14,0.91c-0.06,0.25-0.14,0.47-0.24,0.66
			c-0.1,0.18-0.26,0.39-0.49,0.62c-0.22,0.23-0.65,0.53-1.29,0.9c-0.64,0.37-1.42,0.72-2.35,1.05c-0.92,0.33-1.98,0.61-3.17,0.84
			c-1.19,0.22-2.47,0.33-3.85,0.33c-2.7,0-5.14-0.42-7.31-1.25c-2.17-0.83-4.02-2.08-5.54-3.73c-1.52-1.66-2.69-3.72-3.5-6.2
			c-0.81-2.48-1.22-5.36-1.22-8.65c0-3.35,0.45-6.33,1.34-8.93c0.89-2.6,2.14-4.78,3.75-6.55c1.6-1.77,3.53-3.11,5.77-4.02
			s4.72-1.37,7.42-1.37c1.1,0,2.15,0.09,3.17,0.27s1.96,0.42,2.82,0.72c0.86,0.29,1.64,0.63,2.33,1.02
			c0.69,0.39,1.17,0.72,1.45,0.99c0.27,0.27,0.46,0.5,0.56,0.69c0.1,0.18,0.18,0.42,0.24,0.7c0.06,0.28,0.11,0.62,0.14,1
			c0.03,0.39,0.05,0.86,0.05,1.43c0,0.61-0.02,1.13-0.06,1.55s-0.11,0.77-0.21,1.04c-0.1,0.26-0.22,0.46-0.37,0.58
			c-0.14,0.12-0.3,0.18-0.49,0.18c-0.3,0-0.69-0.18-1.16-0.53c-0.47-0.36-1.07-0.75-1.81-1.19s-1.63-0.83-2.65-1.19
			c-1.03-0.36-2.25-0.53-3.67-0.53c-1.56,0-2.96,0.32-4.19,0.96c-1.23,0.64-2.28,1.55-3.14,2.74s-1.52,2.63-1.96,4.31
			c-0.45,1.69-0.67,3.59-0.67,5.7c0,2.32,0.24,4.32,0.72,6.02c0.48,1.7,1.16,3.09,2.04,4.19c0.88,1.1,1.95,1.92,3.2,2.45
			s2.66,0.81,4.22,0.81c1.42,0,2.65-0.17,3.69-0.5s1.92-0.71,2.67-1.11c0.74-0.41,1.35-0.77,1.83-1.1c0.48-0.32,0.85-0.49,1.11-0.49
			c0.2,0,0.37,0.04,0.49,0.12s0.22,0.24,0.3,0.49c0.08,0.24,0.14,0.58,0.18,1.02C183.13,182.78,183.15,183.36,183.15,184.09z"/>
		<path class="st2" d="M223.91,169.89c0,3.27-0.41,6.2-1.22,8.78c-0.81,2.58-2.02,4.77-3.63,6.57s-3.59,3.17-5.96,4.11
			s-5.1,1.42-8.21,1.42c-3.07,0-5.74-0.4-8.03-1.2c-2.29-0.8-4.19-2.03-5.71-3.67c-1.52-1.65-2.67-3.74-3.43-6.28
			s-1.14-5.55-1.14-9.02c0-3.19,0.41-6.06,1.22-8.61s2.02-4.72,3.63-6.5c1.6-1.79,3.59-3.16,5.96-4.11
			c2.37-0.95,5.11-1.43,8.24-1.43c2.99,0,5.62,0.4,7.91,1.19c2.29,0.79,4.19,2.01,5.73,3.66c1.53,1.65,2.69,3.72,3.47,6.23
			C223.52,163.52,223.91,166.48,223.91,169.89z M215.5,170.32c0-2.07-0.16-3.96-0.49-5.65c-0.33-1.7-0.88-3.15-1.66-4.36
			c-0.78-1.21-1.82-2.14-3.12-2.8c-1.3-0.66-2.93-0.99-4.88-0.99c-1.97,0-3.62,0.37-4.94,1.11c-1.32,0.74-2.39,1.73-3.2,2.97
			c-0.81,1.24-1.39,2.69-1.72,4.34c-0.33,1.66-0.5,3.41-0.5,5.26c0,2.15,0.16,4.09,0.49,5.8c0.33,1.72,0.87,3.18,1.65,4.4
			c0.77,1.22,1.81,2.15,3.11,2.79c1.3,0.64,2.94,0.96,4.91,0.96s3.62-0.37,4.94-1.1c1.32-0.73,2.39-1.73,3.2-2.99
			s1.39-2.73,1.72-4.4S215.5,172.21,215.5,170.32z"/>
		<path class="st2" d="M276.59,188.97c0,0.2-0.06,0.39-0.17,0.55c-0.11,0.16-0.32,0.29-0.61,0.4c-0.29,0.1-0.69,0.18-1.17,0.24
			c-0.49,0.06-1.11,0.09-1.86,0.09c-0.73,0-1.34-0.03-1.83-0.09c-0.49-0.06-0.87-0.14-1.16-0.24s-0.49-0.23-0.61-0.4
			c-0.12-0.16-0.18-0.34-0.18-0.55v-32.08h-0.06l-11.42,32.05c-0.08,0.26-0.21,0.48-0.4,0.65c-0.18,0.17-0.43,0.31-0.75,0.41
			c-0.32,0.1-0.72,0.17-1.2,0.2c-0.49,0.03-1.08,0.05-1.77,0.05s-1.28-0.03-1.77-0.08c-0.49-0.05-0.89-0.13-1.2-0.24
			c-0.32-0.11-0.56-0.25-0.75-0.41c-0.18-0.16-0.3-0.35-0.37-0.58l-11.03-32.05h-0.06v32.08c0,0.2-0.06,0.39-0.17,0.55
			c-0.11,0.16-0.32,0.29-0.62,0.4c-0.3,0.1-0.7,0.18-1.17,0.24c-0.48,0.06-1.09,0.09-1.84,0.09c-0.73,0-1.34-0.03-1.83-0.09
			c-0.49-0.06-0.88-0.14-1.17-0.24c-0.29-0.1-0.5-0.23-0.61-0.4c-0.11-0.16-0.17-0.34-0.17-0.55v-35.13c0-1.04,0.27-1.83,0.82-2.38
			c0.55-0.55,1.28-0.82,2.19-0.82h5.24c0.93,0,1.74,0.08,2.41,0.23c0.67,0.15,1.25,0.41,1.74,0.76c0.49,0.36,0.89,0.82,1.22,1.4
			c0.33,0.58,0.61,1.29,0.85,2.15l8.53,23.49h0.12l8.84-23.43c0.26-0.85,0.55-1.57,0.87-2.16c0.31-0.59,0.68-1.07,1.1-1.43
			c0.42-0.37,0.91-0.63,1.48-0.78c0.57-0.15,1.23-0.23,1.98-0.23h5.39c0.55,0,1.02,0.07,1.42,0.21c0.4,0.14,0.72,0.35,0.97,0.62
			s0.45,0.61,0.58,1.01c0.13,0.4,0.2,0.85,0.2,1.36V188.97z"/>
		<path class="st2" d="M317.36,175.38c0,2.42-0.36,4.58-1.07,6.49c-0.71,1.91-1.76,3.52-3.14,4.84c-1.38,1.32-3.09,2.33-5.12,3.02
			s-4.37,1.04-7.01,1.04c-2.48,0-4.7-0.31-6.67-0.93c-1.97-0.62-3.64-1.56-5-2.82c-1.36-1.26-2.4-2.83-3.12-4.71
			c-0.72-1.88-1.08-4.08-1.08-6.6v-23.98c0-0.2,0.06-0.38,0.18-0.55c0.12-0.16,0.34-0.29,0.66-0.4c0.31-0.1,0.73-0.18,1.23-0.24
			c0.51-0.06,1.16-0.09,1.95-0.09c0.77,0,1.41,0.03,1.92,0.09c0.51,0.06,0.91,0.14,1.22,0.24c0.3,0.1,0.52,0.23,0.65,0.4
			c0.13,0.16,0.2,0.35,0.2,0.55v23.28c0,1.56,0.19,2.92,0.58,4.07s0.94,2.1,1.66,2.85c0.72,0.75,1.58,1.32,2.59,1.69
			c1.01,0.38,2.13,0.56,3.37,0.56c1.26,0,2.39-0.19,3.38-0.58s1.84-0.95,2.53-1.69c0.69-0.74,1.22-1.66,1.6-2.74
			c0.38-1.09,0.56-2.32,0.56-3.7v-23.74c0-0.2,0.06-0.38,0.18-0.55c0.12-0.16,0.33-0.29,0.64-0.4c0.3-0.1,0.72-0.18,1.23-0.24
			c0.52-0.06,1.16-0.09,1.93-0.09c0.77,0,1.41,0.03,1.9,0.09c0.5,0.06,0.9,0.14,1.2,0.24c0.3,0.1,0.52,0.23,0.64,0.4
			c0.12,0.16,0.18,0.35,0.18,0.55V175.38z"/>
		<path class="st2" d="M358.43,187.26c0,0.47-0.08,0.88-0.24,1.25c-0.16,0.37-0.38,0.67-0.66,0.91c-0.27,0.24-0.6,0.42-0.97,0.53
			c-0.38,0.11-0.76,0.17-1.14,0.17H352c-0.71,0-1.33-0.07-1.84-0.21c-0.52-0.14-1-0.4-1.43-0.78c-0.44-0.38-0.86-0.88-1.26-1.52
			c-0.41-0.64-0.86-1.47-1.37-2.48l-9.81-18.43c-0.57-1.1-1.15-2.28-1.74-3.55s-1.12-2.5-1.58-3.7h-0.06
			c0.08,1.46,0.14,2.92,0.18,4.37c0.04,1.45,0.06,2.95,0.06,4.49v20.63c0,0.2-0.06,0.39-0.17,0.55c-0.11,0.16-0.3,0.3-0.58,0.41
			c-0.27,0.11-0.65,0.2-1.11,0.26c-0.47,0.06-1.07,0.09-1.8,0.09c-0.71,0-1.3-0.03-1.77-0.09c-0.47-0.06-0.83-0.15-1.1-0.26
			c-0.26-0.11-0.45-0.25-0.55-0.41c-0.1-0.16-0.15-0.34-0.15-0.55V153.5c0-0.95,0.28-1.67,0.84-2.15c0.56-0.48,1.24-0.72,2.06-0.72
			h4.3c0.77,0,1.42,0.07,1.95,0.2c0.53,0.13,1,0.35,1.42,0.66c0.42,0.3,0.81,0.73,1.17,1.26c0.37,0.54,0.74,1.2,1.13,2l7.68,14.41
			c0.45,0.87,0.89,1.73,1.33,2.58c0.44,0.84,0.86,1.69,1.26,2.53c0.41,0.84,0.8,1.67,1.19,2.48s0.76,1.63,1.13,2.44h0.03
			c-0.06-1.42-0.11-2.9-0.14-4.45s-0.05-3.02-0.05-4.42v-18.49c0-0.2,0.06-0.39,0.18-0.55c0.12-0.16,0.32-0.3,0.61-0.43
			c0.28-0.12,0.66-0.21,1.13-0.26c0.47-0.05,1.07-0.08,1.8-0.08c0.69,0,1.27,0.03,1.74,0.08c0.47,0.05,0.83,0.14,1.08,0.26
			c0.25,0.12,0.43,0.26,0.53,0.43c0.1,0.16,0.15,0.35,0.15,0.55V187.26z"/>
		<path class="st2" d="M375.07,188.97c0,0.2-0.07,0.39-0.2,0.55c-0.13,0.16-0.35,0.29-0.66,0.4s-0.71,0.18-1.22,0.24
			c-0.51,0.06-1.16,0.09-1.95,0.09c-0.77,0-1.42-0.03-1.93-0.09c-0.52-0.06-0.93-0.14-1.23-0.24s-0.52-0.23-0.66-0.4
			c-0.13-0.16-0.2-0.34-0.2-0.55v-37.23c0-0.2,0.07-0.38,0.2-0.55c0.13-0.16,0.36-0.29,0.67-0.4c0.31-0.1,0.73-0.18,1.23-0.24
			c0.51-0.06,1.15-0.09,1.92-0.09c0.79,0,1.44,0.03,1.95,0.09c0.51,0.06,0.91,0.14,1.22,0.24c0.3,0.1,0.52,0.23,0.66,0.4
			c0.13,0.16,0.2,0.35,0.2,0.55V188.97z"/>
		<path class="st2" d="M410.93,184.09c0,0.51-0.01,0.94-0.04,1.29c-0.03,0.36-0.08,0.66-0.14,0.91c-0.06,0.25-0.14,0.47-0.24,0.66
			c-0.1,0.18-0.26,0.39-0.49,0.62c-0.22,0.23-0.65,0.53-1.29,0.9c-0.64,0.37-1.42,0.72-2.35,1.05c-0.92,0.33-1.98,0.61-3.17,0.84
			c-1.19,0.22-2.47,0.33-3.85,0.33c-2.7,0-5.14-0.42-7.31-1.25c-2.17-0.83-4.02-2.08-5.54-3.73c-1.52-1.66-2.69-3.72-3.5-6.2
			c-0.81-2.48-1.22-5.36-1.22-8.65c0-3.35,0.45-6.33,1.34-8.93c0.89-2.6,2.14-4.78,3.75-6.55c1.6-1.77,3.53-3.11,5.77-4.02
			s4.72-1.37,7.42-1.37c1.1,0,2.15,0.09,3.17,0.27s1.96,0.42,2.82,0.72c0.86,0.29,1.64,0.63,2.33,1.02
			c0.69,0.39,1.17,0.72,1.45,0.99c0.27,0.27,0.46,0.5,0.56,0.69c0.1,0.18,0.18,0.42,0.24,0.7c0.06,0.28,0.11,0.62,0.14,1
			c0.03,0.39,0.05,0.86,0.05,1.43c0,0.61-0.02,1.13-0.06,1.55s-0.11,0.77-0.21,1.04c-0.1,0.26-0.22,0.46-0.37,0.58
			c-0.14,0.12-0.3,0.18-0.49,0.18c-0.3,0-0.69-0.18-1.16-0.53c-0.47-0.36-1.07-0.75-1.81-1.19s-1.63-0.83-2.65-1.19
			c-1.03-0.36-2.25-0.53-3.67-0.53c-1.56,0-2.96,0.32-4.19,0.96c-1.23,0.64-2.28,1.55-3.14,2.74s-1.52,2.63-1.96,4.31
			c-0.45,1.69-0.67,3.59-0.67,5.7c0,2.32,0.24,4.32,0.72,6.02c0.48,1.7,1.16,3.09,2.04,4.19c0.88,1.1,1.95,1.92,3.2,2.45
			s2.66,0.81,4.22,0.81c1.42,0,2.65-0.17,3.69-0.5s1.92-0.71,2.67-1.11c0.74-0.41,1.35-0.77,1.83-1.1c0.48-0.32,0.85-0.49,1.11-0.49
			c0.2,0,0.37,0.04,0.49,0.12s0.22,0.24,0.3,0.49c0.08,0.24,0.14,0.58,0.18,1.02C410.91,182.78,410.93,183.36,410.93,184.09z"/>
		<path class="st2" d="M448.98,187.08c0.24,0.73,0.4,1.31,0.46,1.74c0.06,0.43-0.02,0.75-0.24,0.96c-0.22,0.21-0.62,0.34-1.19,0.4
			c-0.57,0.05-1.35,0.08-2.35,0.08c-1.04,0-1.84-0.01-2.42-0.05c-0.58-0.03-1.02-0.09-1.33-0.18c-0.3-0.09-0.52-0.22-0.64-0.38
			c-0.12-0.16-0.22-0.38-0.3-0.64l-2.65-7.92h-14.81l-2.5,7.71c-0.08,0.28-0.19,0.52-0.32,0.72c-0.13,0.19-0.35,0.35-0.64,0.46
			c-0.29,0.11-0.71,0.19-1.25,0.23c-0.54,0.04-1.24,0.06-2.12,0.06c-0.93,0-1.67-0.03-2.19-0.09c-0.53-0.06-0.89-0.21-1.1-0.44
			c-0.2-0.23-0.27-0.56-0.21-0.99c0.06-0.43,0.21-1,0.46-1.71l12.16-34.98c0.12-0.34,0.26-0.62,0.43-0.84
			c0.16-0.21,0.42-0.38,0.78-0.49c0.36-0.11,0.85-0.18,1.48-0.21s1.46-0.05,2.5-0.05c1.2,0,2.15,0.02,2.86,0.05s1.26,0.1,1.66,0.21
			c0.4,0.11,0.68,0.28,0.85,0.5s0.32,0.53,0.44,0.91L448.98,187.08z M430.88,158.16h-0.03l-5.58,16.76h11.18L430.88,158.16z"/>
		<path class="st2" d="M481.03,184.09c0,0.51-0.01,0.94-0.04,1.29c-0.03,0.36-0.08,0.66-0.14,0.91c-0.06,0.25-0.14,0.47-0.24,0.66
			c-0.1,0.18-0.26,0.39-0.49,0.62c-0.22,0.23-0.65,0.53-1.29,0.9c-0.64,0.37-1.42,0.72-2.35,1.05c-0.92,0.33-1.98,0.61-3.17,0.84
			c-1.19,0.22-2.47,0.33-3.85,0.33c-2.7,0-5.14-0.42-7.31-1.25c-2.17-0.83-4.02-2.08-5.54-3.73c-1.52-1.66-2.69-3.72-3.5-6.2
			c-0.81-2.48-1.22-5.36-1.22-8.65c0-3.35,0.45-6.33,1.34-8.93c0.89-2.6,2.14-4.78,3.75-6.55c1.6-1.77,3.53-3.11,5.77-4.02
			s4.72-1.37,7.42-1.37c1.1,0,2.15,0.09,3.17,0.27s1.96,0.42,2.82,0.72c0.86,0.29,1.64,0.63,2.33,1.02
			c0.69,0.39,1.17,0.72,1.45,0.99c0.27,0.27,0.46,0.5,0.56,0.69c0.1,0.18,0.18,0.42,0.24,0.7c0.06,0.28,0.11,0.62,0.14,1
			c0.03,0.39,0.05,0.86,0.05,1.43c0,0.61-0.02,1.13-0.06,1.55s-0.11,0.77-0.21,1.04c-0.1,0.26-0.22,0.46-0.37,0.58
			c-0.14,0.12-0.3,0.18-0.49,0.18c-0.3,0-0.69-0.18-1.16-0.53c-0.47-0.36-1.07-0.75-1.81-1.19s-1.63-0.83-2.65-1.19
			c-1.03-0.36-2.25-0.53-3.67-0.53c-1.56,0-2.96,0.32-4.19,0.96c-1.23,0.64-2.28,1.55-3.14,2.74s-1.52,2.63-1.96,4.31
			c-0.45,1.69-0.67,3.59-0.67,5.7c0,2.32,0.24,4.32,0.72,6.02c0.48,1.7,1.16,3.09,2.04,4.19c0.88,1.1,1.95,1.92,3.2,2.45
			s2.66,0.81,4.22,0.81c1.42,0,2.65-0.17,3.69-0.5s1.92-0.71,2.67-1.11c0.74-0.41,1.35-0.77,1.83-1.1c0.48-0.32,0.85-0.49,1.11-0.49
			c0.2,0,0.37,0.04,0.49,0.12s0.22,0.24,0.3,0.49c0.08,0.24,0.14,0.58,0.18,1.02C481.01,182.78,481.03,183.36,481.03,184.09z"/>
		<path class="st2" d="M494.83,188.97c0,0.2-0.07,0.39-0.2,0.55c-0.13,0.16-0.35,0.29-0.66,0.4s-0.71,0.18-1.22,0.24
			c-0.51,0.06-1.16,0.09-1.95,0.09c-0.77,0-1.42-0.03-1.93-0.09c-0.52-0.06-0.93-0.14-1.23-0.24s-0.52-0.23-0.66-0.4
			c-0.13-0.16-0.2-0.34-0.2-0.55v-37.23c0-0.2,0.07-0.38,0.2-0.55c0.13-0.16,0.36-0.29,0.67-0.4c0.31-0.1,0.73-0.18,1.23-0.24
			c0.51-0.06,1.15-0.09,1.92-0.09c0.79,0,1.44,0.03,1.95,0.09c0.51,0.06,0.91,0.14,1.22,0.24c0.3,0.1,0.52,0.23,0.66,0.4
			c0.13,0.16,0.2,0.35,0.2,0.55V188.97z"/>
		<path class="st2" d="M538.89,169.89c0,3.27-0.41,6.2-1.22,8.78c-0.81,2.58-2.02,4.77-3.63,6.57s-3.59,3.17-5.96,4.11
			s-5.1,1.42-8.21,1.42c-3.07,0-5.74-0.4-8.03-1.2c-2.29-0.8-4.19-2.03-5.71-3.67c-1.52-1.65-2.67-3.74-3.43-6.28
			s-1.14-5.55-1.14-9.02c0-3.19,0.41-6.06,1.22-8.61s2.02-4.72,3.63-6.5c1.6-1.79,3.59-3.16,5.96-4.11
			c2.37-0.95,5.11-1.43,8.24-1.43c2.99,0,5.62,0.4,7.91,1.19c2.29,0.79,4.19,2.01,5.73,3.66c1.53,1.65,2.69,3.72,3.47,6.23
			C538.5,163.52,538.89,166.48,538.89,169.89z M530.48,170.32c0-2.07-0.16-3.96-0.49-5.65c-0.33-1.7-0.88-3.15-1.66-4.36
			c-0.78-1.21-1.82-2.14-3.12-2.8c-1.3-0.66-2.93-0.99-4.88-0.99c-1.97,0-3.62,0.37-4.94,1.11c-1.32,0.74-2.39,1.73-3.2,2.97
			c-0.81,1.24-1.39,2.69-1.72,4.34c-0.33,1.66-0.5,3.41-0.5,5.26c0,2.15,0.16,4.09,0.49,5.8c0.33,1.72,0.87,3.18,1.65,4.4
			c0.77,1.22,1.81,2.15,3.11,2.79c1.3,0.64,2.94,0.96,4.91,0.96s3.62-0.37,4.94-1.1c1.32-0.73,2.39-1.73,3.2-2.99
			s1.39-2.73,1.72-4.4S530.48,172.21,530.48,170.32z"/>
		<path class="st2" d="M578.13,187.26c0,0.47-0.08,0.88-0.24,1.25c-0.16,0.37-0.38,0.67-0.66,0.91c-0.27,0.24-0.6,0.42-0.97,0.53
			c-0.38,0.11-0.76,0.17-1.14,0.17h-3.41c-0.71,0-1.33-0.07-1.84-0.21c-0.52-0.14-1-0.4-1.43-0.78c-0.44-0.38-0.86-0.88-1.26-1.52
			c-0.41-0.64-0.86-1.47-1.37-2.48l-9.81-18.43c-0.57-1.1-1.15-2.28-1.74-3.55s-1.12-2.5-1.58-3.7h-0.06
			c0.08,1.46,0.14,2.92,0.18,4.37c0.04,1.45,0.06,2.95,0.06,4.49v20.63c0,0.2-0.06,0.39-0.17,0.55c-0.11,0.16-0.3,0.3-0.58,0.41
			c-0.27,0.11-0.65,0.2-1.11,0.26c-0.47,0.06-1.07,0.09-1.8,0.09c-0.71,0-1.3-0.03-1.77-0.09c-0.47-0.06-0.83-0.15-1.1-0.26
			c-0.26-0.11-0.45-0.25-0.55-0.41c-0.1-0.16-0.15-0.34-0.15-0.55V153.5c0-0.95,0.28-1.67,0.84-2.15c0.56-0.48,1.24-0.72,2.06-0.72
			h4.3c0.77,0,1.42,0.07,1.95,0.2c0.53,0.13,1,0.35,1.42,0.66c0.42,0.3,0.81,0.73,1.17,1.26c0.37,0.54,0.74,1.2,1.13,2l7.68,14.41
			c0.45,0.87,0.89,1.73,1.33,2.58c0.44,0.84,0.86,1.69,1.26,2.53c0.41,0.84,0.8,1.67,1.19,2.48s0.76,1.63,1.13,2.44h0.03
			c-0.06-1.42-0.11-2.9-0.14-4.45s-0.05-3.02-0.05-4.42v-18.49c0-0.2,0.06-0.39,0.18-0.55c0.12-0.16,0.32-0.3,0.61-0.43
			c0.28-0.12,0.66-0.21,1.13-0.26c0.47-0.05,1.07-0.08,1.8-0.08c0.69,0,1.27,0.03,1.74,0.08c0.47,0.05,0.83,0.14,1.08,0.26
			c0.25,0.12,0.43,0.26,0.53,0.43c0.1,0.16,0.15,0.35,0.15,0.55V187.26z"/>
		<path class="st2" d="M610.1,186.92c0,0.59-0.03,1.08-0.08,1.48c-0.05,0.4-0.13,0.72-0.23,0.96c-0.1,0.24-0.23,0.42-0.38,0.53
			c-0.15,0.11-0.32,0.17-0.5,0.17h-19.8c-0.67,0-1.23-0.2-1.69-0.59c-0.46-0.4-0.69-1.04-0.69-1.94v-34.37
			c0-0.89,0.23-1.54,0.69-1.93c0.46-0.4,1.02-0.59,1.69-0.59h19.68c0.18,0,0.35,0.05,0.49,0.15c0.14,0.1,0.26,0.28,0.37,0.53
			c0.1,0.25,0.18,0.58,0.23,0.98c0.05,0.4,0.08,0.9,0.08,1.51c0,0.57-0.03,1.05-0.08,1.45s-0.13,0.72-0.23,0.96
			c-0.1,0.24-0.22,0.42-0.37,0.53c-0.14,0.11-0.3,0.17-0.49,0.17h-14.08v9.63h11.91c0.18,0,0.35,0.06,0.5,0.17s0.28,0.28,0.38,0.52
			c0.1,0.23,0.18,0.55,0.23,0.94c0.05,0.4,0.08,0.88,0.08,1.45c0,0.59-0.03,1.08-0.08,1.46s-0.13,0.7-0.23,0.93
			c-0.1,0.23-0.23,0.4-0.38,0.5c-0.15,0.1-0.32,0.15-0.5,0.15h-11.91v11.12h14.2c0.18,0,0.35,0.06,0.5,0.17
			c0.15,0.11,0.28,0.29,0.38,0.53c0.1,0.24,0.18,0.56,0.23,0.96C610.07,185.84,610.1,186.34,610.1,186.92z"/>
		<path class="st2" d="M639.92,178.24c0,2.07-0.39,3.89-1.16,5.45c-0.77,1.56-1.82,2.87-3.14,3.92c-1.32,1.05-2.86,1.83-4.63,2.36
			c-1.77,0.53-3.66,0.79-5.67,0.79c-1.36,0-2.63-0.11-3.79-0.34s-2.2-0.49-3.09-0.81c-0.89-0.32-1.64-0.64-2.24-0.99
			c-0.6-0.35-1.03-0.65-1.29-0.91s-0.45-0.64-0.56-1.14s-0.17-1.21-0.17-2.15c0-0.63,0.02-1.16,0.06-1.58
			c0.04-0.43,0.11-0.77,0.2-1.04c0.09-0.26,0.21-0.45,0.37-0.56s0.33-0.17,0.53-0.17c0.28,0,0.69,0.17,1.2,0.5
			c0.52,0.33,1.18,0.71,2,1.11s1.78,0.78,2.91,1.11c1.13,0.33,2.43,0.5,3.92,0.5c0.97,0,1.85-0.12,2.62-0.35
			c0.77-0.23,1.43-0.56,1.96-0.99c0.54-0.43,0.95-0.96,1.23-1.58c0.28-0.63,0.43-1.33,0.43-2.1c0-0.89-0.24-1.66-0.73-2.3
			s-1.12-1.21-1.9-1.71c-0.78-0.5-1.67-0.96-2.67-1.4c-1-0.44-2.02-0.9-3.08-1.39c-1.06-0.49-2.08-1.04-3.08-1.66
			c-1-0.62-1.88-1.36-2.67-2.22c-0.78-0.86-1.42-1.88-1.9-3.06s-0.73-2.59-0.73-4.24c0-1.89,0.35-3.55,1.05-4.98
			c0.7-1.43,1.65-2.62,2.83-3.56c1.19-0.95,2.59-1.65,4.2-2.12c1.62-0.47,3.33-0.7,5.13-0.7c0.93,0,1.87,0.07,2.8,0.21
			c0.93,0.14,1.81,0.33,2.62,0.58c0.81,0.24,1.53,0.52,2.16,0.82c0.63,0.3,1.05,0.56,1.25,0.76c0.2,0.2,0.34,0.38,0.41,0.52
			c0.07,0.14,0.13,0.33,0.18,0.56c0.05,0.23,0.09,0.53,0.11,0.88c0.02,0.36,0.03,0.8,0.03,1.33c0,0.59-0.02,1.09-0.05,1.49
			c-0.03,0.41-0.08,0.74-0.15,1.01c-0.07,0.26-0.17,0.46-0.3,0.58s-0.31,0.18-0.53,0.18s-0.58-0.14-1.07-0.43
			c-0.49-0.28-1.09-0.59-1.8-0.93c-0.71-0.34-1.53-0.64-2.47-0.91c-0.93-0.27-1.96-0.41-3.08-0.41c-0.87,0-1.63,0.11-2.29,0.32
			s-1.19,0.51-1.63,0.88s-0.76,0.83-0.97,1.36c-0.21,0.53-0.32,1.09-0.32,1.68c0,0.87,0.24,1.63,0.72,2.27
			c0.48,0.64,1.12,1.21,1.92,1.71c0.8,0.5,1.71,0.96,2.73,1.4s2.05,0.9,3.11,1.39c1.06,0.49,2.09,1.04,3.11,1.66
			s1.92,1.36,2.71,2.22c0.79,0.86,1.43,1.88,1.92,3.05C639.68,175.28,639.92,176.66,639.92,178.24z"/>
		<path class="st2" d="M262.73,230.74c0,1.18-0.11,2-0.33,2.47c-0.22,0.47-0.58,0.7-1.07,0.7h-12.67c-0.51,0-0.87-0.24-1.1-0.72
			c-0.22-0.48-0.33-1.29-0.33-2.45c0-1.14,0.11-1.94,0.33-2.41c0.22-0.47,0.59-0.7,1.1-0.7h12.67c0.24,0,0.45,0.05,0.63,0.15
			c0.17,0.1,0.32,0.27,0.44,0.52c0.12,0.24,0.21,0.57,0.26,0.97C262.7,229.68,262.73,230.17,262.73,230.74z"/>
		<path class="st2" d="M315.23,243.08c0.24,0.73,0.4,1.31,0.46,1.74c0.06,0.43-0.02,0.75-0.24,0.96c-0.22,0.21-0.62,0.34-1.19,0.4
			c-0.57,0.05-1.35,0.08-2.35,0.08c-1.04,0-1.84-0.01-2.42-0.05c-0.58-0.03-1.02-0.09-1.33-0.18c-0.3-0.09-0.52-0.22-0.64-0.38
			c-0.12-0.16-0.22-0.38-0.3-0.64l-2.65-7.92h-14.81l-2.5,7.71c-0.08,0.28-0.19,0.52-0.32,0.72c-0.13,0.19-0.35,0.35-0.64,0.46
			c-0.29,0.11-0.71,0.19-1.25,0.23c-0.54,0.04-1.24,0.06-2.12,0.06c-0.93,0-1.67-0.03-2.19-0.09c-0.53-0.06-0.89-0.21-1.1-0.44
			c-0.2-0.23-0.27-0.56-0.21-0.99c0.06-0.43,0.21-1,0.46-1.71l12.16-34.98c0.12-0.34,0.26-0.62,0.43-0.84
			c0.16-0.21,0.42-0.38,0.78-0.49c0.36-0.11,0.85-0.18,1.48-0.21s1.46-0.05,2.5-0.05c1.2,0,2.15,0.02,2.86,0.05s1.26,0.1,1.66,0.21
			c0.4,0.11,0.68,0.28,0.85,0.5s0.32,0.53,0.44,0.91L315.23,243.08z M297.13,214.16h-0.03l-5.58,16.76h11.18L297.13,214.16z"/>
		<path class="st2" d="M349.99,245.03c0,0.22-0.04,0.41-0.12,0.56c-0.08,0.15-0.27,0.28-0.58,0.38c-0.3,0.1-0.75,0.17-1.34,0.21
			c-0.59,0.04-1.39,0.06-2.41,0.06c-0.85,0-1.53-0.02-2.04-0.06c-0.51-0.04-0.91-0.12-1.2-0.23c-0.29-0.11-0.5-0.25-0.63-0.43
			c-0.12-0.17-0.22-0.38-0.3-0.63l-3.53-8.8c-0.43-1-0.84-1.88-1.25-2.65c-0.41-0.77-0.86-1.42-1.36-1.94
			c-0.5-0.52-1.07-0.91-1.72-1.17c-0.65-0.26-1.4-0.4-2.25-0.4h-2.5v15.02c0,0.2-0.07,0.39-0.2,0.55c-0.13,0.16-0.35,0.29-0.66,0.4
			s-0.71,0.18-1.22,0.24c-0.51,0.06-1.16,0.09-1.95,0.09c-0.77,0-1.42-0.03-1.93-0.09c-0.52-0.06-0.93-0.14-1.23-0.24
			s-0.52-0.23-0.64-0.4c-0.12-0.16-0.18-0.34-0.18-0.55v-35.8c0-0.89,0.23-1.54,0.69-1.93c0.46-0.4,1.02-0.59,1.69-0.59h10.21
			c1.04,0,1.89,0.02,2.56,0.06s1.28,0.09,1.83,0.15c1.58,0.22,3.01,0.61,4.28,1.16c1.27,0.55,2.35,1.26,3.23,2.15
			c0.88,0.88,1.56,1.93,2.03,3.14c0.47,1.21,0.7,2.6,0.7,4.16c0,1.32-0.17,2.52-0.5,3.61c-0.33,1.09-0.83,2.06-1.48,2.91
			c-0.65,0.85-1.45,1.59-2.41,2.22c-0.96,0.63-2.04,1.14-3.26,1.52c0.59,0.29,1.14,0.63,1.66,1.04c0.52,0.41,1.01,0.9,1.46,1.48
			s0.89,1.24,1.29,1.98s0.8,1.58,1.19,2.51l3.32,7.77c0.3,0.77,0.51,1.34,0.61,1.69C349.94,244.54,349.99,244.82,349.99,245.03z
			 M339.66,218.28c0-1.3-0.29-2.4-0.88-3.29c-0.59-0.89-1.55-1.52-2.89-1.89c-0.41-0.1-0.87-0.18-1.39-0.24
			c-0.52-0.06-1.23-0.09-2.15-0.09h-3.6v11.18h4.08c1.14,0,2.13-0.14,2.99-0.41c0.85-0.27,1.56-0.66,2.13-1.16
			c0.57-0.5,0.99-1.09,1.28-1.78C339.52,219.9,339.66,219.13,339.66,218.28z"/>
		<path class="st2" d="M379.24,242.92c0,0.59-0.03,1.08-0.08,1.48c-0.05,0.4-0.13,0.72-0.23,0.96c-0.1,0.24-0.23,0.42-0.38,0.53
			c-0.15,0.11-0.32,0.17-0.5,0.17h-19.8c-0.67,0-1.23-0.2-1.69-0.59c-0.46-0.4-0.69-1.04-0.69-1.94v-34.37
			c0-0.89,0.23-1.54,0.69-1.93c0.46-0.4,1.02-0.59,1.69-0.59h19.68c0.18,0,0.35,0.05,0.49,0.15c0.14,0.1,0.26,0.28,0.37,0.53
			c0.1,0.25,0.18,0.58,0.23,0.98c0.05,0.4,0.08,0.9,0.08,1.51c0,0.57-0.03,1.05-0.08,1.45s-0.13,0.72-0.23,0.96
			c-0.1,0.24-0.22,0.42-0.37,0.53c-0.14,0.11-0.3,0.17-0.49,0.17h-14.08v9.63h11.91c0.18,0,0.35,0.06,0.5,0.17s0.28,0.28,0.38,0.52
			c0.1,0.23,0.18,0.55,0.23,0.94c0.05,0.4,0.08,0.88,0.08,1.45c0,0.59-0.03,1.08-0.08,1.46s-0.13,0.7-0.23,0.93
			c-0.1,0.23-0.23,0.4-0.38,0.5c-0.15,0.1-0.32,0.15-0.5,0.15h-11.91v11.12h14.2c0.18,0,0.35,0.06,0.5,0.17
			c0.15,0.11,0.28,0.29,0.38,0.53c0.1,0.24,0.18,0.56,0.23,0.96C379.21,241.84,379.24,242.34,379.24,242.92z"/>
		<path class="st2" d="M424.42,249.81c0,0.73-0.04,1.32-0.11,1.77c-0.07,0.45-0.17,0.79-0.29,1.04c-0.12,0.24-0.25,0.4-0.4,0.47
			c-0.14,0.07-0.29,0.11-0.46,0.11c-0.67,0-1.55-0.18-2.64-0.55s-2.26-0.89-3.52-1.57c-1.26-0.68-2.54-1.51-3.85-2.5
			c-1.31-0.99-2.52-2.12-3.64-3.4c-0.93,0.43-2.07,0.8-3.4,1.11s-2.81,0.47-4.43,0.47c-3.07,0-5.74-0.39-8.03-1.17
			c-2.29-0.78-4.19-2-5.71-3.64s-2.67-3.74-3.43-6.29c-0.76-2.55-1.14-5.58-1.14-9.09c0-3.19,0.41-6.06,1.22-8.61
			s2.02-4.71,3.63-6.49c1.6-1.78,3.59-3.14,5.96-4.1c2.37-0.95,5.11-1.43,8.24-1.43c2.95,0,5.55,0.4,7.82,1.19
			c2.26,0.79,4.17,2.01,5.73,3.64c1.55,1.63,2.73,3.7,3.54,6.2c0.8,2.5,1.2,5.45,1.2,8.87c0,1.77-0.12,3.43-0.35,4.98
			s-0.57,2.99-1.02,4.31c-0.45,1.32-1,2.53-1.65,3.63s-1.39,2.06-2.22,2.89c1.26,1.1,2.38,1.93,3.35,2.5c0.97,0.57,1.79,1,2.45,1.28
			s1.19,0.49,1.58,0.62c0.4,0.13,0.71,0.3,0.93,0.52c0.22,0.21,0.39,0.58,0.49,1.1S424.42,248.9,424.42,249.81z M412.3,226.26
			c0-2.05-0.16-3.92-0.49-5.61c-0.33-1.69-0.88-3.13-1.66-4.34c-0.78-1.21-1.82-2.14-3.12-2.8c-1.3-0.66-2.93-0.99-4.88-0.99
			c-1.97,0-3.62,0.37-4.94,1.1s-2.39,1.72-3.2,2.96c-0.81,1.24-1.39,2.69-1.72,4.34c-0.33,1.66-0.5,3.4-0.5,5.23
			c0,2.17,0.16,4.12,0.49,5.85s0.87,3.2,1.65,4.42c0.77,1.22,1.81,2.15,3.11,2.79c1.3,0.64,2.94,0.96,4.91,0.96s3.62-0.37,4.94-1.1
			c1.32-0.73,2.39-1.73,3.2-2.99s1.39-2.73,1.72-4.42S412.3,228.17,412.3,226.26z"/>
		<path class="st2" d="M460.22,231.38c0,2.42-0.36,4.58-1.07,6.49c-0.71,1.91-1.76,3.52-3.14,4.84c-1.38,1.32-3.09,2.33-5.12,3.02
			s-4.37,1.04-7.01,1.04c-2.48,0-4.7-0.31-6.67-0.93c-1.97-0.62-3.64-1.56-5-2.82c-1.36-1.26-2.4-2.83-3.12-4.71
			c-0.72-1.88-1.08-4.08-1.08-6.6v-23.98c0-0.2,0.06-0.38,0.18-0.55c0.12-0.16,0.34-0.29,0.66-0.4c0.31-0.1,0.73-0.18,1.23-0.24
			c0.51-0.06,1.16-0.09,1.95-0.09c0.77,0,1.41,0.03,1.92,0.09c0.51,0.06,0.91,0.14,1.22,0.24c0.3,0.1,0.52,0.23,0.65,0.4
			c0.13,0.16,0.2,0.35,0.2,0.55v23.28c0,1.56,0.19,2.92,0.58,4.07s0.94,2.1,1.66,2.85c0.72,0.75,1.58,1.32,2.59,1.69
			c1.01,0.38,2.13,0.56,3.37,0.56c1.26,0,2.39-0.19,3.38-0.58s1.84-0.95,2.53-1.69c0.69-0.74,1.22-1.66,1.6-2.74
			c0.38-1.09,0.56-2.32,0.56-3.7v-23.74c0-0.2,0.06-0.38,0.18-0.55c0.12-0.16,0.33-0.29,0.64-0.4c0.3-0.1,0.72-0.18,1.23-0.24
			c0.52-0.06,1.16-0.09,1.93-0.09c0.77,0,1.41,0.03,1.9,0.09c0.5,0.06,0.9,0.14,1.2,0.24c0.3,0.1,0.52,0.23,0.64,0.4
			c0.12,0.16,0.18,0.35,0.18,0.55V231.38z"/>
		<path class="st2" d="M476.83,244.97c0,0.2-0.07,0.39-0.2,0.55c-0.13,0.16-0.35,0.29-0.66,0.4s-0.71,0.18-1.22,0.24
			c-0.51,0.06-1.16,0.09-1.95,0.09c-0.77,0-1.42-0.03-1.93-0.09c-0.52-0.06-0.93-0.14-1.23-0.24s-0.52-0.23-0.66-0.4
			c-0.13-0.16-0.2-0.34-0.2-0.55v-37.23c0-0.2,0.07-0.38,0.2-0.55c0.13-0.16,0.36-0.29,0.67-0.4c0.31-0.1,0.73-0.18,1.23-0.24
			c0.51-0.06,1.15-0.09,1.92-0.09c0.79,0,1.44,0.03,1.95,0.09c0.51,0.06,0.91,0.14,1.22,0.24c0.3,0.1,0.52,0.23,0.66,0.4
			c0.13,0.16,0.2,0.35,0.2,0.55V244.97z"/>
		<path class="st2" d="M512.41,218.61c0,2.21-0.35,4.17-1.04,5.88c-0.69,1.71-1.7,3.14-3.02,4.31s-2.94,2.06-4.86,2.67
			c-1.92,0.61-4.18,0.91-6.78,0.91h-3.29v12.58c0,0.2-0.07,0.39-0.2,0.55c-0.13,0.16-0.35,0.29-0.66,0.4s-0.71,0.18-1.22,0.24
			c-0.51,0.06-1.16,0.09-1.95,0.09c-0.77,0-1.42-0.03-1.93-0.09c-0.52-0.06-0.93-0.14-1.23-0.24s-0.52-0.23-0.64-0.4
			c-0.12-0.16-0.18-0.34-0.18-0.55V209.5c0-0.95,0.25-1.67,0.75-2.15c0.5-0.48,1.15-0.72,1.97-0.72h9.29c0.93,0,1.82,0.04,2.67,0.11
			c0.84,0.07,1.85,0.22,3.03,0.46c1.18,0.23,2.37,0.67,3.58,1.29c1.21,0.63,2.24,1.43,3.09,2.39c0.85,0.96,1.5,2.09,1.95,3.38
			C512.19,215.56,512.41,217.01,512.41,218.61z M504.04,219.19c0-1.38-0.24-2.52-0.73-3.41c-0.49-0.89-1.09-1.55-1.8-1.98
			s-1.46-0.7-2.24-0.81c-0.78-0.11-1.59-0.17-2.42-0.17h-3.41v13.38h3.6c1.28,0,2.35-0.17,3.21-0.52s1.57-0.83,2.12-1.45
			c0.55-0.62,0.96-1.36,1.25-2.22C503.89,221.15,504.04,220.21,504.04,219.19z"/>
		<path class="st2" d="M546.69,243.08c0.24,0.73,0.4,1.31,0.46,1.74c0.06,0.43-0.02,0.75-0.24,0.96c-0.22,0.21-0.62,0.34-1.19,0.4
			c-0.57,0.05-1.35,0.08-2.35,0.08c-1.04,0-1.84-0.01-2.42-0.05c-0.58-0.03-1.02-0.09-1.33-0.18c-0.3-0.09-0.52-0.22-0.64-0.38
			c-0.12-0.16-0.22-0.38-0.3-0.64l-2.65-7.92h-14.81l-2.5,7.71c-0.08,0.28-0.19,0.52-0.32,0.72c-0.13,0.19-0.35,0.35-0.64,0.46
			c-0.29,0.11-0.71,0.19-1.25,0.23c-0.54,0.04-1.24,0.06-2.12,0.06c-0.93,0-1.67-0.03-2.19-0.09c-0.53-0.06-0.89-0.21-1.1-0.44
			c-0.2-0.23-0.27-0.56-0.21-0.99c0.06-0.43,0.21-1,0.46-1.71l12.16-34.98c0.12-0.34,0.26-0.62,0.43-0.84
			c0.16-0.21,0.42-0.38,0.78-0.49c0.36-0.11,0.85-0.18,1.48-0.21s1.46-0.05,2.5-0.05c1.2,0,2.15,0.02,2.86,0.05s1.26,0.1,1.66,0.21
			c0.4,0.11,0.68,0.28,0.85,0.5s0.32,0.53,0.44,0.91L546.69,243.08z M528.59,214.16h-0.03l-5.58,16.76h11.18L528.59,214.16z"/>
	</g>
</g>
</svg>
