<?xml version="1.0" encoding="utf-8"?><!--Generator: Adobe Illustrator 24.0.0, SVG Export Plug-In . SVG Version: 6.00 Build 0)--><svg version="1.1" id="Capa_1" xmlns="http://www.w3.org/2000/svg" xmlns:xlink="http://www.w3.org/1999/xlink" x="0px" y="0px" viewBox="0 0 795.13 291.13" style="enable-background:new 0 0 795.13 291.13" xml:space="preserve"><style type="text/css">.st0{fill:#C8C8C8;}
	.st1{fill:#E9ECEF;}
	.st2{fill:#585856;}</style><g><g><path class="st2" d="M126.72,131.31c0,0.51-0.01,0.94-0.04,1.29c-0.03,0.36-0.08,0.66-0.14,0.91c-0.06,0.25-0.14,0.47-0.24,0.66
			c-0.1,0.18-0.26,0.39-0.49,0.62c-0.22,0.23-0.65,0.53-1.29,0.9c-0.64,0.37-1.42,0.72-2.35,1.05c-0.92,0.33-1.98,0.61-3.17,0.84
			c-1.19,0.22-2.47,0.33-3.85,0.33c-2.7,0-5.14-0.42-7.31-1.25c-2.17-0.83-4.02-2.08-5.54-3.73c-1.52-1.66-2.69-3.72-3.5-6.2
			c-0.81-2.48-1.22-5.36-1.22-8.65c0-3.35,0.45-6.33,1.34-8.93c0.89-2.6,2.14-4.78,3.75-6.55c1.6-1.77,3.53-3.11,5.77-4.02
			s4.72-1.37,7.42-1.37c1.1,0,2.15,0.09,3.17,0.27s1.96,0.42,2.82,0.72c0.86,0.29,1.64,0.63,2.33,1.02
			c0.69,0.39,1.17,0.72,1.45,0.99c0.27,0.27,0.46,0.5,0.56,0.69c0.1,0.18,0.18,0.42,0.24,0.7c0.06,0.28,0.11,0.62,0.14,1
			c0.03,0.39,0.05,0.86,0.05,1.43c0,0.61-0.02,1.13-0.06,1.55s-0.11,0.77-0.21,1.04c-0.1,0.26-0.22,0.46-0.37,0.58
			c-0.14,0.12-0.3,0.18-0.49,0.18c-0.3,0-0.69-0.18-1.16-0.53c-0.47-0.36-1.07-0.75-1.81-1.19s-1.63-0.83-2.65-1.19
			c-1.03-0.36-2.25-0.53-3.67-0.53c-1.56,0-2.96,0.32-4.19,0.96c-1.23,0.64-2.28,1.55-3.14,2.74s-1.52,2.63-1.96,4.31
			c-0.45,1.69-0.67,3.59-0.67,5.7c0,2.32,0.24,4.32,0.72,6.02c0.48,1.7,1.16,3.09,2.04,4.19c0.88,1.1,1.95,1.92,3.2,2.45
			s2.66,0.81,4.22,0.81c1.42,0,2.65-0.17,3.69-0.5s1.92-0.71,2.67-1.11c0.74-0.41,1.35-0.77,1.83-1.1c0.48-0.32,0.85-0.49,1.11-0.49
			c0.2,0,0.37,0.04,0.49,0.12s0.22,0.24,0.3,0.49c0.08,0.24,0.14,0.58,0.18,1.02C126.7,129.99,126.72,130.57,126.72,131.31z"/><path class="st2" d="M167.49,117.11c0,3.27-0.41,6.2-1.22,8.78c-0.81,2.58-2.02,4.77-3.63,6.57s-3.59,3.17-5.96,4.11
			s-5.1,1.42-8.21,1.42c-3.07,0-5.74-0.4-8.03-1.2c-2.29-0.8-4.19-2.03-5.71-3.67c-1.52-1.65-2.67-3.74-3.43-6.28
			s-1.14-5.55-1.14-9.02c0-3.19,0.41-6.06,1.22-8.61s2.02-4.72,3.63-6.5c1.6-1.79,3.59-3.16,5.96-4.11
			c2.37-0.95,5.11-1.43,8.24-1.43c2.99,0,5.62,0.4,7.91,1.19c2.29,0.79,4.19,2.01,5.73,3.66c1.53,1.65,2.69,3.72,3.47,6.23
			C167.1,110.74,167.49,113.7,167.49,117.11z M159.08,117.53c0-2.07-0.16-3.96-0.49-5.65c-0.33-1.7-0.88-3.15-1.66-4.36
			c-0.78-1.21-1.82-2.14-3.12-2.8c-1.3-0.66-2.93-0.99-4.88-0.99c-1.97,0-3.62,0.37-4.94,1.11c-1.32,0.74-2.39,1.73-3.2,2.97
			c-0.81,1.24-1.39,2.69-1.72,4.34c-0.33,1.66-0.5,3.41-0.5,5.26c0,2.15,0.16,4.09,0.49,5.8c0.33,1.72,0.87,3.18,1.65,4.4
			c0.77,1.22,1.81,2.15,3.11,2.79c1.3,0.64,2.94,0.96,4.91,0.96s3.62-0.37,4.94-1.1c1.32-0.73,2.39-1.73,3.2-2.99
			s1.39-2.73,1.72-4.4S159.08,119.42,159.08,117.53z"/><path class="st2" d="M206.73,134.47c0,0.47-0.08,0.88-0.24,1.25c-0.16,0.37-0.38,0.67-0.66,0.91c-0.27,0.24-0.6,0.42-0.97,0.53
			c-0.38,0.11-0.76,0.17-1.14,0.17h-3.41c-0.71,0-1.33-0.07-1.84-0.21c-0.52-0.14-1-0.4-1.43-0.78c-0.44-0.38-0.86-0.88-1.26-1.52
			c-0.41-0.64-0.86-1.47-1.37-2.48l-9.81-18.43c-0.57-1.1-1.15-2.28-1.74-3.55s-1.12-2.5-1.58-3.7h-0.06
			c0.08,1.46,0.14,2.92,0.18,4.37c0.04,1.45,0.06,2.95,0.06,4.49v20.63c0,0.2-0.06,0.39-0.17,0.55c-0.11,0.16-0.3,0.3-0.58,0.41
			c-0.27,0.11-0.65,0.2-1.11,0.26c-0.47,0.06-1.07,0.09-1.8,0.09c-0.71,0-1.3-0.03-1.77-0.09c-0.47-0.06-0.83-0.15-1.1-0.26
			c-0.26-0.11-0.45-0.25-0.55-0.41c-0.1-0.16-0.15-0.34-0.15-0.55v-35.43c0-0.95,0.28-1.67,0.84-2.15c0.56-0.48,1.24-0.72,2.06-0.72
			h4.3c0.77,0,1.42,0.07,1.95,0.2c0.53,0.13,1,0.35,1.42,0.66c0.42,0.3,0.81,0.73,1.17,1.26c0.37,0.54,0.74,1.2,1.13,2l7.68,14.41
			c0.45,0.87,0.89,1.73,1.33,2.58c0.44,0.84,0.86,1.69,1.26,2.53c0.41,0.84,0.8,1.67,1.19,2.48s0.76,1.63,1.13,2.44h0.03
			c-0.06-1.42-0.11-2.9-0.14-4.45s-0.05-3.02-0.05-4.42V99.04c0-0.2,0.06-0.39,0.18-0.55c0.12-0.16,0.32-0.3,0.61-0.43
			c0.28-0.12,0.66-0.21,1.13-0.26c0.47-0.05,1.07-0.08,1.8-0.08c0.69,0,1.27,0.03,1.74,0.08c0.47,0.05,0.83,0.14,1.08,0.26
			c0.25,0.12,0.43,0.26,0.53,0.43c0.1,0.16,0.15,0.35,0.15,0.55V134.47z"/><path class="st2" d="M238.69,125.46c0,2.07-0.39,3.89-1.16,5.45c-0.77,1.56-1.82,2.87-3.14,3.92c-1.32,1.05-2.86,1.83-4.63,2.36
			c-1.77,0.53-3.66,0.79-5.67,0.79c-1.36,0-2.63-0.11-3.79-0.34s-2.2-0.49-3.09-0.81c-0.89-0.32-1.64-0.64-2.24-0.99
			c-0.6-0.35-1.03-0.65-1.29-0.91s-0.45-0.64-0.56-1.14s-0.17-1.21-0.17-2.15c0-0.63,0.02-1.16,0.06-1.58
			c0.04-0.43,0.11-0.77,0.2-1.04c0.09-0.26,0.21-0.45,0.37-0.56s0.33-0.17,0.53-0.17c0.28,0,0.69,0.17,1.2,0.5
			c0.52,0.33,1.18,0.71,2,1.11s1.78,0.78,2.91,1.11c1.13,0.33,2.43,0.5,3.92,0.5c0.97,0,1.85-0.12,2.62-0.35
			c0.77-0.23,1.43-0.56,1.96-0.99c0.54-0.43,0.95-0.96,1.23-1.58c0.28-0.63,0.43-1.33,0.43-2.1c0-0.89-0.24-1.66-0.73-2.3
			s-1.12-1.21-1.9-1.71c-0.78-0.5-1.67-0.96-2.67-1.4c-1-0.44-2.02-0.9-3.08-1.39c-1.06-0.49-2.08-1.04-3.08-1.66
			c-1-0.62-1.88-1.36-2.67-2.22c-0.78-0.86-1.42-1.88-1.9-3.06s-0.73-2.59-0.73-4.24c0-1.89,0.35-3.55,1.05-4.98
			c0.7-1.43,1.65-2.62,2.83-3.56c1.19-0.95,2.59-1.65,4.2-2.12c1.62-0.47,3.33-0.7,5.13-0.7c0.93,0,1.87,0.07,2.8,0.21
			c0.93,0.14,1.81,0.33,2.62,0.58c0.81,0.24,1.53,0.52,2.16,0.82c0.63,0.3,1.05,0.56,1.25,0.76c0.2,0.2,0.34,0.38,0.41,0.52
			c0.07,0.14,0.13,0.33,0.18,0.56c0.05,0.23,0.09,0.53,0.11,0.88c0.02,0.36,0.03,0.8,0.03,1.33c0,0.59-0.02,1.09-0.05,1.49
			c-0.03,0.41-0.08,0.74-0.15,1.01c-0.07,0.26-0.17,0.46-0.3,0.58s-0.31,0.18-0.53,0.18s-0.58-0.14-1.07-0.43
			c-0.49-0.28-1.09-0.59-1.8-0.93c-0.71-0.34-1.53-0.64-2.47-0.91c-0.93-0.27-1.96-0.41-3.08-0.41c-0.87,0-1.63,0.11-2.29,0.32
			s-1.19,0.51-1.63,0.88s-0.76,0.83-0.97,1.36c-0.21,0.53-0.32,1.09-0.32,1.68c0,0.87,0.24,1.63,0.72,2.27
			c0.48,0.64,1.12,1.21,1.92,1.71c0.8,0.5,1.71,0.96,2.73,1.4s2.05,0.9,3.11,1.39c1.06,0.49,2.09,1.04,3.11,1.66
			s1.92,1.36,2.71,2.22c0.79,0.86,1.43,1.88,1.92,3.05C238.45,122.5,238.69,123.87,238.69,125.46z"/><path class="st2" d="M268.18,134.14c0,0.59-0.03,1.08-0.08,1.48c-0.05,0.4-0.13,0.72-0.23,0.96c-0.1,0.24-0.23,0.42-0.38,0.53
			c-0.15,0.11-0.32,0.17-0.5,0.17h-19.8c-0.67,0-1.23-0.2-1.69-0.59c-0.46-0.4-0.69-1.04-0.69-1.94v-34.37
			c0-0.89,0.23-1.54,0.69-1.93c0.46-0.4,1.02-0.59,1.69-0.59h19.68c0.18,0,0.35,0.05,0.49,0.15c0.14,0.1,0.26,0.28,0.37,0.53
			c0.1,0.25,0.18,0.58,0.23,0.98c0.05,0.4,0.08,0.9,0.08,1.51c0,0.57-0.03,1.05-0.08,1.45s-0.13,0.72-0.23,0.96
			c-0.1,0.24-0.22,0.42-0.37,0.53c-0.14,0.11-0.3,0.17-0.49,0.17H252.8v9.63h11.91c0.18,0,0.35,0.06,0.5,0.17s0.28,0.28,0.38,0.52
			c0.1,0.23,0.18,0.55,0.23,0.94c0.05,0.4,0.08,0.88,0.08,1.45c0,0.59-0.03,1.08-0.08,1.46s-0.13,0.7-0.23,0.93
			c-0.1,0.23-0.23,0.4-0.38,0.5c-0.15,0.1-0.32,0.15-0.5,0.15H252.8V131h14.2c0.18,0,0.35,0.06,0.5,0.17
			c0.15,0.11,0.28,0.29,0.38,0.53c0.1,0.24,0.18,0.56,0.23,0.96C268.16,133.06,268.18,133.55,268.18,134.14z"/><path class="st2" d="M287.38,126.31c0,1.79-0.17,3.4-0.5,4.83c-0.34,1.43-0.9,2.65-1.71,3.66c-0.8,1.01-1.85,1.77-3.15,2.3
			c-1.3,0.53-2.9,0.79-4.81,0.79c-0.61,0-1.21-0.05-1.81-0.14c-0.6-0.09-1.15-0.21-1.64-0.35c-0.5-0.14-0.93-0.29-1.29-0.46
			c-0.37-0.16-0.61-0.31-0.73-0.44c-0.12-0.13-0.22-0.27-0.3-0.41c-0.08-0.14-0.15-0.33-0.21-0.56c-0.06-0.23-0.1-0.52-0.12-0.87
			c-0.02-0.35-0.03-0.78-0.03-1.31c0-0.69,0.01-1.27,0.04-1.75c0.03-0.48,0.08-0.85,0.15-1.13s0.17-0.47,0.3-0.58
			c0.13-0.11,0.3-0.17,0.5-0.17c0.18,0,0.4,0.07,0.64,0.2c0.24,0.13,0.52,0.27,0.82,0.41c0.3,0.14,0.66,0.28,1.07,0.41
			c0.41,0.13,0.88,0.2,1.43,0.2s1.03-0.08,1.45-0.23c0.42-0.15,0.76-0.42,1.04-0.79c0.27-0.38,0.48-0.88,0.62-1.51
			c0.14-0.63,0.21-1.44,0.21-2.44V98.89c0-0.2,0.07-0.38,0.2-0.53c0.13-0.15,0.34-0.28,0.64-0.38c0.29-0.1,0.71-0.18,1.23-0.23
			s1.18-0.08,1.95-0.08c0.77,0,1.41,0.03,1.92,0.08c0.51,0.05,0.92,0.13,1.23,0.23c0.31,0.1,0.54,0.23,0.67,0.38
			c0.13,0.15,0.2,0.33,0.2,0.53V126.31z"/><path class="st2" d="M331.37,117.11c0,3.27-0.41,6.2-1.22,8.78c-0.81,2.58-2.02,4.77-3.63,6.57s-3.59,3.17-5.96,4.11
			s-5.1,1.42-8.21,1.42c-3.07,0-5.74-0.4-8.03-1.2c-2.29-0.8-4.19-2.03-5.71-3.67c-1.52-1.65-2.67-3.74-3.43-6.28
			s-1.14-5.55-1.14-9.02c0-3.19,0.41-6.06,1.22-8.61s2.02-4.72,3.63-6.5c1.6-1.79,3.59-3.16,5.96-4.11
			c2.37-0.95,5.11-1.43,8.24-1.43c2.99,0,5.62,0.4,7.91,1.19c2.29,0.79,4.19,2.01,5.73,3.66c1.53,1.65,2.69,3.72,3.47,6.23
			C330.98,110.74,331.37,113.7,331.37,117.11z M322.96,117.53c0-2.07-0.16-3.96-0.49-5.65c-0.33-1.7-0.88-3.15-1.66-4.36
			c-0.78-1.21-1.82-2.14-3.12-2.8c-1.3-0.66-2.93-0.99-4.88-0.99c-1.97,0-3.62,0.37-4.94,1.11c-1.32,0.74-2.39,1.73-3.2,2.97
			c-0.81,1.24-1.39,2.69-1.72,4.34c-0.33,1.66-0.5,3.41-0.5,5.26c0,2.15,0.16,4.09,0.49,5.8c0.33,1.72,0.87,3.18,1.65,4.4
			c0.77,1.22,1.81,2.15,3.11,2.79c1.3,0.64,2.94,0.96,4.91,0.96s3.62-0.37,4.94-1.1c1.32-0.73,2.39-1.73,3.2-2.99
			s1.39-2.73,1.72-4.4S322.96,119.42,322.96,117.53z"/><path class="st2" d="M381.46,136.24c0,0.22-0.04,0.41-0.12,0.56c-0.08,0.15-0.27,0.28-0.58,0.38c-0.3,0.1-0.75,0.17-1.34,0.21
			c-0.59,0.04-1.39,0.06-2.41,0.06c-0.85,0-1.53-0.02-2.04-0.06c-0.51-0.04-0.91-0.12-1.2-0.23c-0.29-0.11-0.5-0.25-0.63-0.43
			c-0.12-0.17-0.22-0.38-0.3-0.63l-3.53-8.8c-0.43-1-0.84-1.88-1.25-2.65c-0.41-0.77-0.86-1.42-1.36-1.94
			c-0.5-0.52-1.07-0.91-1.72-1.17c-0.65-0.26-1.4-0.4-2.25-0.4h-2.5v15.02c0,0.2-0.07,0.39-0.2,0.55c-0.13,0.16-0.35,0.29-0.66,0.4
			s-0.71,0.18-1.22,0.24c-0.51,0.06-1.16,0.09-1.95,0.09c-0.77,0-1.42-0.03-1.93-0.09c-0.52-0.06-0.93-0.14-1.23-0.24
			s-0.52-0.23-0.64-0.4c-0.12-0.16-0.18-0.34-0.18-0.55v-35.8c0-0.89,0.23-1.54,0.69-1.93c0.46-0.4,1.02-0.59,1.69-0.59h10.21
			c1.04,0,1.89,0.02,2.56,0.06s1.28,0.09,1.83,0.15c1.58,0.22,3.01,0.61,4.28,1.16c1.27,0.55,2.35,1.26,3.23,2.15
			c0.88,0.88,1.56,1.93,2.03,3.14c0.47,1.21,0.7,2.6,0.7,4.16c0,1.32-0.17,2.52-0.5,3.61c-0.33,1.09-0.83,2.06-1.48,2.91
			c-0.65,0.85-1.45,1.59-2.41,2.22c-0.96,0.63-2.04,1.14-3.26,1.52c0.59,0.29,1.14,0.63,1.66,1.04c0.52,0.41,1.01,0.9,1.46,1.48
			s0.89,1.24,1.29,1.98s0.8,1.58,1.19,2.51l3.32,7.77c0.3,0.77,0.51,1.34,0.61,1.69C381.41,135.76,381.46,136.04,381.46,136.24z
			 M371.13,109.49c0-1.3-0.29-2.4-0.88-3.29c-0.59-0.89-1.55-1.52-2.89-1.89c-0.41-0.1-0.87-0.18-1.39-0.24
			c-0.52-0.06-1.23-0.09-2.15-0.09h-3.6v11.18h4.08c1.14,0,2.13-0.14,2.99-0.41c0.85-0.27,1.56-0.66,2.13-1.16
			c0.57-0.5,0.99-1.09,1.28-1.78C370.99,111.12,371.13,110.34,371.13,109.49z"/><path class="st2" d="M410.71,134.14c0,0.59-0.03,1.08-0.08,1.48c-0.05,0.4-0.13,0.72-0.23,0.96c-0.1,0.24-0.23,0.42-0.38,0.53
			c-0.15,0.11-0.32,0.17-0.5,0.17h-19.8c-0.67,0-1.23-0.2-1.69-0.59c-0.46-0.4-0.69-1.04-0.69-1.94v-34.37
			c0-0.89,0.23-1.54,0.69-1.93c0.46-0.4,1.02-0.59,1.69-0.59h19.68c0.18,0,0.35,0.05,0.49,0.15c0.14,0.1,0.26,0.28,0.37,0.53
			c0.1,0.25,0.18,0.58,0.23,0.98c0.05,0.4,0.08,0.9,0.08,1.51c0,0.57-0.03,1.05-0.08,1.45s-0.13,0.72-0.23,0.96
			c-0.1,0.24-0.22,0.42-0.37,0.53c-0.14,0.11-0.3,0.17-0.49,0.17h-14.08v9.63h11.91c0.18,0,0.35,0.06,0.5,0.17s0.28,0.28,0.38,0.52
			c0.1,0.23,0.18,0.55,0.23,0.94c0.05,0.4,0.08,0.88,0.08,1.45c0,0.59-0.03,1.08-0.08,1.46s-0.13,0.7-0.23,0.93
			c-0.1,0.23-0.23,0.4-0.38,0.5c-0.15,0.1-0.32,0.15-0.5,0.15h-11.91V131h14.2c0.18,0,0.35,0.06,0.5,0.17
			c0.15,0.11,0.28,0.29,0.38,0.53c0.1,0.24,0.18,0.56,0.23,0.96C410.69,133.06,410.71,133.55,410.71,134.14z"/><path class="st2" d="M448.49,103.98c0,0.59-0.03,1.1-0.08,1.52s-0.12,0.77-0.21,1.02c-0.09,0.25-0.2,0.43-0.33,0.53
			c-0.13,0.1-0.29,0.15-0.47,0.15c-0.26,0-0.69-0.18-1.28-0.55c-0.59-0.37-1.37-0.76-2.35-1.19s-2.14-0.82-3.49-1.19
			c-1.35-0.37-2.92-0.55-4.71-0.55c-1.91,0-3.64,0.33-5.18,0.99c-1.54,0.66-2.86,1.59-3.96,2.8c-1.1,1.21-1.94,2.66-2.53,4.36
			c-0.59,1.7-0.88,3.57-0.88,5.62c0,2.25,0.3,4.24,0.9,5.96c0.6,1.72,1.44,3.15,2.51,4.31c1.08,1.16,2.37,2.03,3.88,2.62
			c1.51,0.59,3.18,0.88,5.01,0.88c0.89,0,1.78-0.1,2.65-0.3s1.69-0.51,2.44-0.91v-9.14h-7.46c-0.37,0-0.65-0.23-0.85-0.69
			c-0.2-0.46-0.3-1.23-0.3-2.33c0-0.57,0.03-1.05,0.08-1.43c0.05-0.39,0.13-0.7,0.23-0.93c0.1-0.23,0.22-0.41,0.37-0.52
			c0.14-0.11,0.3-0.17,0.49-0.17h13.31c0.33,0,0.61,0.06,0.87,0.17c0.25,0.11,0.48,0.28,0.67,0.5c0.19,0.22,0.34,0.49,0.44,0.81
			c0.1,0.31,0.15,0.67,0.15,1.08v15.69c0,0.61-0.11,1.14-0.32,1.6c-0.21,0.46-0.65,0.82-1.31,1.08c-0.66,0.26-1.48,0.54-2.45,0.82
			c-0.98,0.28-1.99,0.53-3.03,0.73c-1.05,0.2-2.1,0.36-3.17,0.46c-1.07,0.1-2.14,0.15-3.21,0.15c-3.15,0-5.97-0.45-8.46-1.36
			s-4.6-2.21-6.32-3.93c-1.73-1.72-3.05-3.81-3.96-6.28c-0.91-2.47-1.37-5.27-1.37-8.39c0-3.23,0.49-6.13,1.46-8.7
			s2.36-4.75,4.14-6.55c1.79-1.8,3.95-3.17,6.47-4.13c2.53-0.95,5.35-1.43,8.46-1.43c1.71,0,3.26,0.12,4.66,0.35
			s2.63,0.52,3.67,0.85c1.05,0.33,1.91,0.7,2.6,1.08s1.17,0.72,1.45,1c0.27,0.29,0.47,0.69,0.59,1.2
			C448.43,102.19,448.49,102.96,448.49,103.98z"/><path class="st2" d="M464.67,136.18c0,0.2-0.07,0.39-0.2,0.55c-0.13,0.16-0.35,0.29-0.66,0.4s-0.71,0.18-1.22,0.24
			c-0.51,0.06-1.16,0.09-1.95,0.09c-0.77,0-1.42-0.03-1.93-0.09c-0.52-0.06-0.93-0.14-1.23-0.24s-0.52-0.23-0.66-0.4
			c-0.13-0.16-0.2-0.34-0.2-0.55V98.95c0-0.2,0.07-0.38,0.2-0.55c0.13-0.16,0.36-0.29,0.67-0.4c0.31-0.1,0.73-0.18,1.23-0.24
			c0.51-0.06,1.15-0.09,1.92-0.09c0.79,0,1.44,0.03,1.95,0.09c0.51,0.06,0.91,0.14,1.22,0.24c0.3,0.1,0.52,0.23,0.66,0.4
			c0.13,0.16,0.2,0.35,0.2,0.55V136.18z"/><path class="st2" d="M508.73,117.11c0,3.27-0.41,6.2-1.22,8.78c-0.81,2.58-2.02,4.77-3.63,6.57s-3.59,3.17-5.96,4.11
			s-5.1,1.42-8.21,1.42c-3.07,0-5.74-0.4-8.03-1.2c-2.29-0.8-4.19-2.03-5.71-3.67c-1.52-1.65-2.67-3.74-3.43-6.28
			s-1.14-5.55-1.14-9.02c0-3.19,0.41-6.06,1.22-8.61s2.02-4.72,3.63-6.5c1.6-1.79,3.59-3.16,5.96-4.11
			c2.37-0.95,5.11-1.43,8.24-1.43c2.99,0,5.62,0.4,7.91,1.19c2.29,0.79,4.19,2.01,5.73,3.66c1.53,1.65,2.69,3.72,3.47,6.23
			C508.34,110.74,508.73,113.7,508.73,117.11z M500.32,117.53c0-2.07-0.16-3.96-0.49-5.65c-0.33-1.7-0.88-3.15-1.66-4.36
			c-0.78-1.21-1.82-2.14-3.12-2.8c-1.3-0.66-2.93-0.99-4.88-0.99c-1.97,0-3.62,0.37-4.94,1.11c-1.32,0.74-2.39,1.73-3.2,2.97
			c-0.81,1.24-1.39,2.69-1.72,4.34c-0.33,1.66-0.5,3.41-0.5,5.26c0,2.15,0.16,4.09,0.49,5.8c0.33,1.72,0.87,3.18,1.65,4.4
			c0.77,1.22,1.81,2.15,3.11,2.79c1.3,0.64,2.94,0.96,4.91,0.96s3.62-0.37,4.94-1.1c1.32-0.73,2.39-1.73,3.2-2.99
			s1.39-2.73,1.72-4.4S500.32,119.42,500.32,117.53z"/><path class="st2" d="M547.97,134.47c0,0.47-0.08,0.88-0.24,1.25c-0.16,0.37-0.38,0.67-0.66,0.91c-0.27,0.24-0.6,0.42-0.97,0.53
			c-0.38,0.11-0.76,0.17-1.14,0.17h-3.41c-0.71,0-1.33-0.07-1.84-0.21c-0.52-0.14-1-0.4-1.43-0.78c-0.44-0.38-0.86-0.88-1.26-1.52
			c-0.41-0.64-0.86-1.47-1.37-2.48l-9.81-18.43c-0.57-1.1-1.15-2.28-1.74-3.55s-1.12-2.5-1.58-3.7h-0.06
			c0.08,1.46,0.14,2.92,0.18,4.37c0.04,1.45,0.06,2.95,0.06,4.49v20.63c0,0.2-0.06,0.39-0.17,0.55c-0.11,0.16-0.3,0.3-0.58,0.41
			c-0.27,0.11-0.65,0.2-1.11,0.26c-0.47,0.06-1.07,0.09-1.8,0.09c-0.71,0-1.3-0.03-1.77-0.09c-0.47-0.06-0.83-0.15-1.1-0.26
			c-0.26-0.11-0.45-0.25-0.55-0.41c-0.1-0.16-0.15-0.34-0.15-0.55v-35.43c0-0.95,0.28-1.67,0.84-2.15c0.56-0.48,1.24-0.72,2.06-0.72
			h4.3c0.77,0,1.42,0.07,1.95,0.2c0.53,0.13,1,0.35,1.42,0.66c0.42,0.3,0.81,0.73,1.17,1.26c0.37,0.54,0.74,1.2,1.13,2l7.68,14.41
			c0.45,0.87,0.89,1.73,1.33,2.58c0.44,0.84,0.86,1.69,1.26,2.53c0.41,0.84,0.8,1.67,1.19,2.48s0.76,1.63,1.13,2.44h0.03
			c-0.06-1.42-0.11-2.9-0.14-4.45s-0.05-3.02-0.05-4.42V99.04c0-0.2,0.06-0.39,0.18-0.55c0.12-0.16,0.32-0.3,0.61-0.43
			c0.28-0.12,0.66-0.21,1.13-0.26c0.47-0.05,1.07-0.08,1.8-0.08c0.69,0,1.27,0.03,1.74,0.08c0.47,0.05,0.83,0.14,1.08,0.26
			c0.25,0.12,0.43,0.26,0.53,0.43c0.1,0.16,0.15,0.35,0.15,0.55V134.47z"/><path class="st2" d="M588.86,134.29c0.24,0.73,0.4,1.31,0.46,1.74c0.06,0.43-0.02,0.75-0.24,0.96c-0.22,0.21-0.62,0.34-1.19,0.4
			c-0.57,0.05-1.35,0.08-2.35,0.08c-1.04,0-1.84-0.01-2.42-0.05c-0.58-0.03-1.02-0.09-1.33-0.18c-0.3-0.09-0.52-0.22-0.64-0.38
			c-0.12-0.16-0.22-0.38-0.3-0.64l-2.65-7.92h-14.81l-2.5,7.71c-0.08,0.28-0.19,0.52-0.32,0.72c-0.13,0.19-0.35,0.35-0.64,0.46
			c-0.29,0.11-0.71,0.19-1.25,0.23c-0.54,0.04-1.24,0.06-2.12,0.06c-0.93,0-1.67-0.03-2.19-0.09c-0.53-0.06-0.89-0.21-1.1-0.44
			c-0.2-0.23-0.27-0.56-0.21-0.99c0.06-0.43,0.21-1,0.46-1.71l12.16-34.98c0.12-0.34,0.26-0.62,0.43-0.84
			c0.16-0.21,0.42-0.38,0.78-0.49c0.36-0.11,0.85-0.18,1.48-0.21s1.46-0.05,2.5-0.05c1.2,0,2.15,0.02,2.86,0.05s1.26,0.1,1.66,0.21
			c0.4,0.11,0.68,0.28,0.85,0.5s0.32,0.53,0.44,0.91L588.86,134.29z M570.76,105.38h-0.03l-5.58,16.76h11.18L570.76,105.38z"/><path class="st2" d="M616.04,133.93c0,0.61-0.03,1.12-0.08,1.54c-0.05,0.42-0.13,0.76-0.23,1.04c-0.1,0.27-0.23,0.47-0.38,0.59
			s-0.33,0.18-0.53,0.18h-18.07c-0.67,0-1.23-0.2-1.69-0.59c-0.46-0.4-0.69-1.04-0.69-1.94v-35.8c0-0.2,0.07-0.38,0.2-0.55
			c0.13-0.16,0.35-0.29,0.66-0.4c0.3-0.1,0.72-0.18,1.23-0.24c0.52-0.06,1.16-0.09,1.93-0.09c0.79,0,1.44,0.03,1.95,0.09
			c0.51,0.06,0.91,0.14,1.22,0.24c0.3,0.1,0.52,0.23,0.66,0.4c0.13,0.16,0.2,0.35,0.2,0.55v31.72h12.4c0.2,0,0.38,0.06,0.53,0.17
			c0.15,0.11,0.28,0.29,0.38,0.55c0.1,0.25,0.18,0.59,0.23,1.01C616.01,132.8,616.04,133.32,616.04,133.93z"/><path class="st2" d="M667.62,116.99c0,3.62-0.47,6.71-1.42,9.28c-0.94,2.57-2.3,4.67-4.07,6.29c-1.77,1.63-3.92,2.82-6.44,3.58
			c-2.53,0.76-5.54,1.14-9.03,1.14h-9.41c-0.67,0-1.23-0.2-1.69-0.59c-0.46-0.4-0.69-1.04-0.69-1.94v-34.37
			c0-0.89,0.23-1.54,0.69-1.93c0.46-0.4,1.02-0.59,1.69-0.59h10.12c3.51,0,6.49,0.41,8.94,1.23c2.45,0.82,4.51,2.04,6.18,3.66
			c1.68,1.61,2.95,3.61,3.82,5.99C667.18,111.11,667.62,113.86,667.62,116.99z M659.33,117.26c0-1.87-0.22-3.61-0.66-5.21
			s-1.14-3-2.1-4.17c-0.97-1.18-2.21-2.1-3.72-2.76c-1.51-0.66-3.5-0.99-5.96-0.99h-4.05v26.81h4.17c2.19,0,4.04-0.28,5.54-0.85
			c1.5-0.57,2.76-1.43,3.76-2.57c1-1.15,1.76-2.58,2.25-4.28C659.08,121.53,659.33,119.54,659.33,117.26z"/><path class="st2" d="M697.57,134.14c0,0.59-0.03,1.08-0.08,1.48c-0.05,0.4-0.13,0.72-0.23,0.96c-0.1,0.24-0.23,0.42-0.38,0.53
			c-0.15,0.11-0.32,0.17-0.5,0.17h-19.8c-0.67,0-1.23-0.2-1.69-0.59c-0.46-0.4-0.69-1.04-0.69-1.94v-34.37
			c0-0.89,0.23-1.54,0.69-1.93c0.46-0.4,1.02-0.59,1.69-0.59h19.68c0.18,0,0.35,0.05,0.49,0.15c0.14,0.1,0.26,0.28,0.37,0.53
			c0.1,0.25,0.18,0.58,0.23,0.98c0.05,0.4,0.08,0.9,0.08,1.51c0,0.57-0.03,1.05-0.08,1.45s-0.13,0.72-0.23,0.96
			c-0.1,0.24-0.22,0.42-0.37,0.53c-0.14,0.11-0.3,0.17-0.49,0.17h-14.08v9.63h11.91c0.18,0,0.35,0.06,0.5,0.17s0.28,0.28,0.38,0.52
			c0.1,0.23,0.18,0.55,0.23,0.94c0.05,0.4,0.08,0.88,0.08,1.45c0,0.59-0.03,1.08-0.08,1.46s-0.13,0.7-0.23,0.93
			c-0.1,0.23-0.23,0.4-0.38,0.5c-0.15,0.1-0.32,0.15-0.5,0.15h-11.91V131h14.2c0.18,0,0.35,0.06,0.5,0.17
			c0.15,0.11,0.28,0.29,0.38,0.53c0.1,0.24,0.18,0.56,0.23,0.96C697.54,133.06,697.57,133.55,697.57,134.14z"/><path class="st2" d="M138.95,181.46c0,2.07-0.39,3.89-1.16,5.45c-0.77,1.56-1.82,2.87-3.14,3.92c-1.32,1.05-2.86,1.83-4.63,2.36
			c-1.77,0.53-3.66,0.79-5.67,0.79c-1.36,0-2.63-0.11-3.79-0.34s-2.2-0.49-3.09-0.81c-0.89-0.32-1.64-0.64-2.24-0.99
			c-0.6-0.35-1.03-0.65-1.29-0.91s-0.45-0.64-0.56-1.14s-0.17-1.21-0.17-2.15c0-0.63,0.02-1.16,0.06-1.58
			c0.04-0.43,0.11-0.77,0.2-1.04c0.09-0.26,0.21-0.45,0.37-0.56s0.33-0.17,0.53-0.17c0.28,0,0.69,0.17,1.2,0.5
			c0.52,0.33,1.18,0.71,2,1.11s1.78,0.78,2.91,1.11c1.13,0.33,2.43,0.5,3.92,0.5c0.97,0,1.85-0.12,2.62-0.35
			c0.77-0.23,1.43-0.56,1.96-0.99c0.54-0.43,0.95-0.96,1.23-1.58c0.28-0.63,0.43-1.33,0.43-2.1c0-0.89-0.24-1.66-0.73-2.3
			s-1.12-1.21-1.9-1.71c-0.78-0.5-1.67-0.96-2.67-1.4c-1-0.44-2.02-0.9-3.08-1.39c-1.06-0.49-2.08-1.04-3.08-1.66
			c-1-0.62-1.88-1.36-2.67-2.22c-0.78-0.86-1.42-1.88-1.9-3.06s-0.73-2.59-0.73-4.24c0-1.89,0.35-3.55,1.05-4.98
			c0.7-1.43,1.65-2.62,2.83-3.56c1.19-0.95,2.59-1.65,4.2-2.12c1.62-0.47,3.33-0.7,5.13-0.7c0.93,0,1.87,0.07,2.8,0.21
			c0.93,0.14,1.81,0.33,2.62,0.58c0.81,0.24,1.53,0.52,2.16,0.82c0.63,0.3,1.05,0.56,1.25,0.76c0.2,0.2,0.34,0.38,0.41,0.52
			c0.07,0.14,0.13,0.33,0.18,0.56c0.05,0.23,0.09,0.53,0.11,0.88c0.02,0.36,0.03,0.8,0.03,1.33c0,0.59-0.02,1.09-0.05,1.49
			c-0.03,0.41-0.08,0.74-0.15,1.01c-0.07,0.26-0.17,0.46-0.3,0.58s-0.31,0.18-0.53,0.18s-0.58-0.14-1.07-0.43
			c-0.49-0.28-1.09-0.59-1.8-0.93c-0.71-0.34-1.53-0.64-2.47-0.91c-0.93-0.27-1.96-0.41-3.08-0.41c-0.87,0-1.63,0.11-2.29,0.32
			s-1.19,0.51-1.63,0.88s-0.76,0.83-0.97,1.36c-0.21,0.53-0.32,1.09-0.32,1.68c0,0.87,0.24,1.63,0.72,2.27
			c0.48,0.64,1.12,1.21,1.92,1.71c0.8,0.5,1.71,0.96,2.73,1.4s2.05,0.9,3.11,1.39c1.06,0.49,2.09,1.04,3.11,1.66
			s1.92,1.36,2.71,2.22c0.79,0.86,1.43,1.88,1.92,3.05C138.71,178.5,138.95,179.87,138.95,181.46z"/><path class="st2" d="M168.45,190.14c0,0.59-0.03,1.08-0.08,1.48c-0.05,0.4-0.13,0.72-0.23,0.96c-0.1,0.24-0.23,0.42-0.38,0.53
			c-0.15,0.11-0.32,0.17-0.5,0.17h-19.8c-0.67,0-1.23-0.2-1.69-0.59c-0.46-0.4-0.69-1.04-0.69-1.94v-34.37
			c0-0.89,0.23-1.54,0.69-1.93c0.46-0.4,1.02-0.59,1.69-0.59h19.68c0.18,0,0.35,0.05,0.49,0.15c0.14,0.1,0.26,0.28,0.37,0.53
			c0.1,0.25,0.18,0.58,0.23,0.98c0.05,0.4,0.08,0.9,0.08,1.51c0,0.57-0.03,1.05-0.08,1.45s-0.13,0.72-0.23,0.96
			c-0.1,0.24-0.22,0.42-0.37,0.53c-0.14,0.11-0.3,0.17-0.49,0.17h-14.08v9.63h11.91c0.18,0,0.35,0.06,0.5,0.17s0.28,0.28,0.38,0.52
			c0.1,0.23,0.18,0.55,0.23,0.94c0.05,0.4,0.08,0.88,0.08,1.45c0,0.59-0.03,1.08-0.08,1.46s-0.13,0.7-0.23,0.93
			c-0.1,0.23-0.23,0.4-0.38,0.5c-0.15,0.1-0.32,0.15-0.5,0.15h-11.91V187h14.2c0.18,0,0.35,0.06,0.5,0.17
			c0.15,0.11,0.28,0.29,0.38,0.53c0.1,0.24,0.18,0.56,0.23,0.96C168.42,189.06,168.45,189.55,168.45,190.14z"/><path class="st2" d="M206.23,159.98c0,0.59-0.03,1.1-0.08,1.52s-0.12,0.77-0.21,1.02c-0.09,0.25-0.2,0.43-0.33,0.53
			c-0.13,0.1-0.29,0.15-0.47,0.15c-0.26,0-0.69-0.18-1.28-0.55c-0.59-0.37-1.37-0.76-2.35-1.19s-2.14-0.82-3.49-1.19
			c-1.35-0.37-2.92-0.55-4.71-0.55c-1.91,0-3.64,0.33-5.18,0.99c-1.54,0.66-2.86,1.59-3.96,2.8c-1.1,1.21-1.94,2.66-2.53,4.36
			c-0.59,1.7-0.88,3.57-0.88,5.62c0,2.25,0.3,4.24,0.9,5.96c0.6,1.72,1.44,3.15,2.51,4.31c1.08,1.16,2.37,2.03,3.88,2.62
			c1.51,0.59,3.18,0.88,5.01,0.88c0.89,0,1.78-0.1,2.65-0.3s1.69-0.51,2.44-0.91v-9.14h-7.46c-0.37,0-0.65-0.23-0.85-0.69
			c-0.2-0.46-0.3-1.23-0.3-2.33c0-0.57,0.03-1.05,0.08-1.43c0.05-0.39,0.13-0.7,0.23-0.93c0.1-0.23,0.22-0.41,0.37-0.52
			c0.14-0.11,0.3-0.17,0.49-0.17H204c0.33,0,0.61,0.06,0.87,0.17c0.25,0.11,0.48,0.28,0.67,0.5c0.19,0.22,0.34,0.49,0.44,0.81
			c0.1,0.31,0.15,0.67,0.15,1.08v15.69c0,0.61-0.11,1.14-0.32,1.6c-0.21,0.46-0.65,0.82-1.31,1.08c-0.66,0.26-1.48,0.54-2.45,0.82
			c-0.98,0.28-1.99,0.53-3.03,0.73c-1.05,0.2-2.1,0.36-3.17,0.46c-1.07,0.1-2.14,0.15-3.21,0.15c-3.15,0-5.97-0.45-8.46-1.36
			s-4.6-2.21-6.32-3.93c-1.73-1.72-3.05-3.81-3.96-6.28c-0.91-2.47-1.37-5.27-1.37-8.39c0-3.23,0.49-6.13,1.46-8.7
			s2.36-4.75,4.14-6.55c1.79-1.8,3.95-3.17,6.47-4.13c2.53-0.95,5.35-1.43,8.46-1.43c1.71,0,3.26,0.12,4.66,0.35
			s2.63,0.52,3.67,0.85c1.05,0.33,1.91,0.7,2.6,1.08s1.17,0.72,1.45,1c0.27,0.29,0.47,0.69,0.59,1.2
			C206.17,158.19,206.23,158.96,206.23,159.98z"/><path class="st2" d="M246.54,178.59c0,2.42-0.36,4.58-1.07,6.49c-0.71,1.91-1.76,3.52-3.14,4.84c-1.38,1.32-3.09,2.33-5.12,3.02
			s-4.37,1.04-7.01,1.04c-2.48,0-4.7-0.31-6.67-0.93c-1.97-0.62-3.64-1.56-5-2.82c-1.36-1.26-2.4-2.83-3.12-4.71
			c-0.72-1.88-1.08-4.08-1.08-6.6v-23.98c0-0.2,0.06-0.38,0.18-0.55c0.12-0.16,0.34-0.29,0.66-0.4c0.31-0.1,0.73-0.18,1.23-0.24
			c0.51-0.06,1.16-0.09,1.95-0.09c0.77,0,1.41,0.03,1.92,0.09c0.51,0.06,0.91,0.14,1.22,0.24c0.3,0.1,0.52,0.23,0.65,0.4
			c0.13,0.16,0.2,0.35,0.2,0.55v23.28c0,1.56,0.19,2.92,0.58,4.07s0.94,2.1,1.66,2.85c0.72,0.75,1.58,1.32,2.59,1.69
			c1.01,0.38,2.13,0.56,3.37,0.56c1.26,0,2.39-0.19,3.38-0.58s1.84-0.95,2.53-1.69c0.69-0.74,1.22-1.66,1.6-2.74
			c0.38-1.09,0.56-2.32,0.56-3.7v-23.74c0-0.2,0.06-0.38,0.18-0.55c0.12-0.16,0.33-0.29,0.64-0.4c0.3-0.1,0.72-0.18,1.23-0.24
			c0.52-0.06,1.16-0.09,1.93-0.09c0.77,0,1.41,0.03,1.9,0.09c0.5,0.06,0.9,0.14,1.2,0.24c0.3,0.1,0.52,0.23,0.64,0.4
			c0.12,0.16,0.18,0.35,0.18,0.55V178.59z"/><path class="st2" d="M284.35,192.24c0,0.22-0.04,0.41-0.12,0.56c-0.08,0.15-0.27,0.28-0.58,0.38c-0.3,0.1-0.75,0.17-1.34,0.21
			c-0.59,0.04-1.39,0.06-2.41,0.06c-0.85,0-1.53-0.02-2.04-0.06c-0.51-0.04-0.91-0.12-1.2-0.23c-0.29-0.11-0.5-0.25-0.63-0.43
			c-0.12-0.17-0.22-0.38-0.3-0.63l-3.53-8.8c-0.43-1-0.84-1.88-1.25-2.65c-0.41-0.77-0.86-1.42-1.36-1.94
			c-0.5-0.52-1.07-0.91-1.72-1.17c-0.65-0.26-1.4-0.4-2.25-0.4h-2.5v15.02c0,0.2-0.07,0.39-0.2,0.55c-0.13,0.16-0.35,0.29-0.66,0.4
			s-0.71,0.18-1.22,0.24c-0.51,0.06-1.16,0.09-1.95,0.09c-0.77,0-1.42-0.03-1.93-0.09c-0.52-0.06-0.93-0.14-1.23-0.24
			s-0.52-0.23-0.64-0.4c-0.12-0.16-0.18-0.34-0.18-0.55v-35.8c0-0.89,0.23-1.54,0.69-1.93c0.46-0.4,1.02-0.59,1.69-0.59h10.21
			c1.04,0,1.89,0.02,2.56,0.06s1.28,0.09,1.83,0.15c1.58,0.22,3.01,0.61,4.28,1.16c1.27,0.55,2.35,1.26,3.23,2.15
			c0.88,0.88,1.56,1.93,2.03,3.14c0.47,1.21,0.7,2.6,0.7,4.16c0,1.32-0.17,2.52-0.5,3.61c-0.33,1.09-0.83,2.06-1.48,2.91
			c-0.65,0.85-1.45,1.59-2.41,2.22c-0.96,0.63-2.04,1.14-3.26,1.52c0.59,0.29,1.14,0.63,1.66,1.04c0.52,0.41,1.01,0.9,1.46,1.48
			s0.89,1.24,1.29,1.98s0.8,1.58,1.19,2.51l3.32,7.77c0.3,0.77,0.51,1.34,0.61,1.69C284.3,191.76,284.35,192.04,284.35,192.24z
			 M274.02,165.49c0-1.3-0.29-2.4-0.88-3.29c-0.59-0.89-1.55-1.52-2.89-1.89c-0.41-0.1-0.87-0.18-1.39-0.24
			c-0.52-0.06-1.23-0.09-2.15-0.09h-3.6v11.18h4.08c1.14,0,2.13-0.14,2.99-0.41c0.85-0.27,1.56-0.66,2.13-1.16
			c0.57-0.5,0.99-1.09,1.28-1.78C273.88,167.12,274.02,166.34,274.02,165.49z"/><path class="st2" d="M298.27,192.18c0,0.2-0.07,0.39-0.2,0.55c-0.13,0.16-0.35,0.29-0.66,0.4s-0.71,0.18-1.22,0.24
			c-0.51,0.06-1.16,0.09-1.95,0.09c-0.77,0-1.42-0.03-1.93-0.09c-0.52-0.06-0.93-0.14-1.23-0.24s-0.52-0.23-0.66-0.4
			c-0.13-0.16-0.2-0.34-0.2-0.55v-37.23c0-0.2,0.07-0.38,0.2-0.55c0.13-0.16,0.36-0.29,0.67-0.4c0.31-0.1,0.73-0.18,1.23-0.24
			c0.51-0.06,1.15-0.09,1.92-0.09c0.79,0,1.44,0.03,1.95,0.09c0.51,0.06,0.91,0.14,1.22,0.24c0.3,0.1,0.52,0.23,0.66,0.4
			c0.13,0.16,0.2,0.35,0.2,0.55V192.18z"/><path class="st2" d="M339.61,172.99c0,3.62-0.47,6.71-1.42,9.28c-0.94,2.57-2.3,4.67-4.07,6.29c-1.77,1.63-3.92,2.82-6.44,3.58
			c-2.53,0.76-5.54,1.14-9.03,1.14h-9.41c-0.67,0-1.23-0.2-1.69-0.59c-0.46-0.4-0.69-1.04-0.69-1.94v-34.37
			c0-0.89,0.23-1.54,0.69-1.93c0.46-0.4,1.02-0.59,1.69-0.59h10.12c3.51,0,6.49,0.41,8.94,1.23c2.45,0.82,4.51,2.04,6.18,3.66
			c1.68,1.61,2.95,3.61,3.82,5.99C339.18,167.11,339.61,169.86,339.61,172.99z M331.33,173.26c0-1.87-0.22-3.61-0.66-5.21
			s-1.14-3-2.1-4.17c-0.97-1.18-2.21-2.1-3.72-2.76c-1.51-0.66-3.5-0.99-5.96-0.99h-4.05v26.81h4.17c2.19,0,4.04-0.28,5.54-0.85
			c1.5-0.57,2.76-1.43,3.76-2.57c1-1.15,1.76-2.58,2.25-4.28C331.08,177.53,331.33,175.54,331.33,173.26z"/><path class="st2" d="M377.03,190.29c0.24,0.73,0.4,1.31,0.46,1.74c0.06,0.43-0.02,0.75-0.24,0.96c-0.22,0.21-0.62,0.34-1.19,0.4
			c-0.57,0.05-1.35,0.08-2.35,0.08c-1.04,0-1.84-0.01-2.42-0.05c-0.58-0.03-1.02-0.09-1.33-0.18c-0.3-0.09-0.52-0.22-0.64-0.38
			c-0.12-0.16-0.22-0.38-0.3-0.64l-2.65-7.92h-14.81l-2.5,7.71c-0.08,0.28-0.19,0.52-0.32,0.72c-0.13,0.19-0.35,0.35-0.64,0.46
			c-0.29,0.11-0.71,0.19-1.25,0.23c-0.54,0.04-1.24,0.06-2.12,0.06c-0.93,0-1.67-0.03-2.19-0.09c-0.53-0.06-0.89-0.21-1.1-0.44
			c-0.2-0.23-0.27-0.56-0.21-0.99c0.06-0.43,0.21-1,0.46-1.71l12.16-34.98c0.12-0.34,0.26-0.62,0.43-0.84
			c0.16-0.21,0.42-0.38,0.78-0.49c0.36-0.11,0.85-0.18,1.48-0.21s1.46-0.05,2.5-0.05c1.2,0,2.15,0.02,2.86,0.05s1.26,0.1,1.66,0.21
			c0.4,0.11,0.68,0.28,0.85,0.5s0.32,0.53,0.44,0.91L377.03,190.29z M358.93,161.38h-0.03l-5.58,16.76h11.18L358.93,161.38z"/><path class="st2" d="M415.3,172.99c0,3.62-0.47,6.71-1.42,9.28c-0.94,2.57-2.3,4.67-4.07,6.29c-1.77,1.63-3.92,2.82-6.44,3.58
			c-2.53,0.76-5.54,1.14-9.03,1.14h-9.41c-0.67,0-1.23-0.2-1.69-0.59c-0.46-0.4-0.69-1.04-0.69-1.94v-34.37
			c0-0.89,0.23-1.54,0.69-1.93c0.46-0.4,1.02-0.59,1.69-0.59h10.12c3.51,0,6.49,0.41,8.94,1.23c2.45,0.82,4.51,2.04,6.18,3.66
			c1.68,1.61,2.95,3.61,3.82,5.99C414.86,167.11,415.3,169.86,415.3,172.99z M407.01,173.26c0-1.87-0.22-3.61-0.66-5.21
			s-1.14-3-2.1-4.17c-0.97-1.18-2.21-2.1-3.72-2.76c-1.51-0.66-3.5-0.99-5.96-0.99h-4.05v26.81h4.17c2.19,0,4.04-0.28,5.54-0.85
			c1.5-0.57,2.76-1.43,3.76-2.57c1-1.15,1.76-2.58,2.25-4.28C406.76,177.53,407.01,175.54,407.01,173.26z"/><path class="st2" d="M455.61,191.88c-0.1,0.35-0.23,0.62-0.4,0.84c-0.16,0.21-0.43,0.38-0.79,0.49c-0.37,0.11-0.86,0.18-1.49,0.21
			c-0.63,0.03-1.45,0.05-2.47,0.05c-0.81,0-1.51,0-2.09-0.01c-0.58-0.01-1.07-0.04-1.48-0.08c-0.41-0.04-0.74-0.1-0.99-0.18
			c-0.25-0.08-0.47-0.18-0.64-0.3c-0.17-0.12-0.3-0.27-0.4-0.44c-0.09-0.17-0.18-0.39-0.26-0.66l-11.73-34.95
			c-0.24-0.73-0.39-1.31-0.44-1.74c-0.05-0.43,0.05-0.75,0.3-0.96c0.25-0.21,0.69-0.35,1.29-0.4s1.46-0.08,2.56-0.08
			c0.93,0,1.67,0.02,2.19,0.06c0.53,0.04,0.93,0.11,1.22,0.21s0.48,0.25,0.59,0.46c0.11,0.2,0.22,0.46,0.32,0.76l9.6,30.41h0.03
			l9.42-30.25c0.08-0.35,0.18-0.63,0.3-0.84c0.12-0.21,0.33-0.38,0.62-0.5c0.29-0.12,0.72-0.2,1.26-0.24
			c0.55-0.04,1.3-0.06,2.25-0.06c0.93,0,1.66,0.03,2.18,0.09c0.52,0.06,0.87,0.21,1.07,0.44c0.19,0.23,0.25,0.56,0.18,0.99
			c-0.07,0.43-0.23,1-0.47,1.71L455.61,191.88z"/><path class="st2" d="M480.93,192.18c0,0.2-0.07,0.39-0.2,0.55c-0.13,0.16-0.35,0.29-0.66,0.4s-0.71,0.18-1.22,0.24
			c-0.51,0.06-1.16,0.09-1.95,0.09c-0.77,0-1.42-0.03-1.93-0.09c-0.52-0.06-0.93-0.14-1.23-0.24s-0.52-0.23-0.66-0.4
			c-0.13-0.16-0.2-0.34-0.2-0.55v-37.23c0-0.2,0.07-0.38,0.2-0.55c0.13-0.16,0.36-0.29,0.67-0.4c0.31-0.1,0.73-0.18,1.23-0.24
			c0.51-0.06,1.15-0.09,1.92-0.09c0.79,0,1.44,0.03,1.95,0.09c0.51,0.06,0.91,0.14,1.22,0.24c0.3,0.1,0.52,0.23,0.66,0.4
			c0.13,0.16,0.2,0.35,0.2,0.55V192.18z"/><path class="st2" d="M521.81,190.29c0.24,0.73,0.4,1.31,0.46,1.74c0.06,0.43-0.02,0.75-0.24,0.96c-0.22,0.21-0.62,0.34-1.19,0.4
			c-0.57,0.05-1.35,0.08-2.35,0.08c-1.04,0-1.84-0.01-2.42-0.05c-0.58-0.03-1.02-0.09-1.33-0.18c-0.3-0.09-0.52-0.22-0.64-0.38
			c-0.12-0.16-0.22-0.38-0.3-0.64l-2.65-7.92h-14.81l-2.5,7.71c-0.08,0.28-0.19,0.52-0.32,0.72c-0.13,0.19-0.35,0.35-0.64,0.46
			c-0.29,0.11-0.71,0.19-1.25,0.23c-0.54,0.04-1.24,0.06-2.12,0.06c-0.93,0-1.67-0.03-2.19-0.09c-0.53-0.06-0.89-0.21-1.1-0.44
			c-0.2-0.23-0.27-0.56-0.21-0.99c0.06-0.43,0.21-1,0.46-1.71l12.16-34.98c0.12-0.34,0.26-0.62,0.43-0.84
			c0.16-0.21,0.42-0.38,0.78-0.49c0.36-0.11,0.85-0.18,1.48-0.21s1.46-0.05,2.5-0.05c1.2,0,2.15,0.02,2.86,0.05s1.26,0.1,1.66,0.21
			c0.4,0.11,0.68,0.28,0.85,0.5s0.32,0.53,0.44,0.91L521.81,190.29z M503.72,161.38h-0.03l-5.58,16.76h11.18L503.72,161.38z"/><path class="st2" d="M548.99,189.93c0,0.61-0.03,1.12-0.08,1.54c-0.05,0.42-0.13,0.76-0.23,1.04c-0.1,0.27-0.23,0.47-0.38,0.59
			s-0.33,0.18-0.53,0.18h-18.07c-0.67,0-1.23-0.2-1.69-0.59c-0.46-0.4-0.69-1.04-0.69-1.94v-35.8c0-0.2,0.07-0.38,0.2-0.55
			c0.13-0.16,0.35-0.29,0.66-0.4c0.3-0.1,0.72-0.18,1.23-0.24c0.52-0.06,1.16-0.09,1.93-0.09c0.79,0,1.44,0.03,1.95,0.09
			c0.51,0.06,0.91,0.14,1.22,0.24c0.3,0.1,0.52,0.23,0.66,0.4c0.13,0.16,0.2,0.35,0.2,0.55v31.72h12.4c0.2,0,0.38,0.06,0.53,0.17
			c0.15,0.11,0.28,0.29,0.38,0.55c0.1,0.25,0.18,0.59,0.23,1.01C548.97,188.8,548.99,189.32,548.99,189.93z"/><path class="st2" d="M580.83,177.95c0,1.18-0.11,2-0.33,2.47c-0.22,0.47-0.58,0.7-1.07,0.7h-12.67c-0.51,0-0.87-0.24-1.1-0.72
			c-0.22-0.48-0.33-1.29-0.33-2.45c0-1.14,0.11-1.94,0.33-2.41c0.22-0.47,0.59-0.7,1.1-0.7h12.67c0.24,0,0.45,0.05,0.63,0.15
			c0.17,0.1,0.32,0.27,0.44,0.52c0.12,0.24,0.21,0.57,0.26,0.97C580.8,176.9,580.83,177.38,580.83,177.95z"/><path class="st2" d="M609.07,192.18c0,0.2-0.07,0.39-0.2,0.55c-0.13,0.16-0.35,0.29-0.66,0.4s-0.71,0.18-1.22,0.24
			c-0.51,0.06-1.16,0.09-1.95,0.09c-0.77,0-1.42-0.03-1.93-0.09c-0.52-0.06-0.93-0.14-1.23-0.24s-0.52-0.23-0.66-0.4
			c-0.13-0.16-0.2-0.34-0.2-0.55v-37.23c0-0.2,0.07-0.38,0.2-0.55c0.13-0.16,0.36-0.29,0.67-0.4c0.31-0.1,0.73-0.18,1.23-0.24
			c0.51-0.06,1.15-0.09,1.92-0.09c0.79,0,1.44,0.03,1.95,0.09c0.51,0.06,0.91,0.14,1.22,0.24c0.3,0.1,0.52,0.23,0.66,0.4
			c0.13,0.16,0.2,0.35,0.2,0.55V192.18z"/><path class="st2" d="M644.93,187.31c0,0.51-0.01,0.94-0.04,1.29c-0.03,0.36-0.08,0.66-0.14,0.91c-0.06,0.25-0.14,0.47-0.24,0.66
			c-0.1,0.18-0.26,0.39-0.49,0.62c-0.22,0.23-0.65,0.53-1.29,0.9c-0.64,0.37-1.42,0.72-2.35,1.05c-0.92,0.33-1.98,0.61-3.17,0.84
			c-1.19,0.22-2.47,0.33-3.85,0.33c-2.7,0-5.14-0.42-7.31-1.25c-2.17-0.83-4.02-2.08-5.54-3.73c-1.52-1.66-2.69-3.72-3.5-6.2
			c-0.81-2.48-1.22-5.36-1.22-8.65c0-3.35,0.45-6.33,1.34-8.93c0.89-2.6,2.14-4.78,3.75-6.55c1.6-1.77,3.53-3.11,5.77-4.02
			s4.72-1.37,7.42-1.37c1.1,0,2.15,0.09,3.17,0.27s1.96,0.42,2.82,0.72c0.86,0.29,1.64,0.63,2.33,1.02
			c0.69,0.39,1.17,0.72,1.45,0.99c0.27,0.27,0.46,0.5,0.56,0.69c0.1,0.18,0.18,0.42,0.24,0.7c0.06,0.28,0.11,0.62,0.14,1
			c0.03,0.39,0.05,0.86,0.05,1.43c0,0.61-0.02,1.13-0.06,1.55s-0.11,0.77-0.21,1.04c-0.1,0.26-0.22,0.46-0.37,0.58
			c-0.14,0.12-0.3,0.18-0.49,0.18c-0.3,0-0.69-0.18-1.16-0.53c-0.47-0.36-1.07-0.75-1.81-1.19s-1.63-0.83-2.65-1.19
			c-1.03-0.36-2.25-0.53-3.67-0.53c-1.56,0-2.96,0.32-4.19,0.96c-1.23,0.64-2.28,1.55-3.14,2.74s-1.52,2.63-1.96,4.31
			c-0.45,1.69-0.67,3.59-0.67,5.7c0,2.32,0.24,4.32,0.72,6.02c0.48,1.7,1.16,3.09,2.04,4.19c0.88,1.1,1.95,1.92,3.2,2.45
			s2.66,0.81,4.22,0.81c1.42,0,2.65-0.17,3.69-0.5s1.92-0.71,2.67-1.11c0.74-0.41,1.35-0.77,1.83-1.1c0.48-0.32,0.85-0.49,1.11-0.49
			c0.2,0,0.37,0.04,0.49,0.12s0.22,0.24,0.3,0.49c0.08,0.24,0.14,0.58,0.18,1.02C644.91,185.99,644.93,186.57,644.93,187.31z"/><path class="st2" d="M682.99,190.29c0.24,0.73,0.4,1.31,0.46,1.74c0.06,0.43-0.02,0.75-0.24,0.96c-0.22,0.21-0.62,0.34-1.19,0.4
			c-0.57,0.05-1.35,0.08-2.35,0.08c-1.04,0-1.84-0.01-2.42-0.05c-0.58-0.03-1.02-0.09-1.33-0.18c-0.3-0.09-0.52-0.22-0.64-0.38
			c-0.12-0.16-0.22-0.38-0.3-0.64l-2.65-7.92h-14.81l-2.5,7.71c-0.08,0.28-0.19,0.52-0.32,0.72c-0.13,0.19-0.35,0.35-0.64,0.46
			c-0.29,0.11-0.71,0.19-1.25,0.23c-0.54,0.04-1.24,0.06-2.12,0.06c-0.93,0-1.67-0.03-2.19-0.09c-0.53-0.06-0.89-0.21-1.1-0.44
			c-0.2-0.23-0.27-0.56-0.21-0.99c0.06-0.43,0.21-1,0.46-1.71l12.16-34.98c0.12-0.34,0.26-0.62,0.43-0.84
			c0.16-0.21,0.42-0.38,0.78-0.49c0.36-0.11,0.85-0.18,1.48-0.21s1.46-0.05,2.5-0.05c1.2,0,2.15,0.02,2.86,0.05s1.26,0.1,1.66,0.21
			c0.4,0.11,0.68,0.28,0.85,0.5s0.32,0.53,0.44,0.91L682.99,190.29z M664.89,161.38h-0.03l-5.58,16.76h11.18L664.89,161.38z"/></g></g></svg>